%TF.GenerationSoftware,KiCad,Pcbnew,9.0.2*%
%TF.CreationDate,2026-05-12T13:54:52-04:00*%
%TF.ProjectId,sourccey_pcb,736f7572-6363-4657-995f-7063622e6b69,rev?*%
%TF.SameCoordinates,Original*%
%TF.FileFunction,Copper,L2,Bot*%
%TF.FilePolarity,Positive*%
%FSLAX46Y46*%
G04 Gerber Fmt 4.6, Leading zero omitted, Abs format (unit mm)*
G04 Created by KiCad (PCBNEW 9.0.2) date 2026-05-12 13:54:52*
%MOMM*%
%LPD*%
G01*
G04 APERTURE LIST*
G04 Aperture macros list*
%AMRoundRect*
0 Rectangle with rounded corners*
0 $1 Rounding radius*
0 $2 $3 $4 $5 $6 $7 $8 $9 X,Y pos of 4 corners*
0 Add a 4 corners polygon primitive as box body*
4,1,4,$2,$3,$4,$5,$6,$7,$8,$9,$2,$3,0*
0 Add four circle primitives for the rounded corners*
1,1,$1+$1,$2,$3*
1,1,$1+$1,$4,$5*
1,1,$1+$1,$6,$7*
1,1,$1+$1,$8,$9*
0 Add four rect primitives between the rounded corners*
20,1,$1+$1,$2,$3,$4,$5,0*
20,1,$1+$1,$4,$5,$6,$7,0*
20,1,$1+$1,$6,$7,$8,$9,0*
20,1,$1+$1,$8,$9,$2,$3,0*%
G04 Aperture macros list end*
%TA.AperFunction,ComponentPad*%
%ADD10C,0.499999*%
%TD*%
%TA.AperFunction,ComponentPad*%
%ADD11RoundRect,0.750000X-0.750000X0.750000X-0.750000X-0.750000X0.750000X-0.750000X0.750000X0.750000X0*%
%TD*%
%TA.AperFunction,ComponentPad*%
%ADD12C,3.000000*%
%TD*%
%TA.AperFunction,ComponentPad*%
%ADD13RoundRect,0.750000X0.750000X0.750000X-0.750000X0.750000X-0.750000X-0.750000X0.750000X-0.750000X0*%
%TD*%
%TA.AperFunction,ComponentPad*%
%ADD14RoundRect,0.750000X0.750000X-0.750000X0.750000X0.750000X-0.750000X0.750000X-0.750000X-0.750000X0*%
%TD*%
%TA.AperFunction,ComponentPad*%
%ADD15R,1.700000X1.700000*%
%TD*%
%TA.AperFunction,ComponentPad*%
%ADD16C,1.700000*%
%TD*%
%TA.AperFunction,ComponentPad*%
%ADD17RoundRect,0.250000X-0.725000X0.600000X-0.725000X-0.600000X0.725000X-0.600000X0.725000X0.600000X0*%
%TD*%
%TA.AperFunction,ComponentPad*%
%ADD18O,1.950000X1.700000*%
%TD*%
%TA.AperFunction,ComponentPad*%
%ADD19R,1.905000X2.000000*%
%TD*%
%TA.AperFunction,ComponentPad*%
%ADD20O,1.905000X2.000000*%
%TD*%
%TA.AperFunction,ComponentPad*%
%ADD21RoundRect,0.250001X0.949999X-0.949999X0.949999X0.949999X-0.949999X0.949999X-0.949999X-0.949999X0*%
%TD*%
%TA.AperFunction,ComponentPad*%
%ADD22C,2.400000*%
%TD*%
%TA.AperFunction,ComponentPad*%
%ADD23RoundRect,0.250000X0.600000X0.750000X-0.600000X0.750000X-0.600000X-0.750000X0.600000X-0.750000X0*%
%TD*%
%TA.AperFunction,ComponentPad*%
%ADD24O,1.700000X2.000000*%
%TD*%
%TA.AperFunction,ComponentPad*%
%ADD25RoundRect,0.750000X-0.750000X-0.750000X0.750000X-0.750000X0.750000X0.750000X-0.750000X0.750000X0*%
%TD*%
%TA.AperFunction,ComponentPad*%
%ADD26RoundRect,0.250001X-0.949999X-0.949999X0.949999X-0.949999X0.949999X0.949999X-0.949999X0.949999X0*%
%TD*%
%TA.AperFunction,ComponentPad*%
%ADD27RoundRect,0.250001X0.949999X0.949999X-0.949999X0.949999X-0.949999X-0.949999X0.949999X-0.949999X0*%
%TD*%
%TA.AperFunction,ComponentPad*%
%ADD28RoundRect,0.250000X-0.750000X0.750000X-0.750000X-0.750000X0.750000X-0.750000X0.750000X0.750000X0*%
%TD*%
%TA.AperFunction,ComponentPad*%
%ADD29C,2.000000*%
%TD*%
%TA.AperFunction,ComponentPad*%
%ADD30RoundRect,0.250000X-0.620000X-0.845000X0.620000X-0.845000X0.620000X0.845000X-0.620000X0.845000X0*%
%TD*%
%TA.AperFunction,ComponentPad*%
%ADD31O,1.740000X2.190000*%
%TD*%
%TA.AperFunction,ViaPad*%
%ADD32C,0.600000*%
%TD*%
%TA.AperFunction,ViaPad*%
%ADD33C,0.500000*%
%TD*%
%TA.AperFunction,ViaPad*%
%ADD34C,1.600000*%
%TD*%
%TA.AperFunction,Conductor*%
%ADD35C,0.500000*%
%TD*%
%TA.AperFunction,Conductor*%
%ADD36C,4.000000*%
%TD*%
%TA.AperFunction,Conductor*%
%ADD37C,2.000000*%
%TD*%
%TA.AperFunction,Conductor*%
%ADD38C,0.400000*%
%TD*%
%TA.AperFunction,Conductor*%
%ADD39C,0.300000*%
%TD*%
G04 APERTURE END LIST*
D10*
%TO.P,U2,18,GND*%
%TO.N,GND_DC_MOTOR*%
X177824600Y-96675001D03*
%TO.P,U2,19,GND*%
X177824600Y-92874999D03*
%TO.P,U2,20,GND*%
X177824600Y-93824999D03*
%TO.P,U2,21,GND*%
X177824600Y-95725001D03*
%TO.P,U2,22,GND*%
X177824600Y-94775000D03*
%TO.P,U2,23,GND*%
X180524600Y-94775000D03*
%TO.P,U2,24,GND*%
X180524600Y-95725001D03*
%TO.P,U2,25,GND*%
X180524600Y-93824999D03*
%TO.P,U2,26,GND*%
X180524600Y-92874999D03*
%TO.P,U2,27,GND*%
X180524600Y-96675001D03*
%TO.P,U2,28,GND*%
X179174600Y-96675001D03*
%TO.P,U2,29,GND*%
X179174600Y-92874999D03*
%TO.P,U2,30,GND*%
X179174600Y-93824999D03*
%TO.P,U2,31,GND*%
X179174600Y-95725001D03*
%TO.P,U2,32,GND*%
X179174600Y-94775000D03*
%TD*%
%TO.P,U3,18,GND*%
%TO.N,GND_DC_MOTOR*%
X177874600Y-82250001D03*
%TO.P,U3,19,GND*%
X177874600Y-78449999D03*
%TO.P,U3,20,GND*%
X177874600Y-79399999D03*
%TO.P,U3,21,GND*%
X177874600Y-81300001D03*
%TO.P,U3,22,GND*%
X177874600Y-80350000D03*
%TO.P,U3,23,GND*%
X180574600Y-80350000D03*
%TO.P,U3,24,GND*%
X180574600Y-81300001D03*
%TO.P,U3,25,GND*%
X180574600Y-79399999D03*
%TO.P,U3,26,GND*%
X180574600Y-78449999D03*
%TO.P,U3,27,GND*%
X180574600Y-82250001D03*
%TO.P,U3,28,GND*%
X179224600Y-82250001D03*
%TO.P,U3,29,GND*%
X179224600Y-78449999D03*
%TO.P,U3,30,GND*%
X179224600Y-79399999D03*
%TO.P,U3,31,GND*%
X179224600Y-81300001D03*
%TO.P,U3,32,GND*%
X179224600Y-80350000D03*
%TD*%
D11*
%TO.P,J9,1,Pin_1*%
%TO.N,GND_LVC*%
X95550000Y-93675000D03*
D12*
%TO.P,J9,2,Pin_2*%
%TO.N,Net-(J9-Pin_2)*%
X95550000Y-98675000D03*
%TD*%
D13*
%TO.P,J13,1,Pin_1*%
%TO.N,GND_SRV_MOTOR*%
X136025000Y-86025000D03*
D12*
%TO.P,J13,2,Pin_2*%
%TO.N,12V_SRV_MOTOR*%
X131025000Y-86025000D03*
%TD*%
D13*
%TO.P,J18,1,Pin_1*%
%TO.N,GND_BATTERY*%
X138000000Y-39500000D03*
D12*
%TO.P,J18,2,Pin_2*%
%TO.N,12V_BATTERY_DIRECT*%
X133000000Y-39500000D03*
%TD*%
D10*
%TO.P,U1,18,GND*%
%TO.N,GND_DC_MOTOR*%
X177890215Y-111332607D03*
%TO.P,U1,19,GND*%
X177890215Y-107532605D03*
%TO.P,U1,20,GND*%
X177890215Y-108482605D03*
%TO.P,U1,21,GND*%
X177890215Y-110382607D03*
%TO.P,U1,22,GND*%
X177890215Y-109432606D03*
%TO.P,U1,23,GND*%
X180590215Y-109432606D03*
%TO.P,U1,24,GND*%
X180590215Y-110382607D03*
%TO.P,U1,25,GND*%
X180590215Y-108482605D03*
%TO.P,U1,26,GND*%
X180590215Y-107532605D03*
%TO.P,U1,27,GND*%
X180590215Y-111332607D03*
%TO.P,U1,28,GND*%
X179240215Y-111332607D03*
%TO.P,U1,29,GND*%
X179240215Y-107532605D03*
%TO.P,U1,30,GND*%
X179240215Y-108482605D03*
%TO.P,U1,31,GND*%
X179240215Y-110382607D03*
%TO.P,U1,32,GND*%
X179240215Y-109432606D03*
%TD*%
D14*
%TO.P,J16,1,Pin_1*%
%TO.N,GND_CHG*%
X92550000Y-110125000D03*
D12*
%TO.P,J16,2,Pin_2*%
%TO.N,12V_CHG*%
X92550000Y-105125000D03*
%TD*%
D15*
%TO.P,J1,1,Pin_1*%
%TO.N,3.3V_PI*%
X168950000Y-123050000D03*
D16*
%TO.P,J1,2,Pin_2*%
%TO.N,unconnected-(J1-Pin_2-Pad2)*%
X168950000Y-125590000D03*
%TO.P,J1,3,Pin_3*%
%TO.N,SDAB*%
X166410000Y-123050000D03*
%TO.P,J1,4,Pin_4*%
%TO.N,unconnected-(J1-Pin_4-Pad4)*%
X166410000Y-125590000D03*
%TO.P,J1,5,Pin_5*%
%TO.N,SCLB*%
X163870000Y-123050000D03*
%TO.P,J1,6,Pin_6*%
%TO.N,GND_PI*%
X163870000Y-125590000D03*
%TO.P,J1,7,Pin_7*%
%TO.N,unconnected-(J1-Pin_7-Pad7)*%
X161330000Y-123050000D03*
%TO.P,J1,8,Pin_8*%
%TO.N,unconnected-(J1-Pin_8-Pad8)*%
X161330000Y-125590000D03*
%TO.P,J1,9,Pin_9*%
%TO.N,unconnected-(J1-Pin_9-Pad9)*%
X158790000Y-123050000D03*
%TO.P,J1,10,Pin_10*%
%TO.N,unconnected-(J1-Pin_10-Pad10)*%
X158790000Y-125590000D03*
%TO.P,J1,11,Pin_11*%
%TO.N,/EN_IN1*%
X156250000Y-123050000D03*
%TO.P,J1,12,Pin_12*%
%TO.N,unconnected-(J1-Pin_12-Pad12)*%
X156250000Y-125590000D03*
%TO.P,J1,13,Pin_13*%
%TO.N,/PH_IN1*%
X153710000Y-123050000D03*
%TO.P,J1,14,Pin_14*%
%TO.N,unconnected-(J1-Pin_14-Pad14)*%
X153710000Y-125590000D03*
%TO.P,J1,15,Pin_15*%
%TO.N,/PH_IN2*%
X151170000Y-123050000D03*
%TO.P,J1,16,Pin_16*%
%TO.N,/EN_IN2*%
X151170000Y-125590000D03*
%TO.P,J1,17,Pin_17*%
%TO.N,unconnected-(J1-Pin_17-Pad17)*%
X148630000Y-123050000D03*
%TO.P,J1,18,Pin_18*%
%TO.N,/EN_IN3*%
X148630000Y-125590000D03*
%TO.P,J1,19,Pin_19*%
%TO.N,Din*%
X146090000Y-123050000D03*
%TO.P,J1,20,Pin_20*%
%TO.N,unconnected-(J1-Pin_20-Pad20)*%
X146090000Y-125590000D03*
%TO.P,J1,21,Pin_21*%
%TO.N,Dout*%
X143550000Y-123050000D03*
%TO.P,J1,22,Pin_22*%
%TO.N,/PH_IN3*%
X143550000Y-125590000D03*
%TO.P,J1,23,Pin_23*%
%TO.N,CLK*%
X141010000Y-123050000D03*
%TO.P,J1,24,Pin_24*%
%TO.N,CS{slash}SHDN*%
X141010000Y-125590000D03*
%TO.P,J1,25,Pin_25*%
%TO.N,unconnected-(J1-Pin_25-Pad25)*%
X138470000Y-123050000D03*
%TO.P,J1,26,Pin_26*%
%TO.N,unconnected-(J1-Pin_26-Pad26)*%
X138470000Y-125590000D03*
%TO.P,J1,27,Pin_27*%
%TO.N,unconnected-(J1-Pin_27-Pad27)*%
X135930000Y-123050000D03*
%TO.P,J1,28,Pin_28*%
%TO.N,unconnected-(J1-Pin_28-Pad28)*%
X135930000Y-125590000D03*
%TO.P,J1,29,Pin_29*%
%TO.N,/EN_IN5*%
X133390000Y-123050000D03*
%TO.P,J1,30,Pin_30*%
%TO.N,unconnected-(J1-Pin_30-Pad30)*%
X133390000Y-125590000D03*
%TO.P,J1,31,Pin_31*%
%TO.N,/PH_IN5*%
X130850000Y-123050000D03*
%TO.P,J1,32,Pin_32*%
%TO.N,unconnected-(J1-Pin_32-Pad32)*%
X130850000Y-125590000D03*
%TO.P,J1,33,Pin_33*%
%TO.N,unconnected-(J1-Pin_33-Pad33)*%
X128310000Y-123050000D03*
%TO.P,J1,34,Pin_34*%
%TO.N,unconnected-(J1-Pin_34-Pad34)*%
X128310000Y-125590000D03*
%TO.P,J1,35,Pin_35*%
%TO.N,unconnected-(J1-Pin_35-Pad35)*%
X125770000Y-123050000D03*
%TO.P,J1,36,Pin_36*%
%TO.N,/PH_IN4*%
X125770000Y-125590000D03*
%TO.P,J1,37,Pin_37*%
%TO.N,/EN_IN4*%
X123230000Y-123050000D03*
%TO.P,J1,38,Pin_38*%
%TO.N,unconnected-(J1-Pin_38-Pad38)*%
X123230000Y-125590000D03*
%TO.P,J1,39,Pin_39*%
%TO.N,unconnected-(J1-Pin_39-Pad39)*%
X120690000Y-123050000D03*
%TO.P,J1,40,Pin_40*%
%TO.N,unconnected-(J1-Pin_40-Pad40)*%
X120690000Y-125590000D03*
%TD*%
D17*
%TO.P,J7,1,Pin_1*%
%TO.N,Net-(J7-Pin_1)*%
X123362500Y-94775000D03*
D18*
%TO.P,J7,2,Pin_2*%
%TO.N,3.3V_PI*%
X123362500Y-97275000D03*
%TO.P,J7,3,Pin_3*%
%TO.N,GND_LVC*%
X123362500Y-99775000D03*
%TD*%
D19*
%TO.P,Q3,1,G*%
%TO.N,Net-(Q3-G)*%
X117710000Y-82025000D03*
D20*
%TO.P,Q3,2,D*%
%TO.N,Net-(J10-Pin_1)*%
X120250000Y-82025000D03*
%TO.P,Q3,3,S*%
%TO.N,GND_LVC*%
X122790000Y-82025000D03*
%TD*%
D21*
%TO.P,C33,1*%
%TO.N,12V_LVC*%
X111500000Y-61625000D03*
D22*
%TO.P,C33,2*%
%TO.N,GND_LVC*%
X111500000Y-56625000D03*
%TD*%
D14*
%TO.P,J5,1,Pin_1*%
%TO.N,Net-(J5-Pin_1)*%
X188875000Y-68500000D03*
D12*
%TO.P,J5,2,Pin_2*%
%TO.N,Net-(J5-Pin_2)*%
X188875000Y-63500000D03*
%TD*%
D14*
%TO.P,J6,1,Pin_1*%
%TO.N,Net-(J6-Pin_1)*%
X188875000Y-56900000D03*
D12*
%TO.P,J6,2,Pin_2*%
%TO.N,Net-(J6-Pin_2)*%
X188875000Y-51900000D03*
%TD*%
D21*
%TO.P,C36,1*%
%TO.N,12V_LVC*%
X125000000Y-61640216D03*
D22*
%TO.P,C36,2*%
%TO.N,GND_LVC*%
X125000000Y-56640216D03*
%TD*%
D14*
%TO.P,J4,1,Pin_1*%
%TO.N,Net-(J4-Pin_1)*%
X189075000Y-81100000D03*
D12*
%TO.P,J4,2,Pin_2*%
%TO.N,Net-(J4-Pin_2)*%
X189075000Y-76100000D03*
%TD*%
D23*
%TO.P,TH1,1*%
%TO.N,/Power Electronics/TS*%
X179500000Y-39500000D03*
D24*
%TO.P,TH1,2*%
%TO.N,GND_BATTERY*%
X177000000Y-39500000D03*
%TD*%
D19*
%TO.P,Q1,1,G*%
%TO.N,Net-(Q1-G)*%
X109510000Y-75225000D03*
D20*
%TO.P,Q1,2,D*%
%TO.N,12V_LVC*%
X112050000Y-75225000D03*
%TO.P,Q1,3,S*%
%TO.N,Net-(Q1-S)*%
X114590000Y-75225000D03*
%TD*%
D19*
%TO.P,Q2,1,G*%
%TO.N,Net-(Q2-G)*%
X109520000Y-70325000D03*
D20*
%TO.P,Q2,2,D*%
%TO.N,Net-(J11-Pin_2)*%
X112060000Y-70325000D03*
%TO.P,Q2,3,S*%
%TO.N,Net-(Q1-S)*%
X114600000Y-70325000D03*
%TD*%
D25*
%TO.P,J14,1,Pin_1*%
%TO.N,GND_SRV_MOTOR*%
X127525000Y-111400000D03*
D12*
%TO.P,J14,2,Pin_2*%
%TO.N,12V_SRV_MOTOR*%
X132525000Y-111400000D03*
%TD*%
D14*
%TO.P,J11,1,Pin_1*%
%TO.N,GND_LVC*%
X104320000Y-87325000D03*
D12*
%TO.P,J11,2,Pin_2*%
%TO.N,Net-(J11-Pin_2)*%
X104320000Y-82325000D03*
%TD*%
D26*
%TO.P,C47,1*%
%TO.N,12V_SRV_MOTOR*%
X132525000Y-100532607D03*
D22*
%TO.P,C47,2*%
%TO.N,GND_SRV_MOTOR*%
X137525000Y-100532607D03*
%TD*%
D27*
%TO.P,C50,1*%
%TO.N,12V_SRV_MOTOR*%
X151040215Y-100432607D03*
D22*
%TO.P,C50,2*%
%TO.N,GND_SRV_MOTOR*%
X146040215Y-100432607D03*
%TD*%
D10*
%TO.P,U5,18,GND*%
%TO.N,GND_DC_MOTOR*%
X177825000Y-53600001D03*
%TO.P,U5,19,GND*%
X177825000Y-49799999D03*
%TO.P,U5,20,GND*%
X177825000Y-50749999D03*
%TO.P,U5,21,GND*%
X177825000Y-52650001D03*
%TO.P,U5,22,GND*%
X177825000Y-51700000D03*
%TO.P,U5,23,GND*%
X180525000Y-51700000D03*
%TO.P,U5,24,GND*%
X180525000Y-52650001D03*
%TO.P,U5,25,GND*%
X180525000Y-50749999D03*
%TO.P,U5,26,GND*%
X180525000Y-49799999D03*
%TO.P,U5,27,GND*%
X180525000Y-53600001D03*
%TO.P,U5,28,GND*%
X179175000Y-53600001D03*
%TO.P,U5,29,GND*%
X179175000Y-49799999D03*
%TO.P,U5,30,GND*%
X179175000Y-50749999D03*
%TO.P,U5,31,GND*%
X179175000Y-52650001D03*
%TO.P,U5,32,GND*%
X179175000Y-51700000D03*
%TD*%
D11*
%TO.P,J8,1,Pin_1*%
%TO.N,GND_LVC*%
X93950000Y-56575000D03*
D12*
%TO.P,J8,2,Pin_2*%
%TO.N,12V_LVC*%
X93950000Y-61575000D03*
%TD*%
D28*
%TO.P,C44,1*%
%TO.N,Net-(J11-Pin_2)*%
X92400000Y-81957323D03*
D29*
%TO.P,C44,2*%
%TO.N,GND_LVC*%
X92400000Y-86957323D03*
%TD*%
D14*
%TO.P,J2,1,Pin_1*%
%TO.N,Net-(J2-Pin_1)*%
X189100000Y-109400000D03*
D12*
%TO.P,J2,2,Pin_2*%
%TO.N,Net-(J2-Pin_2)*%
X189100000Y-104400000D03*
%TD*%
D14*
%TO.P,J17,1,Pin_1*%
%TO.N,GND_CHG*%
X106200000Y-110175000D03*
D12*
%TO.P,J17,2,Pin_2*%
%TO.N,Net-(D2-K)*%
X106200000Y-105175000D03*
%TD*%
D10*
%TO.P,U4,18,GND*%
%TO.N,GND_DC_MOTOR*%
X177799600Y-67925001D03*
%TO.P,U4,19,GND*%
X177799600Y-64124999D03*
%TO.P,U4,20,GND*%
X177799600Y-65074999D03*
%TO.P,U4,21,GND*%
X177799600Y-66975001D03*
%TO.P,U4,22,GND*%
X177799600Y-66025000D03*
%TO.P,U4,23,GND*%
X180499600Y-66025000D03*
%TO.P,U4,24,GND*%
X180499600Y-66975001D03*
%TO.P,U4,25,GND*%
X180499600Y-65074999D03*
%TO.P,U4,26,GND*%
X180499600Y-64124999D03*
%TO.P,U4,27,GND*%
X180499600Y-67925001D03*
%TO.P,U4,28,GND*%
X179149600Y-67925001D03*
%TO.P,U4,29,GND*%
X179149600Y-64124999D03*
%TO.P,U4,30,GND*%
X179149600Y-65074999D03*
%TO.P,U4,31,GND*%
X179149600Y-66975001D03*
%TO.P,U4,32,GND*%
X179149600Y-66025000D03*
%TD*%
D25*
%TO.P,J15,1,Pin_1*%
%TO.N,GND_SRV_MOTOR*%
X142525000Y-86025000D03*
D12*
%TO.P,J15,2,Pin_2*%
%TO.N,12V_SRV_MOTOR*%
X147525000Y-86025000D03*
%TD*%
D30*
%TO.P,J20,1,Pin_1*%
%TO.N,unconnected-(J20-Pin_1-Pad1)*%
X93920000Y-39500000D03*
D31*
%TO.P,J20,2,Pin_2*%
%TO.N,/Power Electronics/SDAA*%
X96460000Y-39500000D03*
%TO.P,J20,3,Pin_3*%
%TO.N,/Power Electronics/SCLA*%
X99000000Y-39500000D03*
%TO.P,J20,4,Pin_4*%
%TO.N,GND_BATTERY*%
X101540000Y-39500000D03*
%TD*%
D14*
%TO.P,J12,1,Pin_1*%
%TO.N,GND_LVC*%
X111570000Y-87325000D03*
D12*
%TO.P,J12,2,Pin_2*%
%TO.N,Net-(J11-Pin_2)*%
X111570000Y-82325000D03*
%TD*%
D14*
%TO.P,J3,1,Pin_1*%
%TO.N,Net-(J3-Pin_1)*%
X189275000Y-94200000D03*
D12*
%TO.P,J3,2,Pin_2*%
%TO.N,Net-(J3-Pin_2)*%
X189275000Y-89200000D03*
%TD*%
D15*
%TO.P,J10,1,Pin_1*%
%TO.N,Net-(J10-Pin_1)*%
X122900000Y-85375000D03*
%TD*%
D32*
%TO.N,GND_SYS*%
X136000000Y-59000000D03*
X135500000Y-54500000D03*
X117000000Y-54000000D03*
X108500000Y-49500000D03*
%TO.N,/Power Electronics/REG25*%
X130012000Y-76688000D03*
X137575000Y-70925000D03*
%TO.N,Net-(J11-Pin_2)*%
X102400000Y-74475000D03*
X91400000Y-95275000D03*
X102400000Y-76175000D03*
D33*
%TO.N,CLK*%
X122560000Y-121425000D03*
D32*
X104087500Y-96625000D03*
D33*
X123960000Y-121425000D03*
%TO.N,/PH_IN1*%
X172400000Y-107506607D03*
%TO.N,/PH_IN4*%
X182125000Y-72375000D03*
X175150000Y-69375000D03*
X127550000Y-127591000D03*
X175175000Y-64400002D03*
X183775000Y-115800000D03*
D32*
%TO.N,SCLB*%
X134500000Y-45500000D03*
X151000000Y-66500000D03*
X154000000Y-118000000D03*
X127500000Y-39000000D03*
X154000000Y-91000000D03*
X143500000Y-53500000D03*
X116500000Y-42500000D03*
D33*
%TO.N,Din*%
X135175000Y-119925000D03*
D32*
X104087500Y-94075000D03*
X105175000Y-115000000D03*
D33*
X133707525Y-119932525D03*
%TO.N,/EN_IN1*%
X173250000Y-105982607D03*
D32*
%TO.N,GND_LVC*%
X102287500Y-101975000D03*
%TO.N,CS{slash}SHDN*%
X98450000Y-97500000D03*
X104087500Y-92775000D03*
X102037500Y-94825000D03*
%TO.N,12V_LVC*%
X96575000Y-77350000D03*
X98350000Y-74900000D03*
D34*
%TO.N,GND_CHG*%
X141000000Y-79000000D03*
D32*
%TO.N,3.3V_PI*%
X174374999Y-80675001D03*
X176007275Y-62467725D03*
X116500000Y-45000000D03*
X176525000Y-77175000D03*
X135500000Y-119000000D03*
D33*
X174450000Y-58200000D03*
D32*
X175194242Y-105282607D03*
X124500000Y-45000000D03*
X176207275Y-91392725D03*
X176750000Y-48475000D03*
X133500000Y-119000000D03*
X120587500Y-97325000D03*
X109000000Y-53000000D03*
X175186411Y-109636411D03*
X174424999Y-95100001D03*
X160000000Y-120500000D03*
X174450000Y-52025001D03*
X174174999Y-66350001D03*
X108000000Y-90000000D03*
X106187500Y-101275000D03*
%TO.N,GND_PI*%
X135000000Y-64500000D03*
X102293043Y-113143043D03*
X104087500Y-91475000D03*
%TO.N,SDAB*%
X152500000Y-66500000D03*
X155000000Y-91000000D03*
X116500000Y-43500000D03*
X155030331Y-117969669D03*
X138058227Y-47937564D03*
X144530331Y-53469669D03*
X127500000Y-41000000D03*
%TO.N,GND_DC_MOTOR*%
X179175000Y-90425000D03*
D34*
X155000000Y-56500000D03*
D32*
X178875000Y-45775000D03*
D33*
X179175000Y-114475000D03*
D32*
X179175000Y-60049000D03*
X179175000Y-75250000D03*
D33*
%TO.N,Dout*%
X123960000Y-120725000D03*
D32*
X105506422Y-114006907D03*
D33*
X122560000Y-120725000D03*
D32*
X104087500Y-95325000D03*
D33*
X114625000Y-120725000D03*
%TO.N,/EN_IN2*%
X175149600Y-91325000D03*
%TO.N,/PH_IN3*%
X181940213Y-73199000D03*
X173150000Y-73898000D03*
X173150000Y-78725002D03*
D32*
%TO.N,/EN_IN4*%
X173025000Y-61800000D03*
%TO.N,/EN_IN5*%
X175262500Y-48362500D03*
D33*
X151328157Y-91028157D03*
X151300000Y-87925000D03*
X135000000Y-118000000D03*
D32*
%TO.N,/PH_IN5*%
X172275000Y-50075002D03*
X122510000Y-119050000D03*
D33*
%TO.N,/PH_IN2*%
X173099319Y-93138255D03*
%TO.N,/EN_IN3*%
X175249600Y-76950000D03*
X181940213Y-73899000D03*
X177040213Y-73899000D03*
D32*
%TO.N,/Power Electronics/TS*%
X139600000Y-73875000D03*
%TO.N,Net-(U8-GATE)*%
X100950000Y-77675000D03*
X101100000Y-72900000D03*
%TO.N,GND_BATTERY*%
X137500000Y-74500000D03*
X141750000Y-51950000D03*
X129000000Y-70000000D03*
X125500000Y-78000000D03*
%TO.N,GND_LDO*%
X139000000Y-51000000D03*
X154500000Y-42500000D03*
%TO.N,/Power Electronics/3.3V_DIRECT*%
X127000000Y-36000000D03*
X133000000Y-61500000D03*
X136500000Y-50000000D03*
X144500000Y-38500000D03*
X133000000Y-53000000D03*
%TO.N,/Power Electronics/12V BAT*%
X131937925Y-61500000D03*
X148000000Y-44000000D03*
%TO.N,/Power Electronics/SCLA*%
X117000000Y-39000000D03*
X138000000Y-65000000D03*
X122000000Y-43000000D03*
%TO.N,/Power Electronics/SDAA*%
X117000000Y-40000000D03*
X138000000Y-69000000D03*
X115000000Y-37000000D03*
X134075000Y-71275000D03*
X105500000Y-38000000D03*
X110500000Y-53000000D03*
X136500000Y-64933682D03*
X105500000Y-41000000D03*
%TD*%
D35*
%TO.N,GND_SYS*%
X135500000Y-58500000D02*
X136000000Y-59000000D01*
X135500000Y-54500000D02*
X135500000Y-58500000D01*
X112500000Y-49500000D02*
X117000000Y-54000000D01*
X108500000Y-49500000D02*
X112500000Y-49500000D01*
%TO.N,/Power Electronics/REG25*%
X134537500Y-72208373D02*
X134516627Y-72208373D01*
X135800000Y-70925000D02*
X134537500Y-72187500D01*
X132800000Y-73850000D02*
X130012000Y-76638000D01*
X134537500Y-72187500D02*
X134537500Y-72208373D01*
X134516627Y-72208373D02*
X132875000Y-73850000D01*
X137575000Y-70925000D02*
X135800000Y-70925000D01*
X130012000Y-76638000D02*
X130012000Y-76688000D01*
X132875000Y-73850000D02*
X132800000Y-73850000D01*
%TO.N,Net-(J11-Pin_2)*%
X102400000Y-74475000D02*
X102400000Y-76175000D01*
D36*
X92400000Y-77025000D02*
X102301000Y-67124000D01*
D35*
X99420000Y-87225000D02*
X104320000Y-82325000D01*
X91400000Y-95275000D02*
X91400000Y-94626528D01*
X98801528Y-87225000D02*
X99420000Y-87225000D01*
X91400000Y-94626528D02*
X98801528Y-87225000D01*
D36*
X92400000Y-81957323D02*
X92400000Y-77025000D01*
X102301000Y-67124000D02*
X111673500Y-67124000D01*
D37*
X112060000Y-67510500D02*
X112060000Y-70325000D01*
X111673500Y-67124000D02*
X112060000Y-67510500D01*
D35*
%TO.N,CLK*%
X103520228Y-96625000D02*
X104087500Y-96625000D01*
X101536500Y-108977737D02*
X101536500Y-98608728D01*
X107821211Y-115263861D02*
X107821211Y-115262448D01*
X138925000Y-121425000D02*
X140550000Y-123050000D01*
X105830728Y-113271965D02*
X101536500Y-108977737D01*
X106990725Y-114431962D02*
X106990725Y-114430548D01*
X108262549Y-115703786D02*
X108261136Y-115703786D01*
X123960000Y-121425000D02*
X138925000Y-121425000D01*
X108261136Y-115703786D02*
X107821211Y-115263861D01*
X140550000Y-123050000D02*
X141010000Y-123050000D01*
X106990725Y-114430548D02*
X105832142Y-113271965D01*
X101536500Y-98608728D02*
X103520228Y-96625000D01*
X105832142Y-113271965D02*
X105830728Y-113271965D01*
X113983763Y-121425000D02*
X108262549Y-115703786D01*
X107821211Y-115262448D02*
X106990725Y-114431962D01*
X122560000Y-121425000D02*
X113983763Y-121425000D01*
%TO.N,/PH_IN1*%
X169253393Y-107506607D02*
X172400000Y-107506607D01*
X153710000Y-123050000D02*
X169253393Y-107506607D01*
%TO.N,/PH_IN4*%
X175150000Y-64425002D02*
X175175000Y-64400002D01*
X182398941Y-72375000D02*
X182125000Y-72375000D01*
X183775000Y-115800000D02*
X183775000Y-73751059D01*
X175150000Y-69375000D02*
X175150000Y-64425002D01*
X183775000Y-73751059D02*
X182398941Y-72375000D01*
X125770000Y-125811000D02*
X127550000Y-127591000D01*
X125770000Y-125590000D02*
X125770000Y-125811000D01*
%TO.N,SCLB*%
X151000000Y-61000000D02*
X143500000Y-53500000D01*
X151000000Y-66500000D02*
X151000000Y-61000000D01*
X134000000Y-45500000D02*
X127500000Y-39000000D01*
X116500000Y-42500000D02*
X120000000Y-39000000D01*
X154000000Y-118000000D02*
X154000000Y-91000000D01*
X134500000Y-45500000D02*
X134000000Y-45500000D01*
X120000000Y-39000000D02*
X127500000Y-39000000D01*
%TO.N,Din*%
X133715050Y-119925000D02*
X133707525Y-119932525D01*
X102567043Y-112392043D02*
X102604118Y-112392043D01*
X102604118Y-112392043D02*
X105175000Y-114962925D01*
X102567043Y-112392043D02*
X100134500Y-109959500D01*
X100134500Y-98028000D02*
X104087500Y-94075000D01*
X135175000Y-119925000D02*
X133715050Y-119925000D01*
X100134500Y-109959500D02*
X100134500Y-98028000D01*
X105175000Y-114962925D02*
X105175000Y-115000000D01*
%TO.N,/EN_IN1*%
X171092393Y-108207607D02*
X172690364Y-108207607D01*
X172690364Y-108207607D02*
X173250000Y-107647971D01*
X156250000Y-123050000D02*
X171092393Y-108207607D01*
X173250000Y-107647971D02*
X173250000Y-105982607D01*
%TO.N,GND_LVC*%
X102287500Y-102075000D02*
X102488500Y-102276000D01*
X102287500Y-101975000D02*
X102287500Y-102075000D01*
X120861500Y-102276000D02*
X123362500Y-99775000D01*
X102488500Y-102276000D02*
X120861500Y-102276000D01*
%TO.N,CS{slash}SHDN*%
X116600000Y-128575000D02*
X98450000Y-110425000D01*
X141010000Y-125590000D02*
X138025000Y-128575000D01*
X102037500Y-94825000D02*
X104087500Y-92775000D01*
X138025000Y-128575000D02*
X116600000Y-128575000D01*
X98450000Y-110425000D02*
X98450000Y-97500000D01*
%TO.N,12V_LVC*%
X98350000Y-75577875D02*
X98350000Y-74900000D01*
X96875000Y-77052875D02*
X98350000Y-75577875D01*
D36*
X125000000Y-67775000D02*
X125000000Y-61640216D01*
D37*
X112050000Y-74671991D02*
X114195991Y-72526000D01*
D35*
X96575000Y-77350000D02*
X96872125Y-77052875D01*
D37*
X112050000Y-75225000D02*
X112050000Y-74671991D01*
D35*
X96872125Y-77052875D02*
X96875000Y-77052875D01*
D37*
X114195991Y-72526000D02*
X120249000Y-72526000D01*
D36*
X120249000Y-72526000D02*
X125000000Y-67775000D01*
%TO.N,GND_CHG*%
X126538500Y-83636500D02*
X126538500Y-101038766D01*
X131325000Y-78850000D02*
X126538500Y-83636500D01*
X126538500Y-101038766D02*
X117402266Y-110175000D01*
X117402266Y-110175000D02*
X106200000Y-110175000D01*
X141225000Y-78850000D02*
X131325000Y-78850000D01*
D38*
%TO.N,3.3V_PI*%
X176007275Y-62467725D02*
X176000000Y-62475000D01*
D35*
X107500000Y-55500000D02*
X107500000Y-54500000D01*
X89946000Y-82973803D02*
X91972197Y-85000000D01*
D38*
X175194242Y-105282607D02*
X175194242Y-107242064D01*
X175200000Y-109622822D02*
X175186411Y-109636411D01*
X176525000Y-77175000D02*
X176525000Y-78525000D01*
D35*
X107500000Y-55500000D02*
X89946000Y-73054000D01*
D39*
X174374999Y-93125001D02*
X174424999Y-93175001D01*
D35*
X174450000Y-52025001D02*
X174450000Y-58200000D01*
D39*
X174174999Y-66350001D02*
X174174999Y-74575000D01*
D35*
X106487500Y-101575000D02*
X116337500Y-101575000D01*
X108000000Y-83241626D02*
X108000000Y-90000000D01*
D38*
X176750000Y-48612500D02*
X176750000Y-48475000D01*
D35*
X174450000Y-58200000D02*
X174450000Y-66075000D01*
D38*
X174450000Y-52025001D02*
X174450000Y-50912500D01*
X174450000Y-50912500D02*
X176750000Y-48612500D01*
D35*
X98881626Y-85000000D02*
X103510626Y-80371000D01*
X105129374Y-80371000D02*
X108000000Y-83241626D01*
D39*
X174174999Y-74575000D02*
X174174999Y-80475001D01*
X174374999Y-80675001D02*
X174374999Y-93125001D01*
X174174999Y-80475001D02*
X174374999Y-80675001D01*
D35*
X174450000Y-66075000D02*
X174174999Y-66350001D01*
D38*
X176525000Y-78525000D02*
X174374999Y-80675001D01*
X174450000Y-62475000D02*
X174450000Y-63950000D01*
D35*
X103510626Y-80371000D02*
X105129374Y-80371000D01*
X160000000Y-120500000D02*
X168950000Y-120500000D01*
D38*
X176000000Y-62475000D02*
X174450000Y-62475000D01*
D35*
X168950000Y-123050000D02*
X168950000Y-120500000D01*
X91972197Y-85000000D02*
X98881626Y-85000000D01*
X116337500Y-101575000D02*
X120587500Y-97325000D01*
X124500000Y-45000000D02*
X116500000Y-45000000D01*
X106187500Y-101275000D02*
X106487500Y-101575000D01*
X168950000Y-120500000D02*
X168950000Y-115872822D01*
X133500000Y-119000000D02*
X135500000Y-119000000D01*
X107500000Y-54500000D02*
X109000000Y-53000000D01*
D38*
X176207275Y-91392725D02*
X174424999Y-93175001D01*
X174424999Y-93175001D02*
X174424999Y-95100001D01*
D35*
X168950000Y-115872822D02*
X175186411Y-109636411D01*
D38*
X175200000Y-107247822D02*
X175200000Y-109622822D01*
D35*
X89946000Y-73054000D02*
X89946000Y-82973803D01*
D38*
X175194242Y-107242064D02*
X175200000Y-107247822D01*
D35*
X175194242Y-95869244D02*
X174424999Y-95100001D01*
X175194242Y-105282607D02*
X175194242Y-95869244D01*
%TO.N,GND_PI*%
X124193500Y-82653849D02*
X122773349Y-84074000D01*
X102159407Y-113143043D02*
X99425000Y-110408636D01*
X118019472Y-84074000D02*
X110618472Y-91475000D01*
X135000000Y-64500000D02*
X132500000Y-64500000D01*
X110618472Y-91475000D02*
X104087500Y-91475000D01*
X132500000Y-64500000D02*
X124193500Y-72806500D01*
X124193500Y-72806500D02*
X124193500Y-82653849D01*
X122773349Y-84074000D02*
X118019472Y-84074000D01*
X99425000Y-96137500D02*
X104087500Y-91475000D01*
X102293043Y-113143043D02*
X102159407Y-113143043D01*
X99425000Y-110408636D02*
X99425000Y-96137500D01*
%TO.N,SDAB*%
X144500000Y-53500000D02*
X144530331Y-53469669D01*
X116500000Y-43500000D02*
X117000000Y-43500000D01*
X155030331Y-117969669D02*
X155000000Y-117939338D01*
X152000000Y-66000000D02*
X152000000Y-61000000D01*
X138058227Y-47937564D02*
X136620663Y-46500000D01*
X133000000Y-46500000D02*
X127500000Y-41000000D01*
X155000000Y-117939338D02*
X155000000Y-91000000D01*
X136620663Y-46500000D02*
X133000000Y-46500000D01*
X152000000Y-61000000D02*
X144500000Y-53500000D01*
X152500000Y-66500000D02*
X152000000Y-66000000D01*
X117000000Y-43500000D02*
X119500000Y-41000000D01*
X119500000Y-41000000D02*
X127500000Y-41000000D01*
D36*
%TO.N,GND_SRV_MOTOR*%
X146040215Y-100432607D02*
X137625000Y-100432607D01*
X137525000Y-100950000D02*
X127525000Y-110950000D01*
X137525000Y-100532607D02*
X137525000Y-100950000D01*
X137625000Y-100432607D02*
X137525000Y-100532607D01*
X127525000Y-110950000D02*
X127525000Y-111400000D01*
%TO.N,GND_DC_MOTOR*%
X165525000Y-45775000D02*
X154725000Y-56575000D01*
X179490213Y-111082609D02*
X179490213Y-46390213D01*
X179240215Y-111332607D02*
X179490213Y-111082609D01*
X178875000Y-45775000D02*
X165525000Y-45775000D01*
X179490213Y-46390213D02*
X178875000Y-45775000D01*
D39*
X178875000Y-48749999D02*
X177825000Y-49799999D01*
D35*
X179175000Y-111397822D02*
X179240215Y-111332607D01*
X179175000Y-114475000D02*
X179175000Y-111397822D01*
D36*
X154725000Y-56575000D02*
X154925000Y-56575000D01*
X154925000Y-56575000D02*
X155000000Y-56500000D01*
D35*
%TO.N,Dout*%
X100835500Y-98318364D02*
X100835500Y-109268101D01*
X122560000Y-120725000D02*
X114625000Y-120725000D01*
X103828864Y-95325000D02*
X100835500Y-98318364D01*
X100835500Y-109268101D02*
X105540364Y-113972965D01*
X143550000Y-123050000D02*
X141225000Y-120725000D01*
X141225000Y-120725000D02*
X123960000Y-120725000D01*
X104087500Y-95325000D02*
X103828864Y-95325000D01*
%TO.N,/EN_IN2*%
X176700000Y-91962075D02*
X176958275Y-91703800D01*
X151170000Y-125590000D02*
X152471000Y-126891000D01*
X176958275Y-91703800D02*
X176958275Y-91081650D01*
X152471000Y-126891000D02*
X169488892Y-126891000D01*
X176958275Y-91081650D02*
X176518350Y-90641725D01*
X176700000Y-119679892D02*
X176700000Y-91962075D01*
X169488892Y-126891000D02*
X176700000Y-119679892D01*
X175832875Y-90641725D02*
X175149600Y-91325000D01*
X176518350Y-90641725D02*
X175832875Y-90641725D01*
%TO.N,/PH_IN3*%
X182976000Y-73943423D02*
X182231577Y-73199000D01*
X146253000Y-128293000D02*
X170069620Y-128293000D01*
X182231577Y-73199000D02*
X181940213Y-73199000D01*
X182976000Y-115386620D02*
X182976000Y-73943423D01*
X170069620Y-128293000D02*
X182976000Y-115386620D01*
X143550000Y-125590000D02*
X146253000Y-128293000D01*
X173150000Y-73898000D02*
X173150000Y-78725002D01*
%TO.N,/EN_IN4*%
X172976000Y-61800000D02*
X172976000Y-68390364D01*
X123260000Y-123020000D02*
X123230000Y-123050000D01*
X123260000Y-119362075D02*
X123260000Y-123020000D01*
X122951000Y-118428925D02*
X123261000Y-118738925D01*
X173025000Y-61800000D02*
X172976000Y-61800000D01*
X122951000Y-112057762D02*
X122951000Y-118428925D01*
X129701000Y-105307762D02*
X122951000Y-112057762D01*
X172976000Y-68390364D02*
X143384757Y-97981607D01*
X132177708Y-97981607D02*
X129701000Y-100458315D01*
X129701000Y-100458315D02*
X129701000Y-105307762D01*
X123261000Y-118738925D02*
X123261000Y-119361075D01*
X123261000Y-119361075D02*
X123260000Y-119362075D01*
X143384757Y-97981607D02*
X132177708Y-97981607D01*
%TO.N,/EN_IN5*%
X135000000Y-118000000D02*
X148491215Y-104508785D01*
X148491215Y-93958785D02*
X151328157Y-91121843D01*
X148491215Y-104508785D02*
X148491215Y-93958785D01*
X151328157Y-91121843D02*
X151328157Y-91028157D01*
X175262500Y-48362500D02*
X172925427Y-48362500D01*
X151300000Y-69987927D02*
X151300000Y-87925000D01*
X172925427Y-48362500D02*
X151300000Y-69987927D01*
%TO.N,/PH_IN5*%
X122250000Y-111767398D02*
X129000000Y-105017398D01*
X129000000Y-100167951D02*
X131887344Y-97280607D01*
X122250000Y-118790000D02*
X122250000Y-111767398D01*
X131887344Y-97280607D02*
X143094393Y-97280607D01*
X129000000Y-105017398D02*
X129000000Y-100167951D01*
X122510000Y-119050000D02*
X122250000Y-118790000D01*
X143094393Y-97280607D02*
X172275000Y-68100000D01*
X172275000Y-68100000D02*
X172275000Y-50075002D01*
%TO.N,/PH_IN2*%
X151170000Y-123050000D02*
X173099319Y-101120681D01*
X173099319Y-101120681D02*
X173099319Y-93138255D01*
%TO.N,/EN_IN3*%
X182275000Y-74233787D02*
X181940213Y-73899000D01*
X177040213Y-73899000D02*
X177040213Y-75159387D01*
X150632000Y-127592000D02*
X169779256Y-127592000D01*
X182275000Y-115096256D02*
X182275000Y-74233787D01*
X177040213Y-75159387D02*
X175249600Y-76950000D01*
X169779256Y-127592000D02*
X182275000Y-115096256D01*
X148630000Y-125590000D02*
X150632000Y-127592000D01*
%TO.N,/Power Electronics/TS*%
X179500000Y-39500000D02*
X175676000Y-43324000D01*
X145112075Y-51887925D02*
X142500000Y-51887925D01*
X175676000Y-43324000D02*
X164176000Y-43324000D01*
X142500000Y-70975000D02*
X139600000Y-73875000D01*
X156500000Y-51000000D02*
X146000000Y-51000000D01*
X142500000Y-51887925D02*
X142500000Y-70975000D01*
X164176000Y-43324000D02*
X156500000Y-51000000D01*
X146000000Y-51000000D02*
X145112075Y-51887925D01*
%TO.N,Net-(U8-GATE)*%
X101100000Y-77525000D02*
X100950000Y-77675000D01*
X101100000Y-72900000D02*
X101100000Y-77525000D01*
%TO.N,GND_BATTERY*%
X141750000Y-51950000D02*
X139050000Y-51950000D01*
D38*
X137500000Y-74500000D02*
X138000000Y-74000000D01*
D35*
X139107475Y-70457533D02*
X139107475Y-71942525D01*
X128500000Y-70000000D02*
X129000000Y-70000000D01*
X125500000Y-73000000D02*
X128500000Y-70000000D01*
X138929289Y-52070711D02*
X138929289Y-66833636D01*
X139500000Y-70065008D02*
X139107475Y-70457533D01*
X133000000Y-66000000D02*
X139000000Y-66000000D01*
X138000000Y-73050000D02*
X138000000Y-74000000D01*
D38*
X125500000Y-78000000D02*
X125500000Y-73000000D01*
D35*
X138929289Y-66833636D02*
X139500000Y-67404347D01*
X129000000Y-70000000D02*
X133000000Y-66000000D01*
X139500000Y-67404347D02*
X139500000Y-70065008D01*
X139050000Y-51950000D02*
X138929289Y-52070711D01*
X139107475Y-71942525D02*
X138000000Y-73050000D01*
%TO.N,GND_LDO*%
X145008636Y-51000000D02*
X145709636Y-50299000D01*
X154201000Y-50299000D02*
X154500000Y-50000000D01*
X154500000Y-50000000D02*
X154500000Y-42500000D01*
X145709636Y-50299000D02*
X154201000Y-50299000D01*
X139000000Y-51000000D02*
X145008636Y-51000000D01*
%TO.N,/Power Electronics/3.3V_DIRECT*%
X146902000Y-49598000D02*
X149000000Y-47500000D01*
X127000000Y-36000000D02*
X142000000Y-36000000D01*
X149000000Y-47500000D02*
X149000000Y-42500000D01*
X145017272Y-50000000D02*
X145419272Y-49598000D01*
X142000000Y-36000000D02*
X144500000Y-38500000D01*
X145419272Y-49598000D02*
X146902000Y-49598000D01*
X149000000Y-42500000D02*
X145000000Y-38500000D01*
X136500000Y-50000000D02*
X145017272Y-50000000D01*
X133000000Y-61500000D02*
X133000000Y-53000000D01*
X145000000Y-38500000D02*
X144500000Y-38500000D01*
%TO.N,/Power Electronics/12V BAT*%
X131937925Y-61500000D02*
X131937925Y-53000001D01*
X131937925Y-53000001D02*
X135937926Y-49000000D01*
X143000000Y-49000000D02*
X148000000Y-44000000D01*
X135937926Y-49000000D02*
X143000000Y-49000000D01*
%TO.N,/Power Electronics/SCLA*%
X132417850Y-63042000D02*
X136042000Y-63042000D01*
X136042000Y-63042000D02*
X138000000Y-65000000D01*
X122000000Y-43000000D02*
X124000000Y-43000000D01*
X117000000Y-39000000D02*
X117000000Y-37500000D01*
X126651000Y-57275150D02*
X132417850Y-63042000D01*
X124000000Y-43000000D02*
X126651000Y-45651000D01*
X117000000Y-37500000D02*
X115500000Y-36000000D01*
X115500000Y-36000000D02*
X102500000Y-36000000D01*
X126651000Y-45651000D02*
X126651000Y-57275150D01*
X102500000Y-36000000D02*
X99000000Y-39500000D01*
%TO.N,/Power Electronics/SDAA*%
X130576264Y-63746000D02*
X135312318Y-63746000D01*
D38*
X134458636Y-71275000D02*
X134075000Y-71275000D01*
D35*
X125330264Y-58500000D02*
X130576264Y-63746000D01*
X105500000Y-41000000D02*
X105500000Y-38000000D01*
X115000000Y-38062075D02*
X115000000Y-37000000D01*
D38*
X135558636Y-70175000D02*
X134458636Y-71275000D01*
D35*
X138000000Y-70079288D02*
X137904288Y-70175000D01*
X112500000Y-53000000D02*
X118000000Y-58500000D01*
X117000000Y-40000000D02*
X116937925Y-40000000D01*
X136500000Y-65000000D02*
X136500000Y-64933682D01*
X118000000Y-58500000D02*
X125330264Y-58500000D01*
X112500000Y-53000000D02*
X110500000Y-53000000D01*
X135312318Y-63746000D02*
X136500000Y-64933682D01*
D38*
X137904288Y-70175000D02*
X135558636Y-70175000D01*
D35*
X138000000Y-69000000D02*
X138000000Y-70079288D01*
X116937925Y-40000000D02*
X115000000Y-38062075D01*
%TD*%
M02*
