%TF.GenerationSoftware,KiCad,Pcbnew,9.0.2*%
%TF.CreationDate,2026-05-12T13:54:52-04:00*%
%TF.ProjectId,sourccey_pcb,736f7572-6363-4657-995f-7063622e6b69,rev?*%
%TF.SameCoordinates,Original*%
%TF.FileFunction,Copper,L1,Top*%
%TF.FilePolarity,Positive*%
%FSLAX46Y46*%
G04 Gerber Fmt 4.6, Leading zero omitted, Abs format (unit mm)*
G04 Created by KiCad (PCBNEW 9.0.2) date 2026-05-12 13:54:52*
%MOMM*%
%LPD*%
G01*
G04 APERTURE LIST*
G04 Aperture macros list*
%AMRoundRect*
0 Rectangle with rounded corners*
0 $1 Rounding radius*
0 $2 $3 $4 $5 $6 $7 $8 $9 X,Y pos of 4 corners*
0 Add a 4 corners polygon primitive as box body*
4,1,4,$2,$3,$4,$5,$6,$7,$8,$9,$2,$3,0*
0 Add four circle primitives for the rounded corners*
1,1,$1+$1,$2,$3*
1,1,$1+$1,$4,$5*
1,1,$1+$1,$6,$7*
1,1,$1+$1,$8,$9*
0 Add four rect primitives between the rounded corners*
20,1,$1+$1,$2,$3,$4,$5,0*
20,1,$1+$1,$4,$5,$6,$7,0*
20,1,$1+$1,$6,$7,$8,$9,0*
20,1,$1+$1,$8,$9,$2,$3,0*%
G04 Aperture macros list end*
%TA.AperFunction,EtchedComponent*%
%ADD10C,0.000000*%
%TD*%
%TA.AperFunction,SMDPad,CuDef*%
%ADD11R,1.200000X0.399999*%
%TD*%
%TA.AperFunction,SMDPad,CuDef*%
%ADD12R,3.400001X5.000000*%
%TD*%
%TA.AperFunction,ComponentPad*%
%ADD13C,0.499999*%
%TD*%
%TA.AperFunction,SMDPad,CuDef*%
%ADD14RoundRect,0.100000X-0.687500X-0.100000X0.687500X-0.100000X0.687500X0.100000X-0.687500X0.100000X0*%
%TD*%
%TA.AperFunction,HeatsinkPad*%
%ADD15R,1.500000X1.800000*%
%TD*%
%TA.AperFunction,SMDPad,CuDef*%
%ADD16RoundRect,0.250000X-0.262500X-0.450000X0.262500X-0.450000X0.262500X0.450000X-0.262500X0.450000X0*%
%TD*%
%TA.AperFunction,SMDPad,CuDef*%
%ADD17RoundRect,0.225000X-0.225000X-0.250000X0.225000X-0.250000X0.225000X0.250000X-0.225000X0.250000X0*%
%TD*%
%TA.AperFunction,SMDPad,CuDef*%
%ADD18RoundRect,0.140000X0.170000X-0.140000X0.170000X0.140000X-0.170000X0.140000X-0.170000X-0.140000X0*%
%TD*%
%TA.AperFunction,SMDPad,CuDef*%
%ADD19RoundRect,0.250000X0.262500X0.450000X-0.262500X0.450000X-0.262500X-0.450000X0.262500X-0.450000X0*%
%TD*%
%TA.AperFunction,SMDPad,CuDef*%
%ADD20RoundRect,0.250000X1.000000X0.900000X-1.000000X0.900000X-1.000000X-0.900000X1.000000X-0.900000X0*%
%TD*%
%TA.AperFunction,SMDPad,CuDef*%
%ADD21RoundRect,0.250000X-0.450000X0.262500X-0.450000X-0.262500X0.450000X-0.262500X0.450000X0.262500X0*%
%TD*%
%TA.AperFunction,ComponentPad*%
%ADD22RoundRect,0.750000X-0.750000X0.750000X-0.750000X-0.750000X0.750000X-0.750000X0.750000X0.750000X0*%
%TD*%
%TA.AperFunction,ComponentPad*%
%ADD23C,3.000000*%
%TD*%
%TA.AperFunction,ComponentPad*%
%ADD24RoundRect,0.750000X0.750000X0.750000X-0.750000X0.750000X-0.750000X-0.750000X0.750000X-0.750000X0*%
%TD*%
%TA.AperFunction,SMDPad,CuDef*%
%ADD25RoundRect,0.225000X-0.250000X0.225000X-0.250000X-0.225000X0.250000X-0.225000X0.250000X0.225000X0*%
%TD*%
%TA.AperFunction,SMDPad,CuDef*%
%ADD26RoundRect,0.225000X0.225000X0.250000X-0.225000X0.250000X-0.225000X-0.250000X0.225000X-0.250000X0*%
%TD*%
%TA.AperFunction,SMDPad,CuDef*%
%ADD27RoundRect,0.250000X0.650000X-0.325000X0.650000X0.325000X-0.650000X0.325000X-0.650000X-0.325000X0*%
%TD*%
%TA.AperFunction,SMDPad,CuDef*%
%ADD28RoundRect,0.250000X-0.550000X1.500000X-0.550000X-1.500000X0.550000X-1.500000X0.550000X1.500000X0*%
%TD*%
%TA.AperFunction,SMDPad,CuDef*%
%ADD29C,2.000000*%
%TD*%
%TA.AperFunction,SMDPad,CuDef*%
%ADD30RoundRect,0.250000X-0.475000X0.250000X-0.475000X-0.250000X0.475000X-0.250000X0.475000X0.250000X0*%
%TD*%
%TA.AperFunction,SMDPad,CuDef*%
%ADD31RoundRect,0.150000X-0.150000X-0.625000X0.150000X-0.625000X0.150000X0.625000X-0.150000X0.625000X0*%
%TD*%
%TA.AperFunction,SMDPad,CuDef*%
%ADD32RoundRect,0.250000X-0.350000X-0.650000X0.350000X-0.650000X0.350000X0.650000X-0.350000X0.650000X0*%
%TD*%
%TA.AperFunction,ComponentPad*%
%ADD33RoundRect,0.750000X0.750000X-0.750000X0.750000X0.750000X-0.750000X0.750000X-0.750000X-0.750000X0*%
%TD*%
%TA.AperFunction,ComponentPad*%
%ADD34R,1.700000X1.700000*%
%TD*%
%TA.AperFunction,ComponentPad*%
%ADD35C,1.700000*%
%TD*%
%TA.AperFunction,ComponentPad*%
%ADD36RoundRect,0.250000X-0.725000X0.600000X-0.725000X-0.600000X0.725000X-0.600000X0.725000X0.600000X0*%
%TD*%
%TA.AperFunction,ComponentPad*%
%ADD37O,1.950000X1.700000*%
%TD*%
%TA.AperFunction,SMDPad,CuDef*%
%ADD38RoundRect,0.250000X-1.500000X-0.550000X1.500000X-0.550000X1.500000X0.550000X-1.500000X0.550000X0*%
%TD*%
%TA.AperFunction,SMDPad,CuDef*%
%ADD39RoundRect,0.250000X-1.425000X0.362500X-1.425000X-0.362500X1.425000X-0.362500X1.425000X0.362500X0*%
%TD*%
%TA.AperFunction,SMDPad,CuDef*%
%ADD40RoundRect,0.225000X0.250000X-0.225000X0.250000X0.225000X-0.250000X0.225000X-0.250000X-0.225000X0*%
%TD*%
%TA.AperFunction,SMDPad,CuDef*%
%ADD41RoundRect,0.250000X0.450000X-0.262500X0.450000X0.262500X-0.450000X0.262500X-0.450000X-0.262500X0*%
%TD*%
%TA.AperFunction,SMDPad,CuDef*%
%ADD42R,2.000000X2.000000*%
%TD*%
%TA.AperFunction,ComponentPad*%
%ADD43R,1.905000X2.000000*%
%TD*%
%TA.AperFunction,ComponentPad*%
%ADD44O,1.905000X2.000000*%
%TD*%
%TA.AperFunction,ComponentPad*%
%ADD45RoundRect,0.250001X0.949999X-0.949999X0.949999X0.949999X-0.949999X0.949999X-0.949999X-0.949999X0*%
%TD*%
%TA.AperFunction,ComponentPad*%
%ADD46C,2.400000*%
%TD*%
%TA.AperFunction,SMDPad,CuDef*%
%ADD47RoundRect,0.200000X-0.275000X0.200000X-0.275000X-0.200000X0.275000X-0.200000X0.275000X0.200000X0*%
%TD*%
%TA.AperFunction,SMDPad,CuDef*%
%ADD48RoundRect,0.062500X-0.372500X-0.062500X0.372500X-0.062500X0.372500X0.062500X-0.372500X0.062500X0*%
%TD*%
%TA.AperFunction,HeatsinkPad*%
%ADD49R,0.610000X2.200000*%
%TD*%
%TA.AperFunction,SMDPad,CuDef*%
%ADD50R,1.000000X0.800000*%
%TD*%
%TA.AperFunction,SMDPad,CuDef*%
%ADD51R,0.700000X1.500000*%
%TD*%
%TA.AperFunction,ComponentPad*%
%ADD52RoundRect,0.250000X0.600000X0.750000X-0.600000X0.750000X-0.600000X-0.750000X0.600000X-0.750000X0*%
%TD*%
%TA.AperFunction,ComponentPad*%
%ADD53O,1.700000X2.000000*%
%TD*%
%TA.AperFunction,ComponentPad*%
%ADD54RoundRect,0.750000X-0.750000X-0.750000X0.750000X-0.750000X0.750000X0.750000X-0.750000X0.750000X0*%
%TD*%
%TA.AperFunction,SMDPad,CuDef*%
%ADD55RoundRect,0.250000X0.475000X-0.250000X0.475000X0.250000X-0.475000X0.250000X-0.475000X-0.250000X0*%
%TD*%
%TA.AperFunction,SMDPad,CuDef*%
%ADD56RoundRect,0.250000X0.325000X0.650000X-0.325000X0.650000X-0.325000X-0.650000X0.325000X-0.650000X0*%
%TD*%
%TA.AperFunction,SMDPad,CuDef*%
%ADD57RoundRect,0.150000X0.825000X0.150000X-0.825000X0.150000X-0.825000X-0.150000X0.825000X-0.150000X0*%
%TD*%
%TA.AperFunction,SMDPad,CuDef*%
%ADD58RoundRect,0.250000X-0.650000X0.325000X-0.650000X-0.325000X0.650000X-0.325000X0.650000X0.325000X0*%
%TD*%
%TA.AperFunction,SMDPad,CuDef*%
%ADD59RoundRect,0.250000X-0.250000X-0.475000X0.250000X-0.475000X0.250000X0.475000X-0.250000X0.475000X0*%
%TD*%
%TA.AperFunction,ComponentPad*%
%ADD60RoundRect,0.250001X-0.949999X-0.949999X0.949999X-0.949999X0.949999X0.949999X-0.949999X0.949999X0*%
%TD*%
%TA.AperFunction,SMDPad,CuDef*%
%ADD61RoundRect,0.150000X-0.825000X-0.150000X0.825000X-0.150000X0.825000X0.150000X-0.825000X0.150000X0*%
%TD*%
%TA.AperFunction,ComponentPad*%
%ADD62RoundRect,0.250001X0.949999X0.949999X-0.949999X0.949999X-0.949999X-0.949999X0.949999X-0.949999X0*%
%TD*%
%TA.AperFunction,SMDPad,CuDef*%
%ADD63R,0.800000X1.000000*%
%TD*%
%TA.AperFunction,SMDPad,CuDef*%
%ADD64R,1.500000X0.700000*%
%TD*%
%TA.AperFunction,SMDPad,CuDef*%
%ADD65RoundRect,0.100000X-0.637500X-0.100000X0.637500X-0.100000X0.637500X0.100000X-0.637500X0.100000X0*%
%TD*%
%TA.AperFunction,ComponentPad*%
%ADD66RoundRect,0.250000X-0.750000X0.750000X-0.750000X-0.750000X0.750000X-0.750000X0.750000X0.750000X0*%
%TD*%
%TA.AperFunction,ComponentPad*%
%ADD67C,2.000000*%
%TD*%
%TA.AperFunction,SMDPad,CuDef*%
%ADD68RoundRect,0.250000X-0.900000X1.000000X-0.900000X-1.000000X0.900000X-1.000000X0.900000X1.000000X0*%
%TD*%
%TA.AperFunction,SMDPad,CuDef*%
%ADD69RoundRect,0.250000X-0.325000X-0.650000X0.325000X-0.650000X0.325000X0.650000X-0.325000X0.650000X0*%
%TD*%
%TA.AperFunction,SMDPad,CuDef*%
%ADD70RoundRect,0.250000X0.250000X0.475000X-0.250000X0.475000X-0.250000X-0.475000X0.250000X-0.475000X0*%
%TD*%
%TA.AperFunction,ComponentPad*%
%ADD71RoundRect,0.250000X-0.620000X-0.845000X0.620000X-0.845000X0.620000X0.845000X-0.620000X0.845000X0*%
%TD*%
%TA.AperFunction,ComponentPad*%
%ADD72O,1.740000X2.190000*%
%TD*%
%TA.AperFunction,ViaPad*%
%ADD73C,0.600000*%
%TD*%
%TA.AperFunction,ViaPad*%
%ADD74C,0.500000*%
%TD*%
%TA.AperFunction,ViaPad*%
%ADD75C,1.600000*%
%TD*%
%TA.AperFunction,Conductor*%
%ADD76C,0.500000*%
%TD*%
%TA.AperFunction,Conductor*%
%ADD77C,1.500000*%
%TD*%
%TA.AperFunction,Conductor*%
%ADD78C,0.400000*%
%TD*%
%TA.AperFunction,Conductor*%
%ADD79C,4.000000*%
%TD*%
%TA.AperFunction,Conductor*%
%ADD80C,0.300000*%
%TD*%
%TA.AperFunction,Conductor*%
%ADD81C,0.250000*%
%TD*%
%TA.AperFunction,Conductor*%
%ADD82C,0.200000*%
%TD*%
%TA.AperFunction,Conductor*%
%ADD83C,2.000000*%
%TD*%
G04 APERTURE END LIST*
D10*
%TA.AperFunction,EtchedComponent*%
%TO.C,NT6*%
G36*
X154750000Y-63825000D02*
G01*
X150750000Y-63825000D01*
X150750000Y-61825000D01*
X154750000Y-61825000D01*
X154750000Y-63825000D01*
G37*
%TD.AperFunction*%
%TA.AperFunction,EtchedComponent*%
%TO.C,NT5*%
G36*
X148725000Y-67100000D02*
G01*
X146725000Y-67100000D01*
X146725000Y-63100000D01*
X148725000Y-63100000D01*
X148725000Y-67100000D01*
G37*
%TD.AperFunction*%
%TA.AperFunction,EtchedComponent*%
%TO.C,NT8*%
G36*
X140200000Y-63775000D02*
G01*
X136200000Y-63775000D01*
X136200000Y-61775000D01*
X140200000Y-61775000D01*
X140200000Y-63775000D01*
G37*
%TD.AperFunction*%
%TA.AperFunction,EtchedComponent*%
%TO.C,NT2*%
G36*
X136350000Y-117500000D02*
G01*
X132350000Y-117500000D01*
X132350000Y-115500000D01*
X136350000Y-115500000D01*
X136350000Y-117500000D01*
G37*
%TD.AperFunction*%
%TA.AperFunction,EtchedComponent*%
%TO.C,NT1*%
G36*
X138700000Y-112500000D02*
G01*
X134700000Y-112500000D01*
X134700000Y-110500000D01*
X138700000Y-110500000D01*
X138700000Y-112500000D01*
G37*
%TD.AperFunction*%
%TA.AperFunction,EtchedComponent*%
%TO.C,NT9*%
G36*
X138000000Y-57500000D02*
G01*
X134000000Y-57500000D01*
X134000000Y-55500000D01*
X138000000Y-55500000D01*
X138000000Y-57500000D01*
G37*
%TD.AperFunction*%
%TA.AperFunction,EtchedComponent*%
%TO.C,NT3*%
G36*
X138500000Y-56000000D02*
G01*
X136500000Y-56000000D01*
X136500000Y-52000000D01*
X138500000Y-52000000D01*
X138500000Y-56000000D01*
G37*
%TD.AperFunction*%
%TA.AperFunction,EtchedComponent*%
%TO.C,NT7*%
G36*
X143950000Y-67125000D02*
G01*
X141950000Y-67125000D01*
X141950000Y-63125000D01*
X143950000Y-63125000D01*
X143950000Y-67125000D01*
G37*
%TD.AperFunction*%
%TD*%
D11*
%TO.P,U2,1,EN_IN1*%
%TO.N,/EN_IN2*%
X176324601Y-92500001D03*
%TO.P,U2,2,PH_IN2*%
%TO.N,/PH_IN2*%
X176324601Y-93150002D03*
%TO.P,U2,3,SLEEP_N*%
%TO.N,Net-(U2-SLEEP_N)*%
X176324601Y-93800001D03*
%TO.P,U2,4,FAULT_N*%
%TO.N,unconnected-(U2-FAULT_N-Pad4)*%
X176324601Y-94450002D03*
%TO.P,U2,5,VREF*%
%TO.N,3.3V_PI*%
X176324601Y-95100001D03*
%TO.P,U2,6,IPROPI*%
%TO.N,Net-(U2-IPROPI)*%
X176324601Y-95750002D03*
%TO.P,U2,7,IMODE*%
%TO.N,Net-(U2-IMODE)*%
X176324601Y-96400001D03*
%TO.P,U2,8,OUT1*%
%TO.N,Net-(J3-Pin_1)*%
X176324601Y-97050002D03*
%TO.P,U2,9,PGND*%
%TO.N,GND_DC_MOTOR*%
X182024599Y-97050002D03*
%TO.P,U2,10,OUT2*%
%TO.N,Net-(J3-Pin_2)*%
X182024599Y-96400001D03*
%TO.P,U2,11,VM*%
%TO.N,/VM*%
X182024599Y-95750002D03*
%TO.P,U2,12,VCP*%
%TO.N,Net-(U2-VCP)*%
X182024599Y-95100001D03*
%TO.P,U2,13,CPH*%
%TO.N,Net-(U2-CPH)*%
X182024599Y-94450002D03*
%TO.P,U2,14,CPL*%
%TO.N,Net-(U2-CPL)*%
X182024599Y-93800001D03*
%TO.P,U2,15,GND*%
%TO.N,GND_DC_MOTOR*%
X182024599Y-93150002D03*
%TO.P,U2,16,PMODE*%
%TO.N,Net-(U2-PMODE)*%
X182024599Y-92500001D03*
D12*
%TO.P,U2,17,PAD*%
%TO.N,GND_DC_MOTOR*%
X179200000Y-94775000D03*
D13*
%TO.P,U2,18,GND*%
X177824600Y-96675001D03*
%TO.P,U2,19,GND*%
X177824600Y-92874999D03*
%TO.P,U2,20,GND*%
X177824600Y-93824999D03*
%TO.P,U2,21,GND*%
X177824600Y-95725001D03*
%TO.P,U2,22,GND*%
X177824600Y-94775000D03*
%TO.P,U2,23,GND*%
X180524600Y-94775000D03*
%TO.P,U2,24,GND*%
X180524600Y-95725001D03*
%TO.P,U2,25,GND*%
X180524600Y-93824999D03*
%TO.P,U2,26,GND*%
X180524600Y-92874999D03*
%TO.P,U2,27,GND*%
X180524600Y-96675001D03*
%TO.P,U2,28,GND*%
X179174600Y-96675001D03*
%TO.P,U2,29,GND*%
X179174600Y-92874999D03*
%TO.P,U2,30,GND*%
X179174600Y-93824999D03*
%TO.P,U2,31,GND*%
X179174600Y-95725001D03*
%TO.P,U2,32,GND*%
X179174600Y-94775000D03*
%TD*%
D11*
%TO.P,U3,1,EN_IN1*%
%TO.N,/EN_IN3*%
X176374601Y-78075001D03*
%TO.P,U3,2,PH_IN2*%
%TO.N,/PH_IN3*%
X176374601Y-78725002D03*
%TO.P,U3,3,SLEEP_N*%
%TO.N,Net-(U3-SLEEP_N)*%
X176374601Y-79375001D03*
%TO.P,U3,4,FAULT_N*%
%TO.N,unconnected-(U3-FAULT_N-Pad4)*%
X176374601Y-80025002D03*
%TO.P,U3,5,VREF*%
%TO.N,3.3V_PI*%
X176374601Y-80675001D03*
%TO.P,U3,6,IPROPI*%
%TO.N,Net-(U3-IPROPI)*%
X176374601Y-81325002D03*
%TO.P,U3,7,IMODE*%
%TO.N,Net-(U3-IMODE)*%
X176374601Y-81975001D03*
%TO.P,U3,8,OUT1*%
%TO.N,Net-(J4-Pin_1)*%
X176374601Y-82625002D03*
%TO.P,U3,9,PGND*%
%TO.N,GND_DC_MOTOR*%
X182074599Y-82625002D03*
%TO.P,U3,10,OUT2*%
%TO.N,Net-(J4-Pin_2)*%
X182074599Y-81975001D03*
%TO.P,U3,11,VM*%
%TO.N,/VM*%
X182074599Y-81325002D03*
%TO.P,U3,12,VCP*%
%TO.N,Net-(U3-VCP)*%
X182074599Y-80675001D03*
%TO.P,U3,13,CPH*%
%TO.N,Net-(U3-CPH)*%
X182074599Y-80025002D03*
%TO.P,U3,14,CPL*%
%TO.N,Net-(U3-CPL)*%
X182074599Y-79375001D03*
%TO.P,U3,15,GND*%
%TO.N,GND_DC_MOTOR*%
X182074599Y-78725002D03*
%TO.P,U3,16,PMODE*%
%TO.N,Net-(U3-PMODE)*%
X182074599Y-78075001D03*
D12*
%TO.P,U3,17,PAD*%
%TO.N,GND_DC_MOTOR*%
X179250000Y-80350000D03*
D13*
%TO.P,U3,18,GND*%
X177874600Y-82250001D03*
%TO.P,U3,19,GND*%
X177874600Y-78449999D03*
%TO.P,U3,20,GND*%
X177874600Y-79399999D03*
%TO.P,U3,21,GND*%
X177874600Y-81300001D03*
%TO.P,U3,22,GND*%
X177874600Y-80350000D03*
%TO.P,U3,23,GND*%
X180574600Y-80350000D03*
%TO.P,U3,24,GND*%
X180574600Y-81300001D03*
%TO.P,U3,25,GND*%
X180574600Y-79399999D03*
%TO.P,U3,26,GND*%
X180574600Y-78449999D03*
%TO.P,U3,27,GND*%
X180574600Y-82250001D03*
%TO.P,U3,28,GND*%
X179224600Y-82250001D03*
%TO.P,U3,29,GND*%
X179224600Y-78449999D03*
%TO.P,U3,30,GND*%
X179224600Y-79399999D03*
%TO.P,U3,31,GND*%
X179224600Y-81300001D03*
%TO.P,U3,32,GND*%
X179224600Y-80350000D03*
%TD*%
D14*
%TO.P,U9,1,OUT*%
%TO.N,/Power Electronics/3.3V_DIRECT*%
X151000000Y-38575000D03*
%TO.P,U9,2,FB/DNC*%
%TO.N,unconnected-(U9-FB{slash}DNC-Pad2)*%
X151000000Y-39225000D03*
%TO.P,U9,3,PG*%
%TO.N,unconnected-(U9-PG-Pad3)*%
X151000000Y-39875000D03*
%TO.P,U9,4,GND*%
%TO.N,GND_LDO*%
X151000000Y-40525000D03*
%TO.P,U9,5,EN*%
%TO.N,/Power Electronics/12V BAT*%
X155225000Y-40525000D03*
%TO.P,U9,6*%
%TO.N,N/C*%
X155225000Y-39875000D03*
%TO.P,U9,7,DELAY*%
%TO.N,unconnected-(U9-DELAY-Pad7)*%
X155225000Y-39225000D03*
%TO.P,U9,8,IN*%
%TO.N,/Power Electronics/12V BAT*%
X155225000Y-38575000D03*
D15*
%TO.P,U9,9,POWER-PAD*%
%TO.N,GND_LDO*%
X153112500Y-39550000D03*
%TD*%
D16*
%TO.P,R42,1*%
%TO.N,/Power Electronics/12V BAT*%
X125237500Y-72875000D03*
%TO.P,R42,2*%
%TO.N,/Power Electronics/BAT*%
X127062500Y-72875000D03*
%TD*%
D17*
%TO.P,C32,1*%
%TO.N,/Power Electronics/3.3V_DIRECT*%
X131425000Y-79450000D03*
%TO.P,C32,2*%
%TO.N,GND_BATTERY*%
X132975000Y-79450000D03*
%TD*%
D18*
%TO.P,C27,1*%
%TO.N,Net-(U4-CPH)*%
X183250000Y-65680000D03*
%TO.P,C27,2*%
%TO.N,Net-(U4-CPL)*%
X183250000Y-64720000D03*
%TD*%
D19*
%TO.P,R3,1*%
%TO.N,/EN_IN2*%
X171850000Y-91325000D03*
%TO.P,R3,2*%
%TO.N,GND_DC_MOTOR*%
X170025000Y-91325000D03*
%TD*%
D20*
%TO.P,D2,1,K*%
%TO.N,Net-(D2-K)*%
X101500000Y-105175000D03*
%TO.P,D2,2,A*%
%TO.N,12V_CHG*%
X97200000Y-105175000D03*
%TD*%
D21*
%TO.P,R39,1*%
%TO.N,Net-(U8-UV)*%
X91900000Y-75812500D03*
%TO.P,R39,2*%
%TO.N,GND_LVC*%
X91900000Y-77637500D03*
%TD*%
D16*
%TO.P,R47,1*%
%TO.N,Net-(J11-Pin_2)*%
X115837500Y-84575000D03*
%TO.P,R47,2*%
%TO.N,Net-(Q3-G)*%
X117662500Y-84575000D03*
%TD*%
D22*
%TO.P,J9,1,Pin_1*%
%TO.N,GND_LVC*%
X95550000Y-93675000D03*
D23*
%TO.P,J9,2,Pin_2*%
%TO.N,Net-(J9-Pin_2)*%
X95550000Y-98675000D03*
%TD*%
D24*
%TO.P,J13,1,Pin_1*%
%TO.N,GND_SRV_MOTOR*%
X136025000Y-86025000D03*
D23*
%TO.P,J13,2,Pin_2*%
%TO.N,12V_SRV_MOTOR*%
X131025000Y-86025000D03*
%TD*%
D16*
%TO.P,R48,1*%
%TO.N,Net-(R48-Pad1)*%
X89775000Y-100825000D03*
%TO.P,R48,2*%
%TO.N,Net-(J11-Pin_2)*%
X91600000Y-100825000D03*
%TD*%
%TO.P,R13,1*%
%TO.N,GND_DC_MOTOR*%
X171890215Y-113957607D03*
%TO.P,R13,2*%
%TO.N,Net-(U1-IMODE)*%
X173715215Y-113957607D03*
%TD*%
D25*
%TO.P,C5,1*%
%TO.N,/VM*%
X159900000Y-111900000D03*
%TO.P,C5,2*%
%TO.N,GND_DC_MOTOR*%
X159900000Y-113450000D03*
%TD*%
D26*
%TO.P,C43,1*%
%TO.N,/Power Electronics/BAT*%
X126962500Y-76475000D03*
%TO.P,C43,2*%
%TO.N,GND_BATTERY*%
X125412500Y-76475000D03*
%TD*%
D27*
%TO.P,C38,1*%
%TO.N,12V_LVC*%
X101300000Y-60650000D03*
%TO.P,C38,2*%
%TO.N,GND_LVC*%
X101300000Y-57700000D03*
%TD*%
D24*
%TO.P,J18,1,Pin_1*%
%TO.N,GND_BATTERY*%
X138000000Y-39500000D03*
D23*
%TO.P,J18,2,Pin_2*%
%TO.N,12V_BATTERY_DIRECT*%
X133000000Y-39500000D03*
%TD*%
D28*
%TO.P,C4,1*%
%TO.N,/VM*%
X155625000Y-110125000D03*
%TO.P,C4,2*%
%TO.N,GND_DC_MOTOR*%
X155625000Y-115525000D03*
%TD*%
D16*
%TO.P,R12,1*%
%TO.N,GND_DC_MOTOR*%
X171877715Y-112032607D03*
%TO.P,R12,2*%
%TO.N,Net-(U1-IPROPI)*%
X173702715Y-112032607D03*
%TD*%
D29*
%TO.P,NT6,1,1*%
%TO.N,GND_DC_MOTOR*%
X154750000Y-62825000D03*
%TO.P,NT6,2,2*%
%TO.N,GND_SYS*%
X150750000Y-62825000D03*
%TD*%
D16*
%TO.P,R33,1*%
%TO.N,Net-(U7-CH1)*%
X116787500Y-96025000D03*
%TO.P,R33,2*%
%TO.N,Net-(J7-Pin_1)*%
X118612500Y-96025000D03*
%TD*%
D30*
%TO.P,C29,1*%
%TO.N,/Power Electronics/12V BAT*%
X160000000Y-38987500D03*
%TO.P,C29,2*%
%TO.N,GND_LDO*%
X160000000Y-40887500D03*
%TD*%
D11*
%TO.P,U1,1,EN_IN1*%
%TO.N,/EN_IN1*%
X176390216Y-107157607D03*
%TO.P,U1,2,PH_IN2*%
%TO.N,/PH_IN1*%
X176390216Y-107807608D03*
%TO.P,U1,3,SLEEP_N*%
%TO.N,Net-(U1-SLEEP_N)*%
X176390216Y-108457607D03*
%TO.P,U1,4,FAULT_N*%
%TO.N,unconnected-(U1-FAULT_N-Pad4)*%
X176390216Y-109107608D03*
%TO.P,U1,5,VREF*%
%TO.N,3.3V_PI*%
X176390216Y-109757607D03*
%TO.P,U1,6,IPROPI*%
%TO.N,Net-(U1-IPROPI)*%
X176390216Y-110407608D03*
%TO.P,U1,7,IMODE*%
%TO.N,Net-(U1-IMODE)*%
X176390216Y-111057607D03*
%TO.P,U1,8,OUT1*%
%TO.N,Net-(J2-Pin_1)*%
X176390216Y-111707608D03*
%TO.P,U1,9,PGND*%
%TO.N,GND_DC_MOTOR*%
X182090214Y-111707608D03*
%TO.P,U1,10,OUT2*%
%TO.N,Net-(J2-Pin_2)*%
X182090214Y-111057607D03*
%TO.P,U1,11,VM*%
%TO.N,/VM*%
X182090214Y-110407608D03*
%TO.P,U1,12,VCP*%
%TO.N,Net-(U1-VCP)*%
X182090214Y-109757607D03*
%TO.P,U1,13,CPH*%
%TO.N,Net-(U1-CPH)*%
X182090214Y-109107608D03*
%TO.P,U1,14,CPL*%
%TO.N,Net-(U1-CPL)*%
X182090214Y-108457607D03*
%TO.P,U1,15,GND*%
%TO.N,GND_DC_MOTOR*%
X182090214Y-107807608D03*
%TO.P,U1,16,PMODE*%
%TO.N,Net-(U1-PMODE)*%
X182090214Y-107157607D03*
D12*
%TO.P,U1,17,PAD*%
%TO.N,GND_DC_MOTOR*%
X179265615Y-109432606D03*
D13*
%TO.P,U1,18,GND*%
X177890215Y-111332607D03*
%TO.P,U1,19,GND*%
X177890215Y-107532605D03*
%TO.P,U1,20,GND*%
X177890215Y-108482605D03*
%TO.P,U1,21,GND*%
X177890215Y-110382607D03*
%TO.P,U1,22,GND*%
X177890215Y-109432606D03*
%TO.P,U1,23,GND*%
X180590215Y-109432606D03*
%TO.P,U1,24,GND*%
X180590215Y-110382607D03*
%TO.P,U1,25,GND*%
X180590215Y-108482605D03*
%TO.P,U1,26,GND*%
X180590215Y-107532605D03*
%TO.P,U1,27,GND*%
X180590215Y-111332607D03*
%TO.P,U1,28,GND*%
X179240215Y-111332607D03*
%TO.P,U1,29,GND*%
X179240215Y-107532605D03*
%TO.P,U1,30,GND*%
X179240215Y-108482605D03*
%TO.P,U1,31,GND*%
X179240215Y-110382607D03*
%TO.P,U1,32,GND*%
X179240215Y-109432606D03*
%TD*%
D31*
%TO.P,J19,1,Pin_1*%
%TO.N,GND_SYS*%
X108500000Y-40325000D03*
%TO.P,J19,2,Pin_2*%
%TO.N,3.3V_PI*%
X109500000Y-40325000D03*
%TO.P,J19,3,Pin_3*%
%TO.N,SDAB*%
X110500000Y-40325000D03*
%TO.P,J19,4,Pin_4*%
%TO.N,SCLB*%
X111500000Y-40325000D03*
D32*
%TO.P,J19,MP*%
%TO.N,N/C*%
X107200000Y-37800000D03*
X112800000Y-37800000D03*
%TD*%
D33*
%TO.P,J16,1,Pin_1*%
%TO.N,GND_CHG*%
X92550000Y-110125000D03*
D23*
%TO.P,J16,2,Pin_2*%
%TO.N,12V_CHG*%
X92550000Y-105125000D03*
%TD*%
D34*
%TO.P,J1,1,Pin_1*%
%TO.N,3.3V_PI*%
X168950000Y-123050000D03*
D35*
%TO.P,J1,2,Pin_2*%
%TO.N,unconnected-(J1-Pin_2-Pad2)*%
X168950000Y-125590000D03*
%TO.P,J1,3,Pin_3*%
%TO.N,SDAB*%
X166410000Y-123050000D03*
%TO.P,J1,4,Pin_4*%
%TO.N,unconnected-(J1-Pin_4-Pad4)*%
X166410000Y-125590000D03*
%TO.P,J1,5,Pin_5*%
%TO.N,SCLB*%
X163870000Y-123050000D03*
%TO.P,J1,6,Pin_6*%
%TO.N,GND_PI*%
X163870000Y-125590000D03*
%TO.P,J1,7,Pin_7*%
%TO.N,unconnected-(J1-Pin_7-Pad7)*%
X161330000Y-123050000D03*
%TO.P,J1,8,Pin_8*%
%TO.N,unconnected-(J1-Pin_8-Pad8)*%
X161330000Y-125590000D03*
%TO.P,J1,9,Pin_9*%
%TO.N,unconnected-(J1-Pin_9-Pad9)*%
X158790000Y-123050000D03*
%TO.P,J1,10,Pin_10*%
%TO.N,unconnected-(J1-Pin_10-Pad10)*%
X158790000Y-125590000D03*
%TO.P,J1,11,Pin_11*%
%TO.N,/EN_IN1*%
X156250000Y-123050000D03*
%TO.P,J1,12,Pin_12*%
%TO.N,unconnected-(J1-Pin_12-Pad12)*%
X156250000Y-125590000D03*
%TO.P,J1,13,Pin_13*%
%TO.N,/PH_IN1*%
X153710000Y-123050000D03*
%TO.P,J1,14,Pin_14*%
%TO.N,unconnected-(J1-Pin_14-Pad14)*%
X153710000Y-125590000D03*
%TO.P,J1,15,Pin_15*%
%TO.N,/PH_IN2*%
X151170000Y-123050000D03*
%TO.P,J1,16,Pin_16*%
%TO.N,/EN_IN2*%
X151170000Y-125590000D03*
%TO.P,J1,17,Pin_17*%
%TO.N,unconnected-(J1-Pin_17-Pad17)*%
X148630000Y-123050000D03*
%TO.P,J1,18,Pin_18*%
%TO.N,/EN_IN3*%
X148630000Y-125590000D03*
%TO.P,J1,19,Pin_19*%
%TO.N,Din*%
X146090000Y-123050000D03*
%TO.P,J1,20,Pin_20*%
%TO.N,unconnected-(J1-Pin_20-Pad20)*%
X146090000Y-125590000D03*
%TO.P,J1,21,Pin_21*%
%TO.N,Dout*%
X143550000Y-123050000D03*
%TO.P,J1,22,Pin_22*%
%TO.N,/PH_IN3*%
X143550000Y-125590000D03*
%TO.P,J1,23,Pin_23*%
%TO.N,CLK*%
X141010000Y-123050000D03*
%TO.P,J1,24,Pin_24*%
%TO.N,CS{slash}SHDN*%
X141010000Y-125590000D03*
%TO.P,J1,25,Pin_25*%
%TO.N,unconnected-(J1-Pin_25-Pad25)*%
X138470000Y-123050000D03*
%TO.P,J1,26,Pin_26*%
%TO.N,unconnected-(J1-Pin_26-Pad26)*%
X138470000Y-125590000D03*
%TO.P,J1,27,Pin_27*%
%TO.N,unconnected-(J1-Pin_27-Pad27)*%
X135930000Y-123050000D03*
%TO.P,J1,28,Pin_28*%
%TO.N,unconnected-(J1-Pin_28-Pad28)*%
X135930000Y-125590000D03*
%TO.P,J1,29,Pin_29*%
%TO.N,/EN_IN5*%
X133390000Y-123050000D03*
%TO.P,J1,30,Pin_30*%
%TO.N,unconnected-(J1-Pin_30-Pad30)*%
X133390000Y-125590000D03*
%TO.P,J1,31,Pin_31*%
%TO.N,/PH_IN5*%
X130850000Y-123050000D03*
%TO.P,J1,32,Pin_32*%
%TO.N,unconnected-(J1-Pin_32-Pad32)*%
X130850000Y-125590000D03*
%TO.P,J1,33,Pin_33*%
%TO.N,unconnected-(J1-Pin_33-Pad33)*%
X128310000Y-123050000D03*
%TO.P,J1,34,Pin_34*%
%TO.N,unconnected-(J1-Pin_34-Pad34)*%
X128310000Y-125590000D03*
%TO.P,J1,35,Pin_35*%
%TO.N,unconnected-(J1-Pin_35-Pad35)*%
X125770000Y-123050000D03*
%TO.P,J1,36,Pin_36*%
%TO.N,/PH_IN4*%
X125770000Y-125590000D03*
%TO.P,J1,37,Pin_37*%
%TO.N,/EN_IN4*%
X123230000Y-123050000D03*
%TO.P,J1,38,Pin_38*%
%TO.N,unconnected-(J1-Pin_38-Pad38)*%
X123230000Y-125590000D03*
%TO.P,J1,39,Pin_39*%
%TO.N,unconnected-(J1-Pin_39-Pad39)*%
X120690000Y-123050000D03*
%TO.P,J1,40,Pin_40*%
%TO.N,unconnected-(J1-Pin_40-Pad40)*%
X120690000Y-125590000D03*
%TD*%
D18*
%TO.P,C28,1*%
%TO.N,Net-(U5-CPH)*%
X183250000Y-51430000D03*
%TO.P,C28,2*%
%TO.N,Net-(U5-CPL)*%
X183250000Y-50470000D03*
%TD*%
D16*
%TO.P,R1,1*%
%TO.N,GND_DC_MOTOR*%
X169040215Y-107907607D03*
%TO.P,R1,2*%
%TO.N,/PH_IN1*%
X170865215Y-107907607D03*
%TD*%
D29*
%TO.P,NT5,1,1*%
%TO.N,GND_SRV_MOTOR*%
X147725000Y-67100000D03*
%TO.P,NT5,2,2*%
%TO.N,GND_SYS*%
X147725000Y-63100000D03*
%TD*%
D16*
%TO.P,R8,1*%
%TO.N,GND_DC_MOTOR*%
X169750000Y-63800000D03*
%TO.P,R8,2*%
%TO.N,/PH_IN4*%
X171575000Y-63800000D03*
%TD*%
%TO.P,R6,1*%
%TO.N,GND_DC_MOTOR*%
X169925000Y-78925000D03*
%TO.P,R6,2*%
%TO.N,/PH_IN3*%
X171750000Y-78925000D03*
%TD*%
%TO.P,R45,1*%
%TO.N,Net-(Q1-S)*%
X116087500Y-77675000D03*
%TO.P,R45,2*%
%TO.N,GND_LVC*%
X117912500Y-77675000D03*
%TD*%
D36*
%TO.P,J7,1,Pin_1*%
%TO.N,Net-(J7-Pin_1)*%
X123362500Y-94775000D03*
D37*
%TO.P,J7,2,Pin_2*%
%TO.N,3.3V_PI*%
X123362500Y-97275000D03*
%TO.P,J7,3,Pin_3*%
%TO.N,GND_LVC*%
X123362500Y-99775000D03*
%TD*%
D38*
%TO.P,C13,1*%
%TO.N,/VM*%
X159562500Y-64275000D03*
%TO.P,C13,2*%
%TO.N,GND_DC_MOTOR*%
X164962500Y-64275000D03*
%TD*%
%TO.P,C14,1*%
%TO.N,/VM*%
X159662500Y-49800000D03*
%TO.P,C14,2*%
%TO.N,GND_DC_MOTOR*%
X165062500Y-49800000D03*
%TD*%
D19*
%TO.P,R37,1*%
%TO.N,/Power Electronics/REG25*%
X139587500Y-72650000D03*
%TO.P,R37,2*%
%TO.N,/Power Electronics/TS*%
X137762500Y-72650000D03*
%TD*%
%TO.P,R31,1*%
%TO.N,3.3V_PI*%
X123000000Y-44500000D03*
%TO.P,R31,2*%
%TO.N,GND_BATTERY*%
X121175000Y-44500000D03*
%TD*%
D39*
%TO.P,R36,1*%
%TO.N,GND_BATTERY*%
X147775000Y-53000000D03*
%TO.P,R36,2*%
%TO.N,GND_SYS*%
X147775000Y-58925000D03*
%TD*%
D40*
%TO.P,C40,1*%
%TO.N,12V_LVC*%
X99400000Y-59950000D03*
%TO.P,C40,2*%
%TO.N,GND_LVC*%
X99400000Y-58400000D03*
%TD*%
D41*
%TO.P,R23,1*%
%TO.N,3.3V_PI*%
X173325000Y-67200000D03*
%TO.P,R23,2*%
%TO.N,Net-(U4-SLEEP_N)*%
X173325000Y-65375000D03*
%TD*%
%TO.P,R11,1*%
%TO.N,3.3V_PI*%
X173490215Y-110245107D03*
%TO.P,R11,2*%
%TO.N,Net-(U1-SLEEP_N)*%
X173490215Y-108420107D03*
%TD*%
D40*
%TO.P,C56,1*%
%TO.N,GND_BATTERY*%
X115000000Y-40000000D03*
%TO.P,C56,2*%
%TO.N,/Power Electronics/3.3V_DIRECT*%
X115000000Y-38450000D03*
%TD*%
D42*
%TO.P,TP2,1,1*%
%TO.N,Net-(R48-Pad1)*%
X86000000Y-103425000D03*
%TD*%
D43*
%TO.P,Q3,1,G*%
%TO.N,Net-(Q3-G)*%
X117710000Y-82025000D03*
D44*
%TO.P,Q3,2,D*%
%TO.N,Net-(J10-Pin_1)*%
X120250000Y-82025000D03*
%TO.P,Q3,3,S*%
%TO.N,GND_LVC*%
X122790000Y-82025000D03*
%TD*%
D41*
%TO.P,R15,1*%
%TO.N,3.3V_PI*%
X173600000Y-95925000D03*
%TO.P,R15,2*%
%TO.N,Net-(U2-SLEEP_N)*%
X173600000Y-94100000D03*
%TD*%
D16*
%TO.P,R26,1*%
%TO.N,3.3V_PI*%
X180612500Y-62150000D03*
%TO.P,R26,2*%
%TO.N,Net-(U4-PMODE)*%
X182437500Y-62150000D03*
%TD*%
%TO.P,R18,1*%
%TO.N,3.3V_PI*%
X180250000Y-91025000D03*
%TO.P,R18,2*%
%TO.N,Net-(U2-PMODE)*%
X182075000Y-91025000D03*
%TD*%
D29*
%TO.P,NT8,1,1*%
%TO.N,GND_PI*%
X136200000Y-62775000D03*
%TO.P,NT8,2,2*%
%TO.N,GND_SYS*%
X140200000Y-62775000D03*
%TD*%
D45*
%TO.P,C33,1*%
%TO.N,12V_LVC*%
X111500000Y-61625000D03*
D46*
%TO.P,C33,2*%
%TO.N,GND_LVC*%
X111500000Y-56625000D03*
%TD*%
D17*
%TO.P,C57,1*%
%TO.N,GND_BATTERY*%
X121225000Y-46500000D03*
%TO.P,C57,2*%
%TO.N,3.3V_PI*%
X122775000Y-46500000D03*
%TD*%
D40*
%TO.P,C19,1*%
%TO.N,/VM*%
X184515215Y-111057607D03*
%TO.P,C19,2*%
%TO.N,Net-(U1-VCP)*%
X184515215Y-109507607D03*
%TD*%
D16*
%TO.P,R20,1*%
%TO.N,GND_DC_MOTOR*%
X171850000Y-83300000D03*
%TO.P,R20,2*%
%TO.N,Net-(U3-IPROPI)*%
X173675000Y-83300000D03*
%TD*%
D40*
%TO.P,C23,1*%
%TO.N,/VM*%
X184950000Y-53300000D03*
%TO.P,C23,2*%
%TO.N,Net-(U5-VCP)*%
X184950000Y-51750000D03*
%TD*%
%TO.P,C54,1*%
%TO.N,GND_LDO*%
X157975000Y-40775000D03*
%TO.P,C54,2*%
%TO.N,/Power Electronics/12V BAT*%
X157975000Y-39225000D03*
%TD*%
%TO.P,C41,1*%
%TO.N,GND_LVC*%
X93600000Y-77475000D03*
%TO.P,C41,2*%
%TO.N,Net-(U8-UV)*%
X93600000Y-75925000D03*
%TD*%
%TO.P,C55,1*%
%TO.N,GND_LDO*%
X146237500Y-40050000D03*
%TO.P,C55,2*%
%TO.N,/Power Electronics/3.3V_DIRECT*%
X146237500Y-38500000D03*
%TD*%
D42*
%TO.P,TP3,1,1*%
%TO.N,Net-(R49-Pad1)*%
X121725000Y-110025000D03*
%TD*%
%TO.P,TP6,1,1*%
%TO.N,GND_CHG*%
X111300000Y-114225000D03*
%TD*%
D16*
%TO.P,R25,1*%
%TO.N,GND_DC_MOTOR*%
X171675000Y-70825000D03*
%TO.P,R25,2*%
%TO.N,Net-(U4-IMODE)*%
X173500000Y-70825000D03*
%TD*%
D33*
%TO.P,J5,1,Pin_1*%
%TO.N,Net-(J5-Pin_1)*%
X188875000Y-68500000D03*
D23*
%TO.P,J5,2,Pin_2*%
%TO.N,Net-(J5-Pin_2)*%
X188875000Y-63500000D03*
%TD*%
D16*
%TO.P,R21,1*%
%TO.N,GND_DC_MOTOR*%
X171850000Y-85200000D03*
%TO.P,R21,2*%
%TO.N,Net-(U3-IMODE)*%
X173675000Y-85200000D03*
%TD*%
D19*
%TO.P,R9,1*%
%TO.N,/EN_IN5*%
X171350000Y-47250000D03*
%TO.P,R9,2*%
%TO.N,GND_DC_MOTOR*%
X169525000Y-47250000D03*
%TD*%
D33*
%TO.P,J6,1,Pin_1*%
%TO.N,Net-(J6-Pin_1)*%
X188875000Y-56900000D03*
D23*
%TO.P,J6,2,Pin_2*%
%TO.N,Net-(J6-Pin_2)*%
X188875000Y-51900000D03*
%TD*%
D17*
%TO.P,C10,1*%
%TO.N,GND_DC_MOTOR*%
X177100000Y-47250000D03*
%TO.P,C10,2*%
%TO.N,3.3V_PI*%
X178650000Y-47250000D03*
%TD*%
D47*
%TO.P,R41,1*%
%TO.N,Net-(U8-GATE)*%
X101100000Y-73575000D03*
%TO.P,R41,2*%
%TO.N,Net-(Q1-G)*%
X101100000Y-75225000D03*
%TD*%
D17*
%TO.P,C7,1*%
%TO.N,GND_DC_MOTOR*%
X176275000Y-89975000D03*
%TO.P,C7,2*%
%TO.N,3.3V_PI*%
X177825000Y-89975000D03*
%TD*%
D40*
%TO.P,C20,1*%
%TO.N,/VM*%
X184700000Y-96150000D03*
%TO.P,C20,2*%
%TO.N,Net-(U2-VCP)*%
X184700000Y-94600000D03*
%TD*%
D16*
%TO.P,R49,1*%
%TO.N,Net-(R49-Pad1)*%
X121812500Y-105125000D03*
%TO.P,R49,2*%
%TO.N,12V_SRV_MOTOR*%
X123637500Y-105125000D03*
%TD*%
D45*
%TO.P,C36,1*%
%TO.N,12V_LVC*%
X125000000Y-61640216D03*
D46*
%TO.P,C36,2*%
%TO.N,GND_LVC*%
X125000000Y-56640216D03*
%TD*%
D16*
%TO.P,R22,1*%
%TO.N,3.3V_PI*%
X180262500Y-76675000D03*
%TO.P,R22,2*%
%TO.N,Net-(U3-PMODE)*%
X182087500Y-76675000D03*
%TD*%
D48*
%TO.P,U8,1,GND*%
%TO.N,GND_LVC*%
X97760000Y-75825000D03*
%TO.P,U8,2,OV*%
X97760000Y-76325000D03*
%TO.P,U8,3,UV*%
%TO.N,Net-(U8-UV)*%
X97760000Y-76825000D03*
%TO.P,U8,4,Vin*%
%TO.N,12V_LVC*%
X97760000Y-77325000D03*
%TO.P,U8,5,GATE*%
%TO.N,Net-(U8-GATE)*%
X99640000Y-77325000D03*
%TO.P,U8,6,Vout*%
%TO.N,Net-(J11-Pin_2)*%
X99640000Y-76825000D03*
%TO.P,U8,7,~{FAULT}*%
%TO.N,unconnected-(U8-~{FAULT}-Pad7)*%
X99640000Y-76325000D03*
%TO.P,U8,8,~{SHDN}*%
%TO.N,Net-(U8-~{SHDN})*%
X99640000Y-75825000D03*
D49*
%TO.P,U8,9,GND*%
%TO.N,GND_LVC*%
X98700000Y-76575000D03*
%TD*%
D33*
%TO.P,J4,1,Pin_1*%
%TO.N,Net-(J4-Pin_1)*%
X189075000Y-81100000D03*
D23*
%TO.P,J4,2,Pin_2*%
%TO.N,Net-(J4-Pin_2)*%
X189075000Y-76100000D03*
%TD*%
D50*
%TO.P,FuelGaugeSwitch1,*%
%TO.N,*%
X172150000Y-39610000D03*
X172150000Y-37400000D03*
X164850000Y-39610000D03*
X164850000Y-37400000D03*
D51*
%TO.P,FuelGaugeSwitch1,1,A*%
%TO.N,12V_BATTERY_DIRECT*%
X170750000Y-40260000D03*
%TO.P,FuelGaugeSwitch1,2,B*%
%TO.N,/Power Electronics/12V BAT*%
X167750000Y-40260000D03*
%TO.P,FuelGaugeSwitch1,3*%
%TO.N,N/C*%
X166250000Y-40260000D03*
%TD*%
D42*
%TO.P,TP1,1,1*%
%TO.N,GND_LVC*%
X86050000Y-98900000D03*
%TD*%
D52*
%TO.P,TH1,1*%
%TO.N,/Power Electronics/TS*%
X179500000Y-39500000D03*
D53*
%TO.P,TH1,2*%
%TO.N,GND_BATTERY*%
X177000000Y-39500000D03*
%TD*%
D25*
%TO.P,C3,1*%
%TO.N,/VM*%
X146800000Y-111900000D03*
%TO.P,C3,2*%
%TO.N,GND_DC_MOTOR*%
X146800000Y-113450000D03*
%TD*%
D43*
%TO.P,Q1,1,G*%
%TO.N,Net-(Q1-G)*%
X109510000Y-75225000D03*
D44*
%TO.P,Q1,2,D*%
%TO.N,12V_LVC*%
X112050000Y-75225000D03*
%TO.P,Q1,3,S*%
%TO.N,Net-(Q1-S)*%
X114590000Y-75225000D03*
%TD*%
D29*
%TO.P,NT2,1,1*%
%TO.N,GND_SRV_MOTOR*%
X132350000Y-116500000D03*
%TO.P,NT2,2,2*%
%TO.N,GND_DC_MOTOR*%
X136350000Y-116500000D03*
%TD*%
D16*
%TO.P,R40,1*%
%TO.N,12V_LVC*%
X97387500Y-73825000D03*
%TO.P,R40,2*%
%TO.N,Net-(U8-~{SHDN})*%
X99212500Y-73825000D03*
%TD*%
D43*
%TO.P,Q2,1,G*%
%TO.N,Net-(Q2-G)*%
X109520000Y-70325000D03*
D44*
%TO.P,Q2,2,D*%
%TO.N,Net-(J11-Pin_2)*%
X112060000Y-70325000D03*
%TO.P,Q2,3,S*%
%TO.N,Net-(Q1-S)*%
X114600000Y-70325000D03*
%TD*%
D54*
%TO.P,J14,1,Pin_1*%
%TO.N,GND_SRV_MOTOR*%
X127525000Y-111400000D03*
D23*
%TO.P,J14,2,Pin_2*%
%TO.N,12V_SRV_MOTOR*%
X132525000Y-111400000D03*
%TD*%
D55*
%TO.P,C45,1*%
%TO.N,GND_LVC*%
X100150000Y-85257323D03*
%TO.P,C45,2*%
%TO.N,Net-(J11-Pin_2)*%
X100150000Y-83357323D03*
%TD*%
D19*
%TO.P,R7,1*%
%TO.N,/EN_IN4*%
X171575000Y-61800000D03*
%TO.P,R7,2*%
%TO.N,GND_DC_MOTOR*%
X169750000Y-61800000D03*
%TD*%
D56*
%TO.P,C48,1*%
%TO.N,GND_SRV_MOTOR*%
X136515215Y-92632607D03*
%TO.P,C48,2*%
%TO.N,12V_SRV_MOTOR*%
X133565215Y-92632607D03*
%TD*%
D30*
%TO.P,C42,1*%
%TO.N,Net-(U8-UV)*%
X95350000Y-75875000D03*
%TO.P,C42,2*%
%TO.N,GND_LVC*%
X95350000Y-77775000D03*
%TD*%
D33*
%TO.P,J11,1,Pin_1*%
%TO.N,GND_LVC*%
X104320000Y-87325000D03*
D23*
%TO.P,J11,2,Pin_2*%
%TO.N,Net-(J11-Pin_2)*%
X104320000Y-82325000D03*
%TD*%
D41*
%TO.P,R19,1*%
%TO.N,3.3V_PI*%
X173500000Y-81550000D03*
%TO.P,R19,2*%
%TO.N,Net-(U3-SLEEP_N)*%
X173500000Y-79725000D03*
%TD*%
D19*
%TO.P,R2,1*%
%TO.N,/EN_IN1*%
X170865215Y-105982607D03*
%TO.P,R2,2*%
%TO.N,GND_DC_MOTOR*%
X169040215Y-105982607D03*
%TD*%
D41*
%TO.P,R35,1*%
%TO.N,/Power Electronics/SCLA*%
X136212500Y-70300000D03*
%TO.P,R35,2*%
%TO.N,/Power Electronics/3.3V_DIRECT*%
X136212500Y-68475000D03*
%TD*%
D16*
%TO.P,R4,1*%
%TO.N,GND_DC_MOTOR*%
X170025000Y-93225000D03*
%TO.P,R4,2*%
%TO.N,/PH_IN2*%
X171850000Y-93225000D03*
%TD*%
D29*
%TO.P,NT1,1,1*%
%TO.N,12V_SRV_MOTOR*%
X134700000Y-111500000D03*
%TO.P,NT1,2,2*%
%TO.N,/VM*%
X138700000Y-111500000D03*
%TD*%
D19*
%TO.P,R50,1*%
%TO.N,Net-(R50-Pad1)*%
X111912500Y-105325000D03*
%TO.P,R50,2*%
%TO.N,Net-(D2-K)*%
X110087500Y-105325000D03*
%TD*%
D16*
%TO.P,R16,1*%
%TO.N,GND_DC_MOTOR*%
X171975000Y-97700000D03*
%TO.P,R16,2*%
%TO.N,Net-(U2-IPROPI)*%
X173800000Y-97700000D03*
%TD*%
%TO.P,R17,1*%
%TO.N,GND_DC_MOTOR*%
X171975000Y-99650000D03*
%TO.P,R17,2*%
%TO.N,Net-(U2-IMODE)*%
X173800000Y-99650000D03*
%TD*%
D57*
%TO.P,U7,1,CH0*%
%TO.N,unconnected-(U7-CH0-Pad1)*%
X111112500Y-100385000D03*
%TO.P,U7,2,CH1*%
%TO.N,Net-(U7-CH1)*%
X111112500Y-99115000D03*
%TO.P,U7,3,CH2*%
%TO.N,unconnected-(U7-CH2-Pad3)*%
X111112500Y-97845000D03*
%TO.P,U7,4,CH3*%
%TO.N,unconnected-(U7-CH3-Pad4)*%
X111112500Y-96575000D03*
%TO.P,U7,5,CH4*%
%TO.N,unconnected-(U7-CH4-Pad5)*%
X111112500Y-95305000D03*
%TO.P,U7,6,CH5*%
%TO.N,unconnected-(U7-CH5-Pad6)*%
X111112500Y-94035000D03*
%TO.P,U7,7,CH6*%
%TO.N,unconnected-(U7-CH6-Pad7)*%
X111112500Y-92765000D03*
%TO.P,U7,8,CH7*%
%TO.N,unconnected-(U7-CH7-Pad8)*%
X111112500Y-91495000D03*
%TO.P,U7,9,DGND*%
%TO.N,GND_PI*%
X106162500Y-91495000D03*
%TO.P,U7,10,~{CS}/SHDN*%
%TO.N,CS{slash}SHDN*%
X106162500Y-92765000D03*
%TO.P,U7,11,Din*%
%TO.N,Din*%
X106162500Y-94035000D03*
%TO.P,U7,12,Dout*%
%TO.N,Dout*%
X106162500Y-95305000D03*
%TO.P,U7,13,CLK*%
%TO.N,CLK*%
X106162500Y-96575000D03*
%TO.P,U7,14,AGND*%
%TO.N,GND_PI*%
X106162500Y-97845000D03*
%TO.P,U7,15,Vref*%
%TO.N,3.3V_PI*%
X106162500Y-99115000D03*
%TO.P,U7,16,Vdd*%
X106162500Y-100385000D03*
%TD*%
D41*
%TO.P,R34,1*%
%TO.N,/Power Electronics/SDAA*%
X134287500Y-70287500D03*
%TO.P,R34,2*%
%TO.N,/Power Electronics/3.3V_DIRECT*%
X134287500Y-68462500D03*
%TD*%
D58*
%TO.P,C34,1*%
%TO.N,GND_LVC*%
X103600000Y-57725000D03*
%TO.P,C34,2*%
%TO.N,12V_LVC*%
X103600000Y-60675000D03*
%TD*%
D59*
%TO.P,C31,1*%
%TO.N,/Power Electronics/REG25*%
X131237500Y-77600000D03*
%TO.P,C31,2*%
%TO.N,GND_BATTERY*%
X133137500Y-77600000D03*
%TD*%
D18*
%TO.P,C25,1*%
%TO.N,Net-(U2-CPH)*%
X183400000Y-94405000D03*
%TO.P,C25,2*%
%TO.N,Net-(U2-CPL)*%
X183400000Y-93445000D03*
%TD*%
D17*
%TO.P,C37,1*%
%TO.N,GND_PI*%
X102687500Y-98825000D03*
%TO.P,C37,2*%
%TO.N,3.3V_PI*%
X104237500Y-98825000D03*
%TD*%
D60*
%TO.P,C47,1*%
%TO.N,12V_SRV_MOTOR*%
X132525000Y-100532607D03*
D46*
%TO.P,C47,2*%
%TO.N,GND_SRV_MOTOR*%
X137525000Y-100532607D03*
%TD*%
D61*
%TO.P,U10,1,VCCA*%
%TO.N,/Power Electronics/3.3V_DIRECT*%
X119525000Y-37595000D03*
%TO.P,U10,2,SCLA*%
%TO.N,/Power Electronics/SCLA*%
X119525000Y-38865000D03*
%TO.P,U10,3,SDAA*%
%TO.N,/Power Electronics/SDAA*%
X119525000Y-40135000D03*
%TO.P,U10,4,GND*%
%TO.N,GND_BATTERY*%
X119525000Y-41405000D03*
%TO.P,U10,5,EN*%
%TO.N,3.3V_PI*%
X124475000Y-41405000D03*
%TO.P,U10,6,SDAB*%
%TO.N,SDAB*%
X124475000Y-40135000D03*
%TO.P,U10,7,SCLB*%
%TO.N,SCLB*%
X124475000Y-38865000D03*
%TO.P,U10,8,VCCB*%
%TO.N,3.3V_PI*%
X124475000Y-37595000D03*
%TD*%
D62*
%TO.P,C50,1*%
%TO.N,12V_SRV_MOTOR*%
X151040215Y-100432607D03*
D46*
%TO.P,C50,2*%
%TO.N,GND_SRV_MOTOR*%
X146040215Y-100432607D03*
%TD*%
D29*
%TO.P,NT9,1,1*%
%TO.N,GND_LVC*%
X134000000Y-56500000D03*
%TO.P,NT9,2,2*%
%TO.N,GND_SYS*%
X138000000Y-56500000D03*
%TD*%
D30*
%TO.P,C2,1*%
%TO.N,/VM*%
X145025000Y-111775000D03*
%TO.P,C2,2*%
%TO.N,GND_DC_MOTOR*%
X145025000Y-113675000D03*
%TD*%
D11*
%TO.P,U5,1,EN_IN1*%
%TO.N,/EN_IN5*%
X176325001Y-49425001D03*
%TO.P,U5,2,PH_IN2*%
%TO.N,/PH_IN5*%
X176325001Y-50075002D03*
%TO.P,U5,3,SLEEP_N*%
%TO.N,Net-(U5-SLEEP_N)*%
X176325001Y-50725001D03*
%TO.P,U5,4,FAULT_N*%
%TO.N,unconnected-(U5-FAULT_N-Pad4)*%
X176325001Y-51375002D03*
%TO.P,U5,5,VREF*%
%TO.N,3.3V_PI*%
X176325001Y-52025001D03*
%TO.P,U5,6,IPROPI*%
%TO.N,Net-(U5-IPROPI)*%
X176325001Y-52675002D03*
%TO.P,U5,7,IMODE*%
%TO.N,Net-(U5-IMODE)*%
X176325001Y-53325001D03*
%TO.P,U5,8,OUT1*%
%TO.N,Net-(J6-Pin_1)*%
X176325001Y-53975002D03*
%TO.P,U5,9,PGND*%
%TO.N,GND_DC_MOTOR*%
X182024999Y-53975002D03*
%TO.P,U5,10,OUT2*%
%TO.N,Net-(J6-Pin_2)*%
X182024999Y-53325001D03*
%TO.P,U5,11,VM*%
%TO.N,/VM*%
X182024999Y-52675002D03*
%TO.P,U5,12,VCP*%
%TO.N,Net-(U5-VCP)*%
X182024999Y-52025001D03*
%TO.P,U5,13,CPH*%
%TO.N,Net-(U5-CPH)*%
X182024999Y-51375002D03*
%TO.P,U5,14,CPL*%
%TO.N,Net-(U5-CPL)*%
X182024999Y-50725001D03*
%TO.P,U5,15,GND*%
%TO.N,GND_DC_MOTOR*%
X182024999Y-50075002D03*
%TO.P,U5,16,PMODE*%
%TO.N,Net-(U5-PMODE)*%
X182024999Y-49425001D03*
D12*
%TO.P,U5,17,PAD*%
%TO.N,GND_DC_MOTOR*%
X179200400Y-51700000D03*
D13*
%TO.P,U5,18,GND*%
X177825000Y-53600001D03*
%TO.P,U5,19,GND*%
X177825000Y-49799999D03*
%TO.P,U5,20,GND*%
X177825000Y-50749999D03*
%TO.P,U5,21,GND*%
X177825000Y-52650001D03*
%TO.P,U5,22,GND*%
X177825000Y-51700000D03*
%TO.P,U5,23,GND*%
X180525000Y-51700000D03*
%TO.P,U5,24,GND*%
X180525000Y-52650001D03*
%TO.P,U5,25,GND*%
X180525000Y-50749999D03*
%TO.P,U5,26,GND*%
X180525000Y-49799999D03*
%TO.P,U5,27,GND*%
X180525000Y-53600001D03*
%TO.P,U5,28,GND*%
X179175000Y-53600001D03*
%TO.P,U5,29,GND*%
X179175000Y-49799999D03*
%TO.P,U5,30,GND*%
X179175000Y-50749999D03*
%TO.P,U5,31,GND*%
X179175000Y-52650001D03*
%TO.P,U5,32,GND*%
X179175000Y-51700000D03*
%TD*%
D19*
%TO.P,R5,1*%
%TO.N,/EN_IN3*%
X171750000Y-76950000D03*
%TO.P,R5,2*%
%TO.N,GND_DC_MOTOR*%
X169925000Y-76950000D03*
%TD*%
D63*
%TO.P,LightSwitch1,*%
%TO.N,*%
X90760000Y-91675000D03*
X88550000Y-91675000D03*
X90760000Y-98975000D03*
X88550000Y-98975000D03*
D64*
%TO.P,LightSwitch1,1,A*%
%TO.N,Net-(J9-Pin_2)*%
X91410000Y-93075000D03*
%TO.P,LightSwitch1,2,B*%
%TO.N,Net-(J11-Pin_2)*%
X91410000Y-96075000D03*
%TO.P,LightSwitch1,3*%
%TO.N,N/C*%
X91410000Y-97575000D03*
%TD*%
D22*
%TO.P,J8,1,Pin_1*%
%TO.N,GND_LVC*%
X93950000Y-56575000D03*
D23*
%TO.P,J8,2,Pin_2*%
%TO.N,12V_LVC*%
X93950000Y-61575000D03*
%TD*%
D38*
%TO.P,C12,1*%
%TO.N,/VM*%
X159487500Y-79525000D03*
%TO.P,C12,2*%
%TO.N,GND_DC_MOTOR*%
X164887500Y-79525000D03*
%TD*%
D17*
%TO.P,C6,1*%
%TO.N,GND_DC_MOTOR*%
X169925000Y-109750000D03*
%TO.P,C6,2*%
%TO.N,3.3V_PI*%
X171475000Y-109750000D03*
%TD*%
D41*
%TO.P,R27,1*%
%TO.N,3.3V_PI*%
X173275000Y-52687500D03*
%TO.P,R27,2*%
%TO.N,Net-(U5-SLEEP_N)*%
X173275000Y-50862500D03*
%TD*%
D40*
%TO.P,C22,1*%
%TO.N,/VM*%
X184475000Y-67475000D03*
%TO.P,C22,2*%
%TO.N,Net-(U4-VCP)*%
X184475000Y-65925000D03*
%TD*%
D17*
%TO.P,C52,1*%
%TO.N,GND_SRV_MOTOR*%
X144490215Y-90532607D03*
%TO.P,C52,2*%
%TO.N,12V_SRV_MOTOR*%
X146040215Y-90532607D03*
%TD*%
D40*
%TO.P,C17,1*%
%TO.N,/VM*%
X168450000Y-67125000D03*
%TO.P,C17,2*%
%TO.N,GND_DC_MOTOR*%
X168450000Y-65575000D03*
%TD*%
D65*
%TO.P,U6,1,P2*%
%TO.N,GND_BATTERY*%
X129200000Y-71925000D03*
%TO.P,U6,2,VEN*%
X129200000Y-72575000D03*
%TO.P,U6,3,P1*%
X129200000Y-73225000D03*
%TO.P,U6,4,BAT*%
%TO.N,/Power Electronics/BAT*%
X129200000Y-73875000D03*
%TO.P,U6,5,CE*%
%TO.N,/Power Electronics/3.3V_DIRECT*%
X129200000Y-74525000D03*
%TO.P,U6,6,REGIN*%
X129200000Y-75175000D03*
%TO.P,U6,7,REG25*%
%TO.N,/Power Electronics/REG25*%
X129200000Y-75825000D03*
%TO.P,U6,8,VSS*%
%TO.N,GND_BATTERY*%
X134925000Y-75825000D03*
%TO.P,U6,9,SRP*%
X134925000Y-75175000D03*
%TO.P,U6,10,SRN*%
%TO.N,GND_SYS*%
X134925000Y-74525000D03*
%TO.P,U6,11,P6/TS*%
%TO.N,/Power Electronics/TS*%
X134925000Y-73875000D03*
%TO.P,U6,12,P5/HDQ*%
%TO.N,unconnected-(U6-P5{slash}HDQ-Pad12)*%
X134925000Y-73225000D03*
%TO.P,U6,13,P4/SCL*%
%TO.N,/Power Electronics/SCLA*%
X134925000Y-72575000D03*
%TO.P,U6,14,P3/SDA*%
%TO.N,/Power Electronics/SDAA*%
X134925000Y-71925000D03*
%TD*%
D18*
%TO.P,C24,1*%
%TO.N,Net-(U1-CPH)*%
X183315215Y-109087607D03*
%TO.P,C24,2*%
%TO.N,Net-(U1-CPL)*%
X183315215Y-108127607D03*
%TD*%
D40*
%TO.P,C18,1*%
%TO.N,/VM*%
X168025000Y-52525000D03*
%TO.P,C18,2*%
%TO.N,GND_DC_MOTOR*%
X168025000Y-50975000D03*
%TD*%
%TO.P,C35,1*%
%TO.N,12V_LVC*%
X97900000Y-59950000D03*
%TO.P,C35,2*%
%TO.N,GND_LVC*%
X97900000Y-58400000D03*
%TD*%
D17*
%TO.P,C8,1*%
%TO.N,GND_DC_MOTOR*%
X176875000Y-76025000D03*
%TO.P,C8,2*%
%TO.N,3.3V_PI*%
X178425000Y-76025000D03*
%TD*%
D38*
%TO.P,C11,1*%
%TO.N,/VM*%
X159437501Y-93624997D03*
%TO.P,C11,2*%
%TO.N,GND_DC_MOTOR*%
X164837501Y-93624997D03*
%TD*%
D25*
%TO.P,C46,1*%
%TO.N,Net-(J11-Pin_2)*%
X98400000Y-83607323D03*
%TO.P,C46,2*%
%TO.N,GND_LVC*%
X98400000Y-85157323D03*
%TD*%
D66*
%TO.P,C44,1*%
%TO.N,Net-(J11-Pin_2)*%
X92400000Y-81957323D03*
D67*
%TO.P,C44,2*%
%TO.N,GND_LVC*%
X92400000Y-86957323D03*
%TD*%
D33*
%TO.P,J2,1,Pin_1*%
%TO.N,Net-(J2-Pin_1)*%
X189100000Y-109400000D03*
D23*
%TO.P,J2,2,Pin_2*%
%TO.N,Net-(J2-Pin_2)*%
X189100000Y-104400000D03*
%TD*%
D29*
%TO.P,NT3,1,1*%
%TO.N,GND_LDO*%
X137500000Y-52000000D03*
%TO.P,NT3,2,2*%
%TO.N,GND_SYS*%
X137500000Y-56000000D03*
%TD*%
D68*
%TO.P,D1,1,A1*%
%TO.N,/VM*%
X149825000Y-110700000D03*
%TO.P,D1,2,A2*%
%TO.N,GND_DC_MOTOR*%
X149825000Y-115000000D03*
%TD*%
D33*
%TO.P,J17,1,Pin_1*%
%TO.N,GND_CHG*%
X106200000Y-110175000D03*
D23*
%TO.P,J17,2,Pin_2*%
%TO.N,Net-(D2-K)*%
X106200000Y-105175000D03*
%TD*%
D42*
%TO.P,TP4,1,1*%
%TO.N,GND_SRV_MOTOR*%
X121825000Y-113900000D03*
%TD*%
D69*
%TO.P,C51,1*%
%TO.N,GND_SRV_MOTOR*%
X144540215Y-92482607D03*
%TO.P,C51,2*%
%TO.N,12V_SRV_MOTOR*%
X147490215Y-92482607D03*
%TD*%
D70*
%TO.P,C39,1*%
%TO.N,3.3V_PI*%
X104187500Y-100625000D03*
%TO.P,C39,2*%
%TO.N,GND_LVC*%
X102287500Y-100625000D03*
%TD*%
D17*
%TO.P,C9,1*%
%TO.N,GND_DC_MOTOR*%
X177150000Y-61475000D03*
%TO.P,C9,2*%
%TO.N,3.3V_PI*%
X178700000Y-61475000D03*
%TD*%
D11*
%TO.P,U4,1,EN_IN1*%
%TO.N,/EN_IN4*%
X176299601Y-63750001D03*
%TO.P,U4,2,PH_IN2*%
%TO.N,/PH_IN4*%
X176299601Y-64400002D03*
%TO.P,U4,3,SLEEP_N*%
%TO.N,Net-(U4-SLEEP_N)*%
X176299601Y-65050001D03*
%TO.P,U4,4,FAULT_N*%
%TO.N,unconnected-(U4-FAULT_N-Pad4)*%
X176299601Y-65700002D03*
%TO.P,U4,5,VREF*%
%TO.N,3.3V_PI*%
X176299601Y-66350001D03*
%TO.P,U4,6,IPROPI*%
%TO.N,Net-(U4-IPROPI)*%
X176299601Y-67000002D03*
%TO.P,U4,7,IMODE*%
%TO.N,Net-(U4-IMODE)*%
X176299601Y-67650001D03*
%TO.P,U4,8,OUT1*%
%TO.N,Net-(J5-Pin_1)*%
X176299601Y-68300002D03*
%TO.P,U4,9,PGND*%
%TO.N,GND_DC_MOTOR*%
X181999599Y-68300002D03*
%TO.P,U4,10,OUT2*%
%TO.N,Net-(J5-Pin_2)*%
X181999599Y-67650001D03*
%TO.P,U4,11,VM*%
%TO.N,/VM*%
X181999599Y-67000002D03*
%TO.P,U4,12,VCP*%
%TO.N,Net-(U4-VCP)*%
X181999599Y-66350001D03*
%TO.P,U4,13,CPH*%
%TO.N,Net-(U4-CPH)*%
X181999599Y-65700002D03*
%TO.P,U4,14,CPL*%
%TO.N,Net-(U4-CPL)*%
X181999599Y-65050001D03*
%TO.P,U4,15,GND*%
%TO.N,GND_DC_MOTOR*%
X181999599Y-64400002D03*
%TO.P,U4,16,PMODE*%
%TO.N,Net-(U4-PMODE)*%
X181999599Y-63750001D03*
D12*
%TO.P,U4,17,PAD*%
%TO.N,GND_DC_MOTOR*%
X179175000Y-66025000D03*
D13*
%TO.P,U4,18,GND*%
X177799600Y-67925001D03*
%TO.P,U4,19,GND*%
X177799600Y-64124999D03*
%TO.P,U4,20,GND*%
X177799600Y-65074999D03*
%TO.P,U4,21,GND*%
X177799600Y-66975001D03*
%TO.P,U4,22,GND*%
X177799600Y-66025000D03*
%TO.P,U4,23,GND*%
X180499600Y-66025000D03*
%TO.P,U4,24,GND*%
X180499600Y-66975001D03*
%TO.P,U4,25,GND*%
X180499600Y-65074999D03*
%TO.P,U4,26,GND*%
X180499600Y-64124999D03*
%TO.P,U4,27,GND*%
X180499600Y-67925001D03*
%TO.P,U4,28,GND*%
X179149600Y-67925001D03*
%TO.P,U4,29,GND*%
X179149600Y-64124999D03*
%TO.P,U4,30,GND*%
X179149600Y-65074999D03*
%TO.P,U4,31,GND*%
X179149600Y-66975001D03*
%TO.P,U4,32,GND*%
X179149600Y-66025000D03*
%TD*%
D16*
%TO.P,R24,1*%
%TO.N,GND_DC_MOTOR*%
X171675000Y-68925000D03*
%TO.P,R24,2*%
%TO.N,Net-(U4-IPROPI)*%
X173500000Y-68925000D03*
%TD*%
D30*
%TO.P,C53,1*%
%TO.N,/Power Electronics/3.3V_DIRECT*%
X148225000Y-38525000D03*
%TO.P,C53,2*%
%TO.N,GND_LDO*%
X148225000Y-40425000D03*
%TD*%
D16*
%TO.P,R10,1*%
%TO.N,GND_DC_MOTOR*%
X169525000Y-49175000D03*
%TO.P,R10,2*%
%TO.N,/PH_IN5*%
X171350000Y-49175000D03*
%TD*%
%TO.P,R30,1*%
%TO.N,3.3V_PI*%
X180637500Y-47925000D03*
%TO.P,R30,2*%
%TO.N,Net-(U5-PMODE)*%
X182462500Y-47925000D03*
%TD*%
D54*
%TO.P,J15,1,Pin_1*%
%TO.N,GND_SRV_MOTOR*%
X142525000Y-86025000D03*
D23*
%TO.P,J15,2,Pin_2*%
%TO.N,12V_SRV_MOTOR*%
X147525000Y-86025000D03*
%TD*%
D71*
%TO.P,J20,1,Pin_1*%
%TO.N,unconnected-(J20-Pin_1-Pad1)*%
X93920000Y-39500000D03*
D72*
%TO.P,J20,2,Pin_2*%
%TO.N,/Power Electronics/SDAA*%
X96460000Y-39500000D03*
%TO.P,J20,3,Pin_3*%
%TO.N,/Power Electronics/SCLA*%
X99000000Y-39500000D03*
%TO.P,J20,4,Pin_4*%
%TO.N,GND_BATTERY*%
X101540000Y-39500000D03*
%TD*%
D29*
%TO.P,NT7,1,1*%
%TO.N,GND_CHG*%
X142950000Y-67125000D03*
%TO.P,NT7,2,2*%
%TO.N,GND_SYS*%
X142950000Y-63125000D03*
%TD*%
D16*
%TO.P,R28,1*%
%TO.N,GND_DC_MOTOR*%
X171012500Y-54550000D03*
%TO.P,R28,2*%
%TO.N,Net-(U5-IPROPI)*%
X172837500Y-54550000D03*
%TD*%
%TO.P,R29,1*%
%TO.N,GND_DC_MOTOR*%
X171000000Y-56500000D03*
%TO.P,R29,2*%
%TO.N,Net-(U5-IMODE)*%
X172825000Y-56500000D03*
%TD*%
D19*
%TO.P,R43,1*%
%TO.N,/Power Electronics/BAT*%
X127050000Y-74800000D03*
%TO.P,R43,2*%
%TO.N,GND_BATTERY*%
X125225000Y-74800000D03*
%TD*%
D21*
%TO.P,R38,1*%
%TO.N,12V_LVC*%
X91900000Y-72375000D03*
%TO.P,R38,2*%
%TO.N,Net-(U8-UV)*%
X91900000Y-74200000D03*
%TD*%
D33*
%TO.P,J12,1,Pin_1*%
%TO.N,GND_LVC*%
X111570000Y-87325000D03*
D23*
%TO.P,J12,2,Pin_2*%
%TO.N,Net-(J11-Pin_2)*%
X111570000Y-82325000D03*
%TD*%
D47*
%TO.P,R44,1*%
%TO.N,Net-(Q2-G)*%
X101100000Y-70525000D03*
%TO.P,R44,2*%
%TO.N,Net-(U8-GATE)*%
X101100000Y-72175000D03*
%TD*%
D26*
%TO.P,C30,1*%
%TO.N,GND_LVC*%
X118287500Y-94275000D03*
%TO.P,C30,2*%
%TO.N,Net-(U7-CH1)*%
X116737500Y-94275000D03*
%TD*%
D40*
%TO.P,C21,1*%
%TO.N,/VM*%
X184475000Y-81775000D03*
%TO.P,C21,2*%
%TO.N,Net-(U3-VCP)*%
X184475000Y-80225000D03*
%TD*%
D16*
%TO.P,R14,1*%
%TO.N,3.3V_PI*%
X178225000Y-105750000D03*
%TO.P,R14,2*%
%TO.N,Net-(U1-PMODE)*%
X180050000Y-105750000D03*
%TD*%
D40*
%TO.P,C15,1*%
%TO.N,/VM*%
X168225000Y-95650000D03*
%TO.P,C15,2*%
%TO.N,GND_DC_MOTOR*%
X168225000Y-94100000D03*
%TD*%
D33*
%TO.P,J3,1,Pin_1*%
%TO.N,Net-(J3-Pin_1)*%
X189275000Y-94200000D03*
D23*
%TO.P,J3,2,Pin_2*%
%TO.N,Net-(J3-Pin_2)*%
X189275000Y-89200000D03*
%TD*%
D17*
%TO.P,C49,1*%
%TO.N,12V_SRV_MOTOR*%
X134690215Y-90732607D03*
%TO.P,C49,2*%
%TO.N,GND_SRV_MOTOR*%
X136240215Y-90732607D03*
%TD*%
D18*
%TO.P,C26,1*%
%TO.N,Net-(U3-CPH)*%
X183275000Y-80080000D03*
%TO.P,C26,2*%
%TO.N,Net-(U3-CPL)*%
X183275000Y-79120000D03*
%TD*%
D42*
%TO.P,TP5,1,1*%
%TO.N,Net-(R50-Pad1)*%
X111325000Y-110175000D03*
%TD*%
D16*
%TO.P,R46,1*%
%TO.N,GND_LVC*%
X105425000Y-77975000D03*
%TO.P,R46,2*%
%TO.N,Net-(J11-Pin_2)*%
X107250000Y-77975000D03*
%TD*%
D28*
%TO.P,C1,1*%
%TO.N,/VM*%
X140450000Y-109700000D03*
%TO.P,C1,2*%
%TO.N,GND_DC_MOTOR*%
X140450000Y-115100000D03*
%TD*%
D40*
%TO.P,C16,1*%
%TO.N,/VM*%
X168450000Y-82450000D03*
%TO.P,C16,2*%
%TO.N,GND_DC_MOTOR*%
X168450000Y-80900000D03*
%TD*%
D34*
%TO.P,J10,1,Pin_1*%
%TO.N,Net-(J10-Pin_1)*%
X122900000Y-85375000D03*
%TD*%
D73*
%TO.N,GND_SYS*%
X136000000Y-59000000D03*
X135500000Y-54500000D03*
X117000000Y-54000000D03*
X108500000Y-49500000D03*
%TO.N,/Power Electronics/REG25*%
X130012000Y-76688000D03*
X137575000Y-70925000D03*
%TO.N,Net-(J11-Pin_2)*%
X102400000Y-74475000D03*
X91400000Y-95275000D03*
X102400000Y-76175000D03*
D74*
%TO.N,CLK*%
X122560000Y-121425000D03*
D73*
X104087500Y-96625000D03*
D74*
X123960000Y-121425000D03*
%TO.N,/PH_IN1*%
X172400000Y-107506607D03*
%TO.N,/PH_IN4*%
X182125000Y-72375000D03*
X175150000Y-69375000D03*
X127550000Y-127591000D03*
X175175000Y-64400002D03*
X183775000Y-115800000D03*
D73*
%TO.N,SCLB*%
X134500000Y-45500000D03*
X151000000Y-66500000D03*
X154000000Y-118000000D03*
X127500000Y-39000000D03*
X154000000Y-91000000D03*
X143500000Y-53500000D03*
X116500000Y-42500000D03*
D74*
%TO.N,Din*%
X135175000Y-119925000D03*
D73*
X104087500Y-94075000D03*
X105175000Y-115000000D03*
D74*
X133707525Y-119932525D03*
%TO.N,/EN_IN1*%
X173250000Y-105982607D03*
D73*
%TO.N,GND_LVC*%
X102287500Y-101975000D03*
%TO.N,CS{slash}SHDN*%
X98450000Y-97500000D03*
X104087500Y-92775000D03*
X102037500Y-94825000D03*
%TO.N,12V_LVC*%
X96575000Y-77350000D03*
X98350000Y-74900000D03*
D75*
%TO.N,GND_CHG*%
X141000000Y-79000000D03*
D73*
%TO.N,3.3V_PI*%
X174374999Y-80675001D03*
X176007275Y-62467725D03*
X116500000Y-45000000D03*
X176525000Y-77175000D03*
X135500000Y-119000000D03*
D74*
X174450000Y-58200000D03*
D73*
X175194242Y-105282607D03*
X124500000Y-45000000D03*
X176207275Y-91392725D03*
X176750000Y-48475000D03*
X133500000Y-119000000D03*
X120587500Y-97325000D03*
X109000000Y-53000000D03*
X175186411Y-109636411D03*
X174424999Y-95100001D03*
X160000000Y-120500000D03*
X174450000Y-52025001D03*
X174174999Y-66350001D03*
X108000000Y-90000000D03*
X106187500Y-101275000D03*
%TO.N,GND_PI*%
X135000000Y-64500000D03*
X102293043Y-113143043D03*
X104087500Y-91475000D03*
%TO.N,SDAB*%
X152500000Y-66500000D03*
X155000000Y-91000000D03*
X116500000Y-43500000D03*
X155030331Y-117969669D03*
X138058227Y-47937564D03*
X144530331Y-53469669D03*
X127500000Y-41000000D03*
%TO.N,GND_DC_MOTOR*%
X179175000Y-90425000D03*
D75*
X155000000Y-56500000D03*
D73*
X178875000Y-45775000D03*
D74*
X179175000Y-114475000D03*
D73*
X179175000Y-60049000D03*
X179175000Y-75250000D03*
D74*
%TO.N,Dout*%
X123960000Y-120725000D03*
D73*
X105506422Y-114006907D03*
D74*
X122560000Y-120725000D03*
D73*
X104087500Y-95325000D03*
D74*
X114625000Y-120725000D03*
%TO.N,/EN_IN2*%
X175149600Y-91325000D03*
%TO.N,/PH_IN3*%
X181940213Y-73199000D03*
X173150000Y-73898000D03*
X173150000Y-78725002D03*
D73*
%TO.N,/EN_IN4*%
X173025000Y-61800000D03*
%TO.N,/EN_IN5*%
X175262500Y-48362500D03*
D74*
X151328157Y-91028157D03*
X151300000Y-87925000D03*
X135000000Y-118000000D03*
D73*
%TO.N,/PH_IN5*%
X172275000Y-50075002D03*
X122510000Y-119050000D03*
D74*
%TO.N,/PH_IN2*%
X173099319Y-93138255D03*
%TO.N,/EN_IN3*%
X175249600Y-76950000D03*
X181940213Y-73899000D03*
X177040213Y-73899000D03*
D73*
%TO.N,/Power Electronics/TS*%
X139600000Y-73875000D03*
%TO.N,Net-(U8-GATE)*%
X100950000Y-77675000D03*
X101100000Y-72900000D03*
%TO.N,GND_BATTERY*%
X137500000Y-74500000D03*
X141750000Y-51950000D03*
X129000000Y-70000000D03*
X125500000Y-78000000D03*
%TO.N,GND_LDO*%
X139000000Y-51000000D03*
X154500000Y-42500000D03*
%TO.N,/Power Electronics/3.3V_DIRECT*%
X127000000Y-36000000D03*
X133000000Y-61500000D03*
X136500000Y-50000000D03*
X144500000Y-38500000D03*
X133000000Y-53000000D03*
%TO.N,/Power Electronics/12V BAT*%
X131937925Y-61500000D03*
X148000000Y-44000000D03*
%TO.N,/Power Electronics/SCLA*%
X117000000Y-39000000D03*
X138000000Y-65000000D03*
X122000000Y-43000000D03*
%TO.N,/Power Electronics/SDAA*%
X117000000Y-40000000D03*
X138000000Y-69000000D03*
X115000000Y-37000000D03*
X134075000Y-71275000D03*
X105500000Y-38000000D03*
X110500000Y-53000000D03*
X136500000Y-64933682D03*
X105500000Y-41000000D03*
%TD*%
D76*
%TO.N,GND_SYS*%
X136000000Y-58500000D02*
X138000000Y-56500000D01*
X136000000Y-59000000D02*
X136000000Y-58500000D01*
X135000000Y-54000000D02*
X135500000Y-54500000D01*
X117000000Y-54000000D02*
X135000000Y-54000000D01*
X108500000Y-40325000D02*
X108500000Y-49500000D01*
%TO.N,GND_BATTERY*%
X107498292Y-39500000D02*
X101540000Y-39500000D01*
X112001708Y-39000000D02*
X107998292Y-39000000D01*
X113001708Y-40000000D02*
X112001708Y-39000000D01*
X107998292Y-39000000D02*
X107498292Y-39500000D01*
X115000000Y-40000000D02*
X113001708Y-40000000D01*
D77*
%TO.N,Net-(J4-Pin_1)*%
X188325000Y-82799928D02*
X186097927Y-85027000D01*
X189075000Y-81100000D02*
X188325000Y-81850000D01*
X183026673Y-85126999D02*
X182030250Y-84130576D01*
X188325000Y-81850000D02*
X188325000Y-82799928D01*
X185048001Y-85126999D02*
X183026673Y-85126999D01*
X176374601Y-83201000D02*
X176374601Y-83126000D01*
X182030250Y-84099999D02*
X177273600Y-84099999D01*
X185148000Y-85027000D02*
X185048001Y-85126999D01*
X186097927Y-85027000D02*
X185148000Y-85027000D01*
X177273600Y-84099999D02*
X176374601Y-83201000D01*
D78*
%TO.N,/VM*%
X182024599Y-95750002D02*
X183575002Y-95750002D01*
X182074599Y-81325002D02*
X182111597Y-81362000D01*
D76*
X168450000Y-67125000D02*
X167125000Y-68450000D01*
X159637500Y-59300000D02*
X159562500Y-59225000D01*
D79*
X159226000Y-110125000D02*
X155625000Y-110125000D01*
X138951000Y-110500000D02*
X138901000Y-110550000D01*
D78*
X182061997Y-52712000D02*
X184362000Y-52712000D01*
D79*
X155050000Y-110700000D02*
X155625000Y-110125000D01*
X145025000Y-110974000D02*
X145200000Y-110799000D01*
D78*
X184000000Y-96175000D02*
X184675000Y-96175000D01*
X185275000Y-79658468D02*
X185275000Y-77150000D01*
X185650000Y-92425000D02*
X182149000Y-88924000D01*
D79*
X146899000Y-110700000D02*
X149825000Y-110700000D01*
D78*
X185275000Y-81300000D02*
X185275000Y-80791532D01*
X183575002Y-95750002D02*
X184000000Y-96175000D01*
X182149000Y-44849000D02*
X164651000Y-44849000D01*
X181384636Y-59326000D02*
X181358636Y-59300000D01*
D79*
X159562500Y-56125000D02*
X161686500Y-54001000D01*
D78*
X160001000Y-88924000D02*
X159725000Y-89200000D01*
X185351000Y-66415532D02*
X185351000Y-65434468D01*
D79*
X145200000Y-110799000D02*
X146800000Y-110799000D01*
D78*
X161501000Y-74549000D02*
X159725000Y-76325000D01*
D76*
X167125000Y-68450000D02*
X166750000Y-68450000D01*
D79*
X166825000Y-98600000D02*
X168225000Y-97200000D01*
X144849000Y-110974000D02*
X145025000Y-110974000D01*
D76*
X159725000Y-76325000D02*
X159725000Y-74062500D01*
X184515215Y-111057607D02*
X185441215Y-110131607D01*
D79*
X143575000Y-109700000D02*
X144849000Y-110974000D01*
D78*
X184623000Y-67475000D02*
X185075000Y-67023000D01*
X185351000Y-80715532D02*
X185351000Y-79734468D01*
D76*
X185441215Y-110131607D02*
X185441215Y-108467243D01*
X159662500Y-70875000D02*
X159662500Y-74000000D01*
D79*
X149825000Y-110700000D02*
X155050000Y-110700000D01*
X159562500Y-64275000D02*
X159562500Y-59225000D01*
D78*
X185175000Y-96275000D02*
X185650000Y-95800000D01*
X160150000Y-59300000D02*
X159725000Y-59725000D01*
X181358636Y-59300000D02*
X162000000Y-59300000D01*
D79*
X146800000Y-110799000D02*
X146899000Y-110700000D01*
D78*
X182149000Y-88924000D02*
X160001000Y-88924000D01*
X162425000Y-74549000D02*
X161501000Y-74549000D01*
X184625000Y-81925000D02*
X184650000Y-81925000D01*
D79*
X159437501Y-98600000D02*
X166825000Y-98600000D01*
D78*
X184475000Y-81750000D02*
X184475000Y-81775000D01*
X182674000Y-74549000D02*
X162425000Y-74549000D01*
X184087000Y-81362000D02*
X184475000Y-81750000D01*
X185075000Y-66691532D02*
X185351000Y-66415532D01*
X183865216Y-110407608D02*
X182090214Y-110407608D01*
X181999599Y-67000002D02*
X184300002Y-67000002D01*
D79*
X159437501Y-110336501D02*
X159226000Y-110125000D01*
D78*
X182024999Y-52675002D02*
X182061997Y-52712000D01*
X184475000Y-67475000D02*
X184623000Y-67475000D01*
X164651000Y-44849000D02*
X159725000Y-49775000D01*
D79*
X139650000Y-110500000D02*
X138951000Y-110500000D01*
D78*
X184700000Y-96150000D02*
X184825000Y-96275000D01*
D79*
X138901000Y-110550000D02*
X138901000Y-111149000D01*
D78*
X185275000Y-80791532D02*
X185351000Y-80715532D01*
D79*
X159662500Y-94303608D02*
X159662500Y-74000000D01*
D78*
X184650000Y-81925000D02*
X185275000Y-81300000D01*
D76*
X185441215Y-108467243D02*
X180423972Y-103450000D01*
X166750000Y-68450000D02*
X162087500Y-68450000D01*
D79*
X159662500Y-74000000D02*
X159662500Y-49800000D01*
X161686500Y-54001000D02*
X168062500Y-54001000D01*
D78*
X185075000Y-67023000D02*
X185075000Y-66691532D01*
X185075000Y-62600000D02*
X181801000Y-59326000D01*
X185351000Y-79734468D02*
X185275000Y-79658468D01*
D79*
X159562500Y-59225000D02*
X159562500Y-56125000D01*
D78*
X181801000Y-59326000D02*
X181384636Y-59326000D01*
X182111597Y-81362000D02*
X184087000Y-81362000D01*
D76*
X162087500Y-68450000D02*
X159662500Y-70875000D01*
D78*
X184475000Y-81775000D02*
X184625000Y-81925000D01*
D79*
X159838000Y-86249500D02*
X161688000Y-86249500D01*
X159437501Y-93624997D02*
X159437501Y-98600000D01*
X161688000Y-86249500D02*
X164237000Y-83700500D01*
X140450000Y-109700000D02*
X143575000Y-109700000D01*
D78*
X184300002Y-67000002D02*
X184475000Y-67175000D01*
X185826000Y-52424000D02*
X185826000Y-48526000D01*
X185650000Y-95800000D02*
X185650000Y-92425000D01*
D76*
X159725000Y-74062500D02*
X159662500Y-74000000D01*
D78*
X184475000Y-67175000D02*
X184475000Y-67475000D01*
X162000000Y-59300000D02*
X160150000Y-59300000D01*
D79*
X140450000Y-109700000D02*
X139650000Y-110500000D01*
D78*
X185075000Y-65158468D02*
X185075000Y-62600000D01*
D79*
X159437501Y-103450000D02*
X159437501Y-110336501D01*
D78*
X185275000Y-77150000D02*
X182674000Y-74549000D01*
D79*
X164237000Y-83700500D02*
X168563000Y-83700500D01*
D78*
X185351000Y-65434468D02*
X185075000Y-65158468D01*
X184515215Y-111057607D02*
X183865216Y-110407608D01*
X184362000Y-52712000D02*
X184950000Y-53300000D01*
D79*
X159437501Y-98600000D02*
X159437501Y-103450000D01*
D78*
X184950000Y-53300000D02*
X185826000Y-52424000D01*
X184825000Y-96275000D02*
X185175000Y-96275000D01*
X185826000Y-48526000D02*
X182149000Y-44849000D01*
D76*
X180423972Y-103450000D02*
X159437501Y-103450000D01*
D78*
X184675000Y-96175000D02*
X184700000Y-96150000D01*
D76*
X162000000Y-59300000D02*
X159637500Y-59300000D01*
D78*
%TO.N,Net-(U1-VCP)*%
X182101214Y-109768607D02*
X182090214Y-109757607D01*
X184515215Y-109507607D02*
X184254215Y-109768607D01*
X184254215Y-109768607D02*
X182101214Y-109768607D01*
%TO.N,Net-(U2-VCP)*%
X184400000Y-94600000D02*
X184700000Y-94600000D01*
X183894000Y-95106000D02*
X184400000Y-94600000D01*
X182030598Y-95106000D02*
X183894000Y-95106000D01*
X182024599Y-95100001D02*
X182030598Y-95106000D01*
%TO.N,Net-(U1-CPH)*%
X183315215Y-109087607D02*
X182110215Y-109087607D01*
X182110215Y-109087607D02*
X182090214Y-109107608D01*
%TO.N,Net-(U1-CPL)*%
X183315215Y-108127607D02*
X183196245Y-108127607D01*
X182866245Y-108457607D02*
X182090214Y-108457607D01*
X183196245Y-108127607D02*
X182866245Y-108457607D01*
%TO.N,Net-(U2-CPL)*%
X182673999Y-93800001D02*
X182024599Y-93800001D01*
X183170000Y-93445000D02*
X182871000Y-93744000D01*
X182730000Y-93744000D02*
X182673999Y-93800001D01*
X182871000Y-93744000D02*
X182730000Y-93744000D01*
X183400000Y-93445000D02*
X183170000Y-93445000D01*
%TO.N,Net-(U2-CPH)*%
X183380000Y-94425000D02*
X182049601Y-94425000D01*
X183400000Y-94405000D02*
X183380000Y-94425000D01*
X182049601Y-94425000D02*
X182024599Y-94450002D01*
D76*
%TO.N,Net-(U7-CH1)*%
X116737500Y-95975000D02*
X116787500Y-96025000D01*
X113764742Y-99115000D02*
X116787500Y-96092242D01*
X116737500Y-94275000D02*
X116737500Y-95975000D01*
X116787500Y-96092242D02*
X116787500Y-96025000D01*
X111112500Y-99115000D02*
X113764742Y-99115000D01*
%TO.N,/Power Electronics/REG25*%
X130012000Y-76688000D02*
X130749000Y-77425000D01*
X137825000Y-70925000D02*
X139550000Y-72650000D01*
X130012000Y-76688000D02*
X129200000Y-75876000D01*
X137575000Y-70925000D02*
X137825000Y-70925000D01*
X139550000Y-72650000D02*
X139587500Y-72650000D01*
X130749000Y-77425000D02*
X131412500Y-77425000D01*
D80*
%TO.N,Net-(U8-UV)*%
X95350000Y-75875000D02*
X96475000Y-75875000D01*
D76*
X91900000Y-74200000D02*
X91900000Y-75812500D01*
D80*
X96475000Y-75875000D02*
X96875000Y-76275000D01*
D76*
X91900000Y-75812500D02*
X93487500Y-75812500D01*
X93650000Y-75875000D02*
X93600000Y-75925000D01*
D80*
X96875000Y-76275000D02*
X96875000Y-76500000D01*
D76*
X95350000Y-75875000D02*
X93650000Y-75875000D01*
X93487500Y-75812500D02*
X93600000Y-75925000D01*
D80*
X97200000Y-76825000D02*
X97760000Y-76825000D01*
X96875000Y-76500000D02*
X97200000Y-76825000D01*
D76*
%TO.N,/Power Electronics/BAT*%
X127050000Y-73825000D02*
X127050000Y-72887500D01*
X127075000Y-73850000D02*
X127050000Y-73825000D01*
X127050000Y-76387500D02*
X126962500Y-76475000D01*
X127050000Y-74800000D02*
X127050000Y-73825000D01*
X128330496Y-73875000D02*
X128305496Y-73850000D01*
X127050000Y-74800000D02*
X127050000Y-76387500D01*
X128305496Y-73850000D02*
X127075000Y-73850000D01*
X127050000Y-72887500D02*
X127062500Y-72875000D01*
%TO.N,Net-(J11-Pin_2)*%
X113820000Y-84575000D02*
X111570000Y-82325000D01*
X91410000Y-95285000D02*
X91400000Y-95275000D01*
X91410000Y-96075000D02*
X91912000Y-96075000D01*
X100526000Y-76599000D02*
X100526000Y-76601930D01*
X100526000Y-76601930D02*
X100302930Y-76825000D01*
D81*
X100302930Y-76825000D02*
X99640000Y-76825000D01*
D76*
X92611000Y-99814000D02*
X91600000Y-100825000D01*
X110923500Y-71776000D02*
X105099000Y-71776000D01*
X91912000Y-96075000D02*
X92611000Y-96774000D01*
X105099000Y-71776000D02*
X102400000Y-74475000D01*
D79*
X92400000Y-81957323D02*
X103952323Y-81957323D01*
D76*
X91410000Y-96075000D02*
X91410000Y-95285000D01*
X100950000Y-76175000D02*
X100526000Y-76599000D01*
X115837500Y-84575000D02*
X113820000Y-84575000D01*
X92611000Y-96774000D02*
X92611000Y-99814000D01*
X112060000Y-70325000D02*
X112060000Y-70639500D01*
X112060000Y-70639500D02*
X110923500Y-71776000D01*
X105450000Y-76175000D02*
X102400000Y-76175000D01*
X107250000Y-77975000D02*
X105450000Y-76175000D01*
D79*
X111570000Y-82325000D02*
X104320000Y-82325000D01*
D76*
X102400000Y-76175000D02*
X100950000Y-76175000D01*
D79*
X103952323Y-81957323D02*
X104320000Y-82325000D01*
D76*
%TO.N,Net-(D2-K)*%
X110087500Y-105325000D02*
X106350000Y-105325000D01*
X106350000Y-105325000D02*
X106200000Y-105175000D01*
D79*
X101500000Y-105175000D02*
X106200000Y-105175000D01*
D76*
%TO.N,CLK*%
X122560000Y-121425000D02*
X123960000Y-121425000D01*
X104087500Y-96625000D02*
X104137500Y-96575000D01*
X104137500Y-96575000D02*
X106162500Y-96575000D01*
D78*
%TO.N,/PH_IN1*%
X171266215Y-107506607D02*
X170865215Y-107907607D01*
X175515214Y-107807608D02*
X176390216Y-107807608D01*
X172400000Y-107506607D02*
X171266215Y-107506607D01*
X172400000Y-107506607D02*
X175214213Y-107506607D01*
X175214213Y-107506607D02*
X175515214Y-107807608D01*
%TO.N,/PH_IN4*%
X172175002Y-64400002D02*
X175175000Y-64400002D01*
X172175002Y-64400002D02*
X171575000Y-63800000D01*
D76*
X171875000Y-127700000D02*
X183775000Y-115800000D01*
X175150000Y-69375000D02*
X178150000Y-72375000D01*
D78*
X175175000Y-64400002D02*
X176299601Y-64400002D01*
D76*
X127659000Y-127700000D02*
X170350000Y-127700000D01*
X183775000Y-115800000D02*
X183800000Y-115775000D01*
X170350000Y-127700000D02*
X171875000Y-127700000D01*
X178150000Y-72375000D02*
X182125000Y-72375000D01*
X127550000Y-127591000D02*
X127659000Y-127700000D01*
%TO.N,SCLB*%
X124610000Y-39000000D02*
X124475000Y-38865000D01*
X111500000Y-40325000D02*
X113675000Y-42500000D01*
X154000000Y-69500000D02*
X151000000Y-66500000D01*
X160320000Y-119500000D02*
X163870000Y-123050000D01*
X140000000Y-50937925D02*
X137562075Y-48500000D01*
X154000000Y-118000000D02*
X155500000Y-119500000D01*
X155500000Y-119500000D02*
X160320000Y-119500000D01*
X113675000Y-42500000D02*
X116500000Y-42500000D01*
X154000000Y-91000000D02*
X154000000Y-69500000D01*
X127500000Y-39000000D02*
X124610000Y-39000000D01*
X143500000Y-53500000D02*
X140000000Y-53500000D01*
X137500000Y-48500000D02*
X134500000Y-45500000D01*
X140000000Y-53500000D02*
X140000000Y-50937925D01*
X137562075Y-48500000D02*
X137500000Y-48500000D01*
%TO.N,Din*%
X104087500Y-94075000D02*
X104127500Y-94035000D01*
X135175000Y-119925000D02*
X135375000Y-119925000D01*
X128932525Y-119932525D02*
X127299000Y-118299000D01*
X133707525Y-119932525D02*
X128932525Y-119932525D01*
X127299000Y-118299000D02*
X118042364Y-118299000D01*
X137075000Y-121625000D02*
X144665000Y-121625000D01*
X118042364Y-118299000D02*
X114915364Y-121426000D01*
X135375000Y-119925000D02*
X137075000Y-121625000D01*
X111601000Y-121426000D02*
X105175000Y-115000000D01*
X104127500Y-94035000D02*
X106162500Y-94035000D01*
X114915364Y-121426000D02*
X111601000Y-121426000D01*
X144665000Y-121625000D02*
X146090000Y-123050000D01*
D78*
%TO.N,/EN_IN1*%
X173250000Y-105982607D02*
X172275000Y-105982607D01*
X176390216Y-107157607D02*
X175215216Y-105982607D01*
X172275000Y-105982607D02*
X170865215Y-105982607D01*
X175215216Y-105982607D02*
X173250000Y-105982607D01*
D76*
%TO.N,GND_LVC*%
X102287500Y-101975000D02*
X102287500Y-100625000D01*
X116300000Y-87375000D02*
X119088500Y-90163500D01*
D79*
X98400000Y-86258323D02*
X100050000Y-86258323D01*
X92400000Y-86957323D02*
X91458889Y-86957323D01*
D76*
X91900000Y-77637500D02*
X93437500Y-77637500D01*
D79*
X89200000Y-56575000D02*
X93950000Y-56575000D01*
D76*
X111570000Y-87325000D02*
X111620000Y-87375000D01*
X97760000Y-75825000D02*
X97950000Y-75825000D01*
X118440000Y-77675000D02*
X122790000Y-82025000D01*
X117912500Y-77675000D02*
X118440000Y-77675000D01*
X95350000Y-77775000D02*
X95850000Y-78275000D01*
D79*
X95550000Y-93675000D02*
X97970000Y-93675000D01*
D76*
X95050000Y-77475000D02*
X95350000Y-77775000D01*
X116461500Y-79126000D02*
X117912500Y-77675000D01*
D79*
X97970000Y-93675000D02*
X104320000Y-87325000D01*
D76*
X90182323Y-89175000D02*
X88450000Y-89175000D01*
D79*
X100050000Y-86258323D02*
X100150000Y-86158323D01*
D76*
X97972930Y-78275000D02*
X98700000Y-77547930D01*
X124788500Y-98349000D02*
X123362500Y-99775000D01*
D79*
X111570000Y-87325000D02*
X104320000Y-87325000D01*
X101316677Y-87325000D02*
X104320000Y-87325000D01*
D76*
X124384792Y-93474000D02*
X124788500Y-93877708D01*
D79*
X97701000Y-86957323D02*
X98400000Y-86258323D01*
X124934784Y-56575000D02*
X125000000Y-56640216D01*
D76*
X105425000Y-77975000D02*
X106576000Y-79126000D01*
X124201000Y-86676000D02*
X120713500Y-90163500D01*
X98700000Y-77547930D02*
X98700000Y-76575000D01*
X95850000Y-78275000D02*
X97972930Y-78275000D01*
X119088500Y-93474000D02*
X124384792Y-93474000D01*
D79*
X125000000Y-56640216D02*
X133359784Y-56640216D01*
X100150000Y-86158323D02*
X101316677Y-87325000D01*
D76*
X119088500Y-90163500D02*
X119088500Y-93474000D01*
X122790000Y-82025000D02*
X124201000Y-83436000D01*
X92400000Y-86957323D02*
X90182323Y-89175000D01*
X104975000Y-78425000D02*
X99577070Y-78425000D01*
X97950000Y-75825000D02*
X98700000Y-76575000D01*
X124788500Y-93877708D02*
X124788500Y-98349000D01*
X124201000Y-83436000D02*
X124201000Y-86676000D01*
X118287500Y-94275000D02*
X119088500Y-93474000D01*
X93600000Y-77475000D02*
X95050000Y-77475000D01*
X97760000Y-75825000D02*
X97760000Y-76224000D01*
X88450000Y-89175000D02*
X86050000Y-91575000D01*
X99577070Y-78425000D02*
X98700000Y-77547930D01*
D79*
X92400000Y-86957323D02*
X97701000Y-86957323D01*
X93950000Y-56575000D02*
X124934784Y-56575000D01*
D76*
X106576000Y-79126000D02*
X116461500Y-79126000D01*
X105425000Y-77975000D02*
X104975000Y-78425000D01*
X93437500Y-77637500D02*
X93600000Y-77475000D01*
X86050000Y-91575000D02*
X86050000Y-98900000D01*
D79*
X91458889Y-86957323D02*
X87000000Y-82498434D01*
D76*
X111620000Y-87375000D02*
X116300000Y-87375000D01*
X120713500Y-90163500D02*
X119088500Y-90163500D01*
D79*
X87000000Y-82498434D02*
X87000000Y-58775000D01*
X87000000Y-58775000D02*
X89200000Y-56575000D01*
D76*
%TO.N,CS{slash}SHDN*%
X99275000Y-97500000D02*
X98450000Y-97500000D01*
X102037500Y-94825000D02*
X101950000Y-94825000D01*
X106162500Y-92765000D02*
X104097500Y-92765000D01*
X101950000Y-94825000D02*
X99275000Y-97500000D01*
X104097500Y-92765000D02*
X104087500Y-92775000D01*
D79*
%TO.N,12V_CHG*%
X92550000Y-105125000D02*
X97150000Y-105125000D01*
X97150000Y-105125000D02*
X97200000Y-105175000D01*
D76*
%TO.N,12V_LVC*%
X93350000Y-73825000D02*
X91900000Y-72375000D01*
X91900000Y-63625000D02*
X93950000Y-61575000D01*
X91900000Y-72375000D02*
X91900000Y-63625000D01*
D82*
X97100000Y-77350000D02*
X97125000Y-77325000D01*
D76*
X97387500Y-73825000D02*
X96275000Y-73825000D01*
D82*
X96575000Y-77350000D02*
X97100000Y-77350000D01*
D76*
X98350000Y-74787500D02*
X97387500Y-73825000D01*
D79*
X93950000Y-61575000D02*
X124934784Y-61575000D01*
D76*
X96275000Y-73825000D02*
X93350000Y-73825000D01*
X98350000Y-74900000D02*
X98350000Y-74787500D01*
D79*
X124934784Y-61575000D02*
X125000000Y-61640216D01*
D82*
X97125000Y-77325000D02*
X97760000Y-77325000D01*
D76*
X125237500Y-61877716D02*
X125000000Y-61640216D01*
D79*
%TO.N,GND_CHG*%
X92550000Y-110125000D02*
X106150000Y-110125000D01*
D76*
X107250000Y-110175000D02*
X111300000Y-114225000D01*
X106250000Y-110125000D02*
X106200000Y-110175000D01*
D79*
X142950000Y-67125000D02*
X143524000Y-67699000D01*
D76*
X92550000Y-110125000D02*
X91325000Y-110125000D01*
D79*
X106150000Y-110125000D02*
X106200000Y-110175000D01*
D76*
X92450000Y-110225000D02*
X92550000Y-110125000D01*
X106200000Y-110175000D02*
X107250000Y-110175000D01*
D79*
X143524000Y-76476000D02*
X141000000Y-79000000D01*
X143524000Y-67699000D02*
X143524000Y-76476000D01*
D78*
%TO.N,3.3V_PI*%
X180312500Y-48250000D02*
X176975000Y-48250000D01*
X179912500Y-62150000D02*
X180612500Y-62150000D01*
D76*
X106162500Y-100385000D02*
X106162500Y-99115000D01*
X176207275Y-91392725D02*
X176216550Y-91402000D01*
D78*
X178275000Y-89525000D02*
X179325000Y-89525000D01*
X173325000Y-67200000D02*
X174174999Y-66350001D01*
D76*
X175776849Y-104700000D02*
X177175000Y-104700000D01*
D78*
X180250000Y-90450000D02*
X180250000Y-91025000D01*
D76*
X135500000Y-119000000D02*
X137000000Y-120500000D01*
X104527500Y-99115000D02*
X104237500Y-98825000D01*
X127589364Y-117598000D02*
X128991364Y-119000000D01*
X123362500Y-97275000D02*
X116000000Y-104637500D01*
D78*
X173977715Y-109757607D02*
X173490215Y-110245107D01*
D76*
X123000000Y-38095001D02*
X123000000Y-40500000D01*
D78*
X178650000Y-47250000D02*
X179200000Y-47250000D01*
X180262500Y-76675000D02*
X179987500Y-76950000D01*
D76*
X174350000Y-58300000D02*
X174450000Y-58200000D01*
D78*
X178450000Y-76950000D02*
X176750000Y-76950000D01*
D76*
X109500000Y-52500000D02*
X109500000Y-45000000D01*
D78*
X173937499Y-52025001D02*
X173275000Y-52687500D01*
X175065215Y-109757607D02*
X173977715Y-109757607D01*
X179237500Y-61475000D02*
X179912500Y-62150000D01*
X175186411Y-109636411D02*
X175065215Y-109757607D01*
D76*
X106162500Y-99115000D02*
X104527500Y-99115000D01*
D78*
X176750000Y-76950000D02*
X176525000Y-77175000D01*
X178700000Y-61475000D02*
X179237500Y-61475000D01*
D76*
X123000000Y-40500000D02*
X123905000Y-41405000D01*
D78*
X174374999Y-80675001D02*
X173500000Y-81550000D01*
D76*
X124475000Y-37595000D02*
X123500001Y-37595000D01*
X137000000Y-120500000D02*
X160000000Y-120500000D01*
D78*
X178425000Y-76925000D02*
X178450000Y-76950000D01*
D76*
X128991364Y-119000000D02*
X133500000Y-119000000D01*
X120587500Y-97325000D02*
X120637500Y-97275000D01*
D78*
X179325000Y-89525000D02*
X180250000Y-90450000D01*
D76*
X118598000Y-117598000D02*
X127589364Y-117598000D01*
X123000000Y-44500000D02*
X124000000Y-44500000D01*
X109500000Y-45000000D02*
X109500000Y-40325000D01*
X177175000Y-104700000D02*
X178225000Y-105750000D01*
X108000000Y-98252499D02*
X107137499Y-99115000D01*
X107137499Y-99115000D02*
X106162500Y-99115000D01*
D78*
X176007275Y-62467725D02*
X177116269Y-62467725D01*
X174424999Y-95100001D02*
X173600000Y-95925000D01*
X179875000Y-47925000D02*
X180637500Y-47925000D01*
D76*
X116500000Y-45000000D02*
X109500000Y-45000000D01*
X104187500Y-98875000D02*
X104237500Y-98825000D01*
X120637500Y-97275000D02*
X123362500Y-97275000D01*
X116000000Y-115000000D02*
X118598000Y-117598000D01*
X123000000Y-42880000D02*
X124475000Y-41405000D01*
D78*
X174174999Y-66350001D02*
X176299601Y-66350001D01*
D76*
X108000000Y-90000000D02*
X108000000Y-98252499D01*
X124000000Y-44500000D02*
X124500000Y-45000000D01*
D78*
X180637500Y-47925000D02*
X180312500Y-48250000D01*
D76*
X175194242Y-105282607D02*
X175776849Y-104700000D01*
X179873000Y-91402000D02*
X180250000Y-91025000D01*
X106187500Y-101275000D02*
X106187500Y-100410000D01*
D78*
X176325001Y-52025001D02*
X174450000Y-52025001D01*
X174450000Y-52025001D02*
X173937499Y-52025001D01*
D76*
X116000000Y-104637500D02*
X116000000Y-115000000D01*
D78*
X176225000Y-91375000D02*
X176207275Y-91392725D01*
X176374601Y-80675001D02*
X174374999Y-80675001D01*
X177123544Y-62475000D02*
X180287500Y-62475000D01*
X179200000Y-47250000D02*
X179875000Y-47925000D01*
X176975000Y-48250000D02*
X176750000Y-48475000D01*
X178425000Y-76025000D02*
X178425000Y-76925000D01*
X177825000Y-89975000D02*
X178275000Y-89525000D01*
X173490215Y-110245107D02*
X171970107Y-110245107D01*
X180287500Y-62475000D02*
X180612500Y-62150000D01*
X175307607Y-109757607D02*
X175186411Y-109636411D01*
D76*
X123500001Y-37595000D02*
X123000000Y-38095001D01*
X123000000Y-44500000D02*
X123000000Y-42880000D01*
X104187500Y-100625000D02*
X104187500Y-98875000D01*
X106187500Y-100410000D02*
X106162500Y-100385000D01*
X176216550Y-91402000D02*
X179873000Y-91402000D01*
X123905000Y-41405000D02*
X124475000Y-41405000D01*
D78*
X176390216Y-109757607D02*
X175307607Y-109757607D01*
X171970107Y-110245107D02*
X171475000Y-109750000D01*
D76*
X109000000Y-53000000D02*
X109500000Y-52500000D01*
D78*
X176324601Y-95100001D02*
X174424999Y-95100001D01*
X179987500Y-76950000D02*
X178450000Y-76950000D01*
D76*
X123000000Y-44500000D02*
X123000000Y-46500000D01*
D78*
X177116269Y-62467725D02*
X177123544Y-62475000D01*
D76*
%TO.N,GND_PI*%
X102293043Y-113243043D02*
X102293043Y-113143043D01*
X103336500Y-96936075D02*
X103336500Y-92226000D01*
X106162500Y-97845000D02*
X104245425Y-97845000D01*
X104107500Y-91495000D02*
X104087500Y-91475000D01*
X104245425Y-97845000D02*
X103336500Y-96936075D01*
X103336500Y-92226000D02*
X104087500Y-91475000D01*
X106162500Y-91495000D02*
X104107500Y-91495000D01*
X162569000Y-126891000D02*
X115941000Y-126891000D01*
X135000000Y-63975000D02*
X136200000Y-62775000D01*
X163870000Y-125590000D02*
X162569000Y-126891000D01*
X102687500Y-98825000D02*
X102687500Y-97585075D01*
X115941000Y-126891000D02*
X102293043Y-113243043D01*
X135000000Y-64500000D02*
X135000000Y-63975000D01*
X102687500Y-97585075D02*
X103336500Y-96936075D01*
%TO.N,SDAB*%
X110500000Y-40325000D02*
X110500000Y-41099999D01*
X141486925Y-52749000D02*
X143809662Y-52749000D01*
X138058227Y-48004788D02*
X140701000Y-50647561D01*
X112900001Y-43500000D02*
X116500000Y-43500000D01*
X155000000Y-118000000D02*
X155030331Y-117969669D01*
X140701000Y-51963075D02*
X141486925Y-52749000D01*
X155000000Y-69000000D02*
X152500000Y-66500000D01*
X126635000Y-40135000D02*
X124475000Y-40135000D01*
X143809662Y-52749000D02*
X144530331Y-53469669D01*
X166410000Y-123050000D02*
X161360000Y-118000000D01*
X155000000Y-91000000D02*
X155000000Y-69000000D01*
X127500000Y-41000000D02*
X126635000Y-40135000D01*
X140701000Y-50647561D02*
X140701000Y-51963075D01*
X138058227Y-47937564D02*
X138058227Y-48004788D01*
X161360000Y-118000000D02*
X155000000Y-118000000D01*
X110500000Y-41099999D02*
X112900001Y-43500000D01*
D79*
%TO.N,GND_SRV_MOTOR*%
X143389215Y-90532607D02*
X143389215Y-97781607D01*
X137766215Y-100291392D02*
X137525000Y-100532607D01*
X142525000Y-89668392D02*
X143389215Y-90532607D01*
X137766215Y-92632607D02*
X137766215Y-100291392D01*
X127525000Y-111400000D02*
X125025000Y-113900000D01*
X142525000Y-84307607D02*
X147725000Y-79107607D01*
X142525000Y-86025000D02*
X142525000Y-89668392D01*
X131125001Y-116500000D02*
X132350000Y-116500000D01*
X127525000Y-112899999D02*
X131125001Y-116500000D01*
X136025000Y-86025000D02*
X137790215Y-87790215D01*
X125025000Y-113900000D02*
X121825000Y-113900000D01*
X127525000Y-111400000D02*
X127525000Y-112899999D01*
X137790215Y-92608607D02*
X137766215Y-92632607D01*
X137790215Y-87790215D02*
X137790215Y-92608607D01*
X142525000Y-86025000D02*
X142525000Y-84307607D01*
X147725000Y-67100000D02*
X147725000Y-79107607D01*
X143389215Y-97781607D02*
X146040215Y-100432607D01*
%TO.N,12V_SRV_MOTOR*%
X124550000Y-105025000D02*
X124526000Y-105049000D01*
X132525000Y-97946822D02*
X132525000Y-100532607D01*
X124526000Y-105049000D02*
X124526000Y-105125000D01*
X131025000Y-86025000D02*
X131025000Y-88168392D01*
X132525000Y-105025000D02*
X132525000Y-111400000D01*
X133565215Y-92632607D02*
X133565215Y-96906607D01*
X147590215Y-88273718D02*
X147590215Y-96041495D01*
X147590215Y-96041495D02*
X150241215Y-98692495D01*
X133589215Y-90732607D02*
X133565215Y-90756607D01*
X133565215Y-90756607D02*
X133565215Y-92632607D01*
X151040215Y-101509785D02*
X147525000Y-105025000D01*
X147525000Y-88208503D02*
X147590215Y-88273718D01*
X132525000Y-105025000D02*
X124550000Y-105025000D01*
X134700000Y-111500000D02*
X132625000Y-111500000D01*
X131025000Y-88168392D02*
X133589215Y-90732607D01*
X147525000Y-105025000D02*
X132525000Y-105025000D01*
X150241215Y-98692495D02*
X150241215Y-99633607D01*
X150241215Y-99633607D02*
X151040215Y-100432607D01*
X151040215Y-100432607D02*
X151040215Y-101509785D01*
X133565215Y-96906607D02*
X132525000Y-97946822D01*
X147525000Y-86025000D02*
X147525000Y-88208503D01*
X151215215Y-100257607D02*
X151040215Y-100432607D01*
X132525000Y-100532607D02*
X132525000Y-105025000D01*
X132625000Y-111500000D02*
X132525000Y-111400000D01*
%TO.N,GND_DC_MOTOR*%
X139550000Y-116000000D02*
X137500000Y-116000000D01*
D76*
X178500000Y-115150000D02*
X179175000Y-114475000D01*
D78*
X182090214Y-107807608D02*
X180865218Y-107807608D01*
D77*
X169040215Y-109195107D02*
X169370107Y-109195107D01*
D80*
X178576000Y-60049000D02*
X179175000Y-60049000D01*
D78*
X182090214Y-111707608D02*
X180965216Y-111707608D01*
D80*
X177101000Y-90801000D02*
X176275000Y-89975000D01*
D79*
X161947822Y-115000000D02*
X168151715Y-108796107D01*
X149825000Y-115000000D02*
X155100000Y-115000000D01*
X164950000Y-79500000D02*
X168461500Y-79500000D01*
X168036500Y-49775000D02*
X168636500Y-49175000D01*
D83*
X169040215Y-107907607D02*
X169040215Y-105982607D01*
D80*
X177100000Y-47250000D02*
X178575000Y-45775000D01*
D79*
X165125000Y-93374998D02*
X164900001Y-93599997D01*
D80*
X178855763Y-90425000D02*
X178479763Y-90801000D01*
D77*
X171850000Y-81442898D02*
X169925000Y-79517898D01*
D78*
X176374000Y-60699000D02*
X170851000Y-60699000D01*
X180965216Y-111707608D02*
X180590215Y-111332607D01*
D79*
X142500000Y-115175000D02*
X146765112Y-115175000D01*
D77*
X171675000Y-68925000D02*
X171675000Y-66613500D01*
D78*
X180900001Y-53975002D02*
X180525000Y-53600001D01*
D76*
X171890215Y-113957607D02*
X173082608Y-115150000D01*
D79*
X146940112Y-115000000D02*
X149825000Y-115000000D01*
D77*
X171975000Y-96717898D02*
X170025000Y-94767898D01*
D78*
X176875000Y-76025000D02*
X176700000Y-75850000D01*
D79*
X168461500Y-79500000D02*
X169036500Y-78925000D01*
D77*
X171850000Y-83300000D02*
X171850000Y-81442898D01*
X169370107Y-109195107D02*
X169925000Y-109750000D01*
D78*
X180865218Y-107807608D02*
X180590215Y-107532605D01*
D77*
X169925000Y-110344350D02*
X171613257Y-112032607D01*
D79*
X168726000Y-92999000D02*
X169136500Y-92588500D01*
D78*
X176700000Y-75850000D02*
X171175000Y-75850000D01*
D79*
X169136500Y-92588500D02*
X169136500Y-91325000D01*
D77*
X170025000Y-94767898D02*
X170025000Y-93225000D01*
D76*
X173082608Y-115150000D02*
X178500000Y-115150000D01*
D79*
X164900001Y-93599997D02*
X165500998Y-92999000D01*
D77*
X169525000Y-49767898D02*
X169525000Y-49175000D01*
D78*
X171877715Y-112032607D02*
X171877715Y-113945107D01*
X175999000Y-46149000D02*
X170626000Y-46149000D01*
D80*
X178575000Y-45775000D02*
X178875000Y-45775000D01*
D78*
X171000000Y-56500000D02*
X171000000Y-54562500D01*
D77*
X171012500Y-51255398D02*
X169525000Y-49767898D01*
X169925000Y-109750000D02*
X169925000Y-110344350D01*
D78*
X180774603Y-64400002D02*
X180499600Y-64124999D01*
D77*
X171675000Y-66613500D02*
X168861500Y-63800000D01*
D78*
X182074599Y-82625002D02*
X180949601Y-82625002D01*
X180874601Y-68300002D02*
X181999599Y-68300002D01*
D79*
X157150000Y-115525000D02*
X157675000Y-115000000D01*
D78*
X180899601Y-97050002D02*
X180524600Y-96675001D01*
X179074000Y-75149000D02*
X177751000Y-75149000D01*
X180799603Y-93150002D02*
X180524600Y-92874999D01*
D77*
X171012500Y-54550000D02*
X171012500Y-51255398D01*
D80*
X179175000Y-90425000D02*
X178855763Y-90425000D01*
D78*
X170626000Y-46149000D02*
X169525000Y-47250000D01*
X177150000Y-61475000D02*
X176374000Y-60699000D01*
X171175000Y-75850000D02*
X171100000Y-75775000D01*
D80*
X177150000Y-61475000D02*
X178576000Y-60049000D01*
D79*
X155100000Y-115000000D02*
X155625000Y-115525000D01*
D80*
X178479763Y-90801000D02*
X177101000Y-90801000D01*
D78*
X182024999Y-53975002D02*
X180900001Y-53975002D01*
D79*
X169036500Y-78925000D02*
X169036500Y-76950000D01*
X142425000Y-115100000D02*
X142500000Y-115175000D01*
D78*
X171675000Y-70825000D02*
X171675000Y-68925000D01*
X170851000Y-60699000D02*
X169750000Y-61800000D01*
X171100000Y-75775000D02*
X169925000Y-76950000D01*
X179175000Y-75250000D02*
X179074000Y-75149000D01*
X181999599Y-64400002D02*
X180774603Y-64400002D01*
D79*
X140450000Y-115100000D02*
X139550000Y-116000000D01*
X168151715Y-108796107D02*
X168151715Y-105982607D01*
D78*
X171877715Y-113945107D02*
X171890215Y-113957607D01*
X182024599Y-93150002D02*
X180799603Y-93150002D01*
D77*
X169925000Y-79517898D02*
X169925000Y-78925000D01*
D78*
X180800003Y-50075002D02*
X180525000Y-49799999D01*
D79*
X165025000Y-64250000D02*
X168411500Y-64250000D01*
D78*
X182024599Y-97050002D02*
X180899601Y-97050002D01*
D77*
X171975000Y-97700000D02*
X171975000Y-96717898D01*
D79*
X155000000Y-56500000D02*
X154951000Y-56549000D01*
D78*
X171000000Y-54562500D02*
X171012500Y-54550000D01*
X177751000Y-75149000D02*
X176875000Y-76025000D01*
D79*
X165500998Y-92999000D02*
X168726000Y-92999000D01*
X168861500Y-63800000D02*
X168861500Y-61800000D01*
X140450000Y-115100000D02*
X142425000Y-115100000D01*
X155625000Y-115525000D02*
X157150000Y-115525000D01*
D77*
X171613257Y-112032607D02*
X171877715Y-112032607D01*
D78*
X171375000Y-89975000D02*
X170025000Y-91325000D01*
D79*
X154951000Y-56549000D02*
X154951000Y-62825000D01*
D78*
X180949601Y-82625002D02*
X180574600Y-82250001D01*
X180499600Y-67925001D02*
X180874601Y-68300002D01*
X177100000Y-47250000D02*
X175999000Y-46149000D01*
X176275000Y-89975000D02*
X171375000Y-89975000D01*
X182074599Y-78725002D02*
X180849603Y-78725002D01*
X171975000Y-99650000D02*
X171975000Y-97700000D01*
X182024999Y-50075002D02*
X180800003Y-50075002D01*
D79*
X168636500Y-49175000D02*
X168636500Y-47250000D01*
X168411500Y-64250000D02*
X168861500Y-63800000D01*
D78*
X180849603Y-78725002D02*
X180574600Y-78449999D01*
D80*
X177130273Y-75775000D02*
X176975000Y-75775000D01*
D79*
X165125000Y-49775000D02*
X168036500Y-49775000D01*
X146765112Y-115175000D02*
X146940112Y-115000000D01*
D77*
X169040215Y-109195107D02*
X169040215Y-107907607D01*
D78*
X171850000Y-83300000D02*
X171850000Y-85200000D01*
D79*
X157675000Y-115000000D02*
X161947822Y-115000000D01*
D76*
%TO.N,Net-(Q2-G)*%
X101300000Y-70325000D02*
X101100000Y-70525000D01*
X109520000Y-70325000D02*
X101300000Y-70325000D01*
%TO.N,Net-(Q1-S)*%
X114590000Y-70335000D02*
X114600000Y-70325000D01*
D83*
X114600000Y-70325000D02*
X114600000Y-75215000D01*
D76*
X116087500Y-77675000D02*
X116087500Y-76722500D01*
D83*
X114600000Y-75215000D02*
X114590000Y-75225000D01*
D76*
X116087500Y-76722500D02*
X114590000Y-75225000D01*
%TO.N,Net-(Q1-G)*%
X109510000Y-75225000D02*
X101100000Y-75225000D01*
%TO.N,Net-(Q3-G)*%
X117710000Y-84527500D02*
X117662500Y-84575000D01*
X117710000Y-82025000D02*
X117710000Y-84527500D01*
%TO.N,Dout*%
X104087500Y-95325000D02*
X104107500Y-95305000D01*
X104107500Y-95305000D02*
X106162500Y-95305000D01*
X123960000Y-120725000D02*
X122560000Y-120725000D01*
X112292399Y-120725000D02*
X114625000Y-120725000D01*
X105574306Y-114006907D02*
X112292399Y-120725000D01*
X105506422Y-114006907D02*
X105574306Y-114006907D01*
D78*
%TO.N,/EN_IN2*%
X173425000Y-91325000D02*
X175149600Y-91325000D01*
X171850000Y-91325000D02*
X173425000Y-91325000D01*
X175149600Y-91325000D02*
X176324601Y-92500001D01*
%TO.N,/PH_IN3*%
X172750000Y-78725002D02*
X173150000Y-78725002D01*
D76*
X173849000Y-73199000D02*
X173150000Y-73898000D01*
D78*
X173150000Y-78725002D02*
X176374601Y-78725002D01*
X171949998Y-78725002D02*
X171750000Y-78925000D01*
D76*
X181940213Y-73199000D02*
X173849000Y-73199000D01*
D78*
X172750000Y-78725002D02*
X171949998Y-78725002D01*
%TO.N,/EN_IN4*%
X173025000Y-61800000D02*
X174349600Y-61800000D01*
X173025000Y-61800000D02*
X171575000Y-61800000D01*
X174349600Y-61800000D02*
X176299601Y-63750001D01*
D76*
%TO.N,/EN_IN5*%
X151300000Y-87925000D02*
X151300000Y-91000000D01*
D78*
X175412500Y-48512500D02*
X175262500Y-48362500D01*
D76*
X134475000Y-118525000D02*
X134475000Y-120155000D01*
D78*
X174150000Y-47250000D02*
X171350000Y-47250000D01*
D76*
X135000000Y-118000000D02*
X134475000Y-118525000D01*
X134475000Y-120155000D02*
X133390000Y-121240000D01*
D78*
X175262500Y-48362500D02*
X174150000Y-47250000D01*
D76*
X151300000Y-91000000D02*
X151328157Y-91028157D01*
D78*
X175412500Y-48512500D02*
X176325001Y-49425001D01*
D76*
X133390000Y-121240000D02*
X133390000Y-123050000D01*
%TO.N,/PH_IN5*%
X122510000Y-119050000D02*
X122810000Y-119350000D01*
D78*
X174001580Y-49949000D02*
X174127582Y-50075002D01*
X172548420Y-49949000D02*
X174001580Y-49949000D01*
X172422418Y-50075002D02*
X172548420Y-49949000D01*
D76*
X130850000Y-122850000D02*
X130850000Y-123050000D01*
D78*
X172275000Y-50075002D02*
X172422418Y-50075002D01*
X174127582Y-50075002D02*
X176325001Y-50075002D01*
X172250002Y-50075002D02*
X172275000Y-50075002D01*
D76*
X122810000Y-119350000D02*
X127350000Y-119350000D01*
X127350000Y-119350000D02*
X130850000Y-122850000D01*
D78*
X171350000Y-49175000D02*
X172250002Y-50075002D01*
%TO.N,/PH_IN2*%
X171850000Y-93225000D02*
X171924998Y-93150002D01*
X171924998Y-93150002D02*
X176324601Y-93150002D01*
%TO.N,/EN_IN3*%
X171750000Y-76950000D02*
X175249600Y-76950000D01*
X175249600Y-76950000D02*
X176374601Y-78075001D01*
D76*
X181940213Y-73899000D02*
X177040213Y-73899000D01*
D77*
%TO.N,Net-(J2-Pin_2)*%
X185941215Y-111330077D02*
X185941215Y-111775957D01*
X186642214Y-106857786D02*
X186642214Y-110629078D01*
D78*
X183140213Y-111057607D02*
X182090214Y-111057607D01*
D76*
X183141214Y-111827956D02*
X183141214Y-111058608D01*
D77*
X186642214Y-110629078D02*
X185941215Y-111330077D01*
X189100000Y-104400000D02*
X186642214Y-106857786D01*
D78*
X183141214Y-111058608D02*
X183140213Y-111057607D01*
D77*
X185941215Y-111775957D02*
X185258565Y-112458607D01*
X185258565Y-112458607D02*
X183771865Y-112458607D01*
D76*
X183771865Y-112458607D02*
X183141214Y-111827956D01*
D77*
%TO.N,Net-(J2-Pin_1)*%
X182070865Y-113132607D02*
X177314215Y-113132607D01*
X185963142Y-114159607D02*
X183067288Y-114159607D01*
X187642215Y-112034654D02*
X187642215Y-112480534D01*
X188343214Y-110156786D02*
X188343214Y-111333656D01*
X182070865Y-113163184D02*
X182070865Y-113132607D01*
X188343214Y-111333656D02*
X187642215Y-112034654D01*
X177314215Y-113132607D02*
X176390215Y-112208607D01*
X189100000Y-109400000D02*
X188343214Y-110156786D01*
X187642215Y-112480534D02*
X185963142Y-114159607D01*
X183067288Y-114159607D02*
X182070865Y-113163184D01*
%TO.N,Net-(J3-Pin_1)*%
X183001673Y-99476999D02*
X182005250Y-98480576D01*
X189275000Y-96600000D02*
X186398001Y-99476999D01*
X182005250Y-98449999D02*
X177248600Y-98449999D01*
X177248600Y-98449999D02*
X176349601Y-97551000D01*
X189275000Y-94200000D02*
X189275000Y-96600000D01*
X186398001Y-99476999D02*
X183001673Y-99476999D01*
%TO.N,Net-(J3-Pin_2)*%
X186801000Y-96276760D02*
X185651760Y-97426000D01*
D76*
X185444653Y-96926000D02*
X185361242Y-96926000D01*
D77*
X183943950Y-97538299D02*
X183832249Y-97650000D01*
X185651760Y-97426000D02*
X185568350Y-97426000D01*
D78*
X183051598Y-96400001D02*
X182024599Y-96400001D01*
D76*
X185361242Y-96926000D02*
X185236242Y-97051000D01*
X183075599Y-97145348D02*
X183075599Y-96451002D01*
D77*
X185568350Y-97426000D02*
X185443350Y-97551000D01*
X186801000Y-96276760D02*
X186801000Y-91674000D01*
X183956650Y-97551000D02*
X183943950Y-97538299D01*
D76*
X186301000Y-96069654D02*
X185444653Y-96926000D01*
D77*
X189275000Y-89200000D02*
X186801000Y-91674000D01*
D76*
X185236242Y-97051000D02*
X184224000Y-97051000D01*
X183330251Y-97400000D02*
X183075599Y-97145348D01*
X183875000Y-97400000D02*
X183330251Y-97400000D01*
D77*
X185443350Y-97551000D02*
X183956650Y-97551000D01*
D76*
X184224000Y-97051000D02*
X183875000Y-97400000D01*
%TO.N,Net-(J4-Pin_2)*%
X183350000Y-82450000D02*
X183100599Y-82200599D01*
X183100599Y-82200599D02*
X183100599Y-82026000D01*
D77*
X187620420Y-78649000D02*
X186624000Y-79645420D01*
D78*
X183049600Y-81975001D02*
X182074599Y-81975001D01*
D77*
X186624000Y-79645420D02*
X186624000Y-82095350D01*
X184049001Y-83425999D02*
X183731250Y-83425999D01*
D76*
X183350000Y-83044749D02*
X183350000Y-82450000D01*
D77*
X185393350Y-83326000D02*
X184149000Y-83326000D01*
D76*
X183731250Y-83425999D02*
X183350000Y-83044749D01*
D77*
X186624000Y-82095350D02*
X185393350Y-83326000D01*
D78*
X183100599Y-82026000D02*
X183049600Y-81975001D01*
D77*
X189075000Y-78649000D02*
X187620420Y-78649000D01*
X184149000Y-83326000D02*
X184049001Y-83425999D01*
X189075000Y-76100000D02*
X189075000Y-78649000D01*
%TO.N,Net-(J5-Pin_1)*%
X188125000Y-68674928D02*
X186222927Y-70577000D01*
X176299998Y-68801000D02*
X176299601Y-68801000D01*
X177224000Y-69725002D02*
X176299998Y-68801000D01*
X185503578Y-70577000D02*
X185454577Y-70626000D01*
X188125000Y-68500000D02*
X188125000Y-68674928D01*
X184386228Y-70752002D02*
X182977072Y-70752002D01*
X181980650Y-69725002D02*
X177224000Y-69725002D01*
X186222927Y-70577000D02*
X185503578Y-70577000D01*
X182977072Y-70752002D02*
X181980650Y-69755579D01*
X184512230Y-70626000D02*
X184386228Y-70752002D01*
X188875000Y-68500000D02*
X188125000Y-68500000D01*
X185454577Y-70626000D02*
X184512230Y-70626000D01*
%TO.N,Net-(J5-Pin_2)*%
X183807652Y-68925000D02*
X183681650Y-69051002D01*
D76*
X183050999Y-68420351D02*
X183050999Y-67651003D01*
D77*
X186424000Y-67045420D02*
X186424000Y-67970350D01*
D78*
X183050999Y-67651003D02*
X183049997Y-67650001D01*
D76*
X183681650Y-69051002D02*
X183050999Y-68420351D01*
D77*
X188875000Y-65519350D02*
X188345350Y-66049000D01*
X187420420Y-66049000D02*
X186424000Y-67045420D01*
X184750000Y-68925000D02*
X183807652Y-68925000D01*
X185518350Y-68876000D02*
X184799000Y-68876000D01*
D78*
X183049997Y-67650001D02*
X181999599Y-67650001D01*
D77*
X186424000Y-67970350D02*
X185518350Y-68876000D01*
X184799000Y-68876000D02*
X184750000Y-68925000D01*
X188875000Y-63500000D02*
X188875000Y-65519350D01*
X188345350Y-66049000D02*
X187420420Y-66049000D01*
%TO.N,Net-(J6-Pin_2)*%
X184973998Y-54701002D02*
X183706650Y-54701002D01*
D78*
X183075999Y-53376001D02*
X183075999Y-54070351D01*
X183024999Y-53325001D02*
X183075999Y-53376001D01*
D77*
X188494350Y-51900000D02*
X185693350Y-54701000D01*
X188875000Y-51900000D02*
X188494350Y-51900000D01*
X184974000Y-54701000D02*
X184973998Y-54701002D01*
D78*
X182024999Y-53325001D02*
X183024999Y-53325001D01*
D77*
X185693350Y-54701000D02*
X184974000Y-54701000D01*
D76*
X183706650Y-54701002D02*
X183075999Y-54070351D01*
D77*
%TO.N,Net-(J6-Pin_1)*%
X188875000Y-56900000D02*
X183500071Y-56900000D01*
X177249000Y-55324000D02*
X176401000Y-54476000D01*
X177249000Y-55375002D02*
X177249000Y-55324000D01*
X176401000Y-54476000D02*
X176325001Y-54476000D01*
X182005650Y-55375002D02*
X177249000Y-55375002D01*
X183500071Y-56900000D02*
X182005650Y-55405579D01*
D76*
%TO.N,Net-(J7-Pin_1)*%
X122112500Y-96025000D02*
X123362500Y-94775000D01*
X118612500Y-96025000D02*
X122112500Y-96025000D01*
%TO.N,Net-(J9-Pin_2)*%
X95550000Y-98675000D02*
X95550000Y-98224000D01*
X95550000Y-98224000D02*
X91410000Y-94084000D01*
X91410000Y-94084000D02*
X91410000Y-93075000D01*
%TO.N,Net-(J10-Pin_1)*%
X122900000Y-85375000D02*
X122900000Y-84675000D01*
X122900000Y-84675000D02*
X120250000Y-82025000D01*
D78*
%TO.N,Net-(U1-SLEEP_N)*%
X173527715Y-108457607D02*
X173490215Y-108420107D01*
X176390216Y-108457607D02*
X173527715Y-108457607D01*
%TO.N,Net-(U1-IPROPI)*%
X176390216Y-110407608D02*
X175390216Y-110407608D01*
X175390216Y-110407608D02*
X173765217Y-112032607D01*
X173765217Y-112032607D02*
X173702715Y-112032607D01*
%TO.N,Net-(U3-VCP)*%
X182877030Y-80761000D02*
X184264000Y-80761000D01*
X182791031Y-80675001D02*
X182877030Y-80761000D01*
X184264000Y-80761000D02*
X184475000Y-80550000D01*
X184475000Y-80550000D02*
X184475000Y-80225000D01*
X182074599Y-80675001D02*
X182791031Y-80675001D01*
%TO.N,Net-(U3-CPL)*%
X182074599Y-79375001D02*
X183019999Y-79375001D01*
X183019999Y-79375001D02*
X183275000Y-79120000D01*
%TO.N,Net-(U3-CPH)*%
X183220002Y-80025002D02*
X183275000Y-80080000D01*
X182074599Y-80025002D02*
X183220002Y-80025002D01*
%TO.N,Net-(U1-IMODE)*%
X176390216Y-111057607D02*
X175590159Y-111057607D01*
X174616215Y-113056607D02*
X173715215Y-113957607D01*
X175590159Y-111057607D02*
X174616215Y-112031551D01*
X174616215Y-112031551D02*
X174616215Y-113056607D01*
%TO.N,Net-(U4-CPL)*%
X183125000Y-64720000D02*
X183250000Y-64720000D01*
X182730030Y-64996000D02*
X182849000Y-64996000D01*
X182849000Y-64996000D02*
X183125000Y-64720000D01*
X181999599Y-65050001D02*
X182676029Y-65050001D01*
X182676029Y-65050001D02*
X182730030Y-64996000D01*
%TO.N,Net-(U4-CPH)*%
X183095002Y-65700002D02*
X183150000Y-65755000D01*
X183229998Y-65700002D02*
X183250000Y-65680000D01*
X181999599Y-65700002D02*
X183229998Y-65700002D01*
X183250000Y-65680000D02*
X183125000Y-65680000D01*
D76*
%TO.N,Net-(U1-PMODE)*%
X181732608Y-105750000D02*
X180050000Y-105750000D01*
X182090215Y-106107607D02*
X181732608Y-105750000D01*
D78*
X182090214Y-107157607D02*
X182090215Y-106107607D01*
%TO.N,Net-(U5-CPL)*%
X182024999Y-50725001D02*
X182969999Y-50725001D01*
X182969999Y-50725001D02*
X183225000Y-50470000D01*
X183225000Y-50470000D02*
X183250000Y-50470000D01*
%TO.N,Net-(U5-CPH)*%
X182024999Y-51375002D02*
X183170002Y-51375002D01*
X183170002Y-51375002D02*
X183225000Y-51430000D01*
%TO.N,Net-(U2-SLEEP_N)*%
X176324601Y-93800001D02*
X173899999Y-93800001D01*
X173899999Y-93800001D02*
X173600000Y-94100000D01*
%TO.N,Net-(U2-IPROPI)*%
X176324601Y-95750002D02*
X175024998Y-95750002D01*
X173800000Y-96975000D02*
X173800000Y-97700000D01*
X174326580Y-96838500D02*
X173936500Y-96838500D01*
X174701000Y-96074000D02*
X174701000Y-96464080D01*
X174701000Y-96464080D02*
X174326580Y-96838500D01*
X175024998Y-95750002D02*
X174701000Y-96074000D01*
X173936500Y-96838500D02*
X173800000Y-96975000D01*
%TO.N,Net-(U2-IMODE)*%
X175372604Y-96400000D02*
X175372604Y-96642418D01*
X175372604Y-96642418D02*
X174713500Y-97301522D01*
X174713500Y-98736500D02*
X173800000Y-99650000D01*
X176324601Y-96400001D02*
X175372604Y-96400000D01*
X174713500Y-97301522D02*
X174713500Y-98736500D01*
%TO.N,Net-(U2-PMODE)*%
X181950000Y-91150000D02*
X181950000Y-92425402D01*
X182075000Y-91025000D02*
X181950000Y-91150000D01*
X181950000Y-92425402D02*
X182024599Y-92500001D01*
D76*
%TO.N,/Power Electronics/TS*%
X137762500Y-72650000D02*
X138987500Y-73875000D01*
D78*
X135794504Y-73875000D02*
X137019504Y-72650000D01*
X134925000Y-73875000D02*
X135794504Y-73875000D01*
D76*
X138987500Y-73875000D02*
X139600000Y-73875000D01*
X137762500Y-72650000D02*
X137019504Y-72650000D01*
%TO.N,Net-(U8-~{SHDN})*%
X99212500Y-73825000D02*
X99750000Y-74362500D01*
X99750000Y-75639000D02*
X99640000Y-75749000D01*
X99750000Y-74362500D02*
X99750000Y-75639000D01*
D78*
%TO.N,Net-(U4-SLEEP_N)*%
X176299601Y-65050001D02*
X173649999Y-65050001D01*
X173649999Y-65050001D02*
X173325000Y-65375000D01*
%TO.N,Net-(U4-IPROPI)*%
X174849998Y-67000002D02*
X176299601Y-67000002D01*
X173736500Y-68113500D02*
X174051580Y-68113500D01*
X173500000Y-68350000D02*
X173736500Y-68113500D01*
X173500000Y-68925000D02*
X173500000Y-68350000D01*
X174051580Y-68113500D02*
X174426000Y-67739080D01*
X174426000Y-67424000D02*
X174849998Y-67000002D01*
X174426000Y-67739080D02*
X174426000Y-67424000D01*
%TO.N,Net-(U4-IMODE)*%
X174500000Y-68515022D02*
X175027000Y-67988022D01*
X173500000Y-70825000D02*
X174500000Y-69825000D01*
X174500000Y-69825000D02*
X174500000Y-68515022D01*
X175027000Y-67988022D02*
X175027000Y-67970604D01*
X175347603Y-67650001D02*
X176299601Y-67650001D01*
X175027000Y-67970604D02*
X175347603Y-67650001D01*
%TO.N,Net-(U4-PMODE)*%
X182062500Y-63687100D02*
X181999599Y-63750001D01*
X182437500Y-62150000D02*
X182062500Y-62525000D01*
X182062500Y-62525000D02*
X182062500Y-63687100D01*
%TO.N,Net-(U5-SLEEP_N)*%
X173275000Y-50862500D02*
X173412499Y-50725001D01*
X173412499Y-50725001D02*
X176325001Y-50725001D01*
%TO.N,Net-(U3-SLEEP_N)*%
X173500000Y-79725000D02*
X173849999Y-79375001D01*
X173849999Y-79375001D02*
X176374601Y-79375001D01*
%TO.N,Net-(U3-IPROPI)*%
X174999998Y-81325002D02*
X174601000Y-81724000D01*
X173675000Y-82650000D02*
X173675000Y-83300000D01*
X173861500Y-82463500D02*
X173675000Y-82650000D01*
X174601000Y-82089080D02*
X174226580Y-82463500D01*
X174226580Y-82463500D02*
X173861500Y-82463500D01*
X174601000Y-81724000D02*
X174601000Y-82089080D01*
X176374601Y-81325002D02*
X174999998Y-81325002D01*
%TO.N,Net-(U3-IMODE)*%
X176374601Y-81975001D02*
X175649999Y-81975001D01*
X174588500Y-84286500D02*
X173675000Y-85200000D01*
X174588500Y-83036500D02*
X174588500Y-84286500D01*
X175649999Y-81975001D02*
X174588500Y-83036500D01*
%TO.N,Net-(U3-PMODE)*%
X182050000Y-78050402D02*
X182074599Y-78075001D01*
X182087500Y-76675000D02*
X182050000Y-76712500D01*
X182050000Y-76712500D02*
X182050000Y-78050402D01*
%TO.N,Net-(U5-IPROPI)*%
X174949998Y-52675002D02*
X173075000Y-54550000D01*
X173075000Y-54550000D02*
X172837500Y-54550000D01*
X176325001Y-52675002D02*
X174949998Y-52675002D01*
%TO.N,Net-(U5-IMODE)*%
X173800000Y-54850002D02*
X173800000Y-55525000D01*
X173800000Y-55525000D02*
X172825000Y-56500000D01*
X176325001Y-53325001D02*
X175325001Y-53325001D01*
X175325001Y-53325001D02*
X173800000Y-54850002D01*
%TO.N,Net-(U5-PMODE)*%
X182462500Y-47925000D02*
X182024999Y-48362501D01*
X182024999Y-48362501D02*
X182024999Y-49425001D01*
D76*
%TO.N,Net-(U8-GATE)*%
X101100000Y-72175000D02*
X101100000Y-73575000D01*
X99789000Y-77550000D02*
X99640000Y-77401000D01*
X100950000Y-77675000D02*
X100825000Y-77550000D01*
X100825000Y-77550000D02*
X99789000Y-77550000D01*
%TO.N,Net-(R48-Pad1)*%
X86000000Y-103425000D02*
X87175000Y-103425000D01*
X87175000Y-103425000D02*
X89775000Y-100825000D01*
%TO.N,Net-(R49-Pad1)*%
X121725000Y-105212500D02*
X121725000Y-110025000D01*
X121812500Y-105125000D02*
X121725000Y-105212500D01*
%TO.N,Net-(R50-Pad1)*%
X111962500Y-105275000D02*
X111912500Y-105325000D01*
X111325000Y-106225000D02*
X111325000Y-110175000D01*
X111912500Y-105637500D02*
X111325000Y-106225000D01*
X111912500Y-105325000D02*
X111912500Y-105637500D01*
D78*
%TO.N,Net-(U4-VCP)*%
X184475000Y-66225000D02*
X184475000Y-65925000D01*
X184339000Y-66361000D02*
X184475000Y-66225000D01*
X181999599Y-66350001D02*
X182010598Y-66361000D01*
X182010598Y-66361000D02*
X184339000Y-66361000D01*
%TO.N,Net-(U5-VCP)*%
X182741031Y-52025001D02*
X182827030Y-52111000D01*
X184589000Y-52111000D02*
X184950000Y-51750000D01*
X182827030Y-52111000D02*
X184589000Y-52111000D01*
X182024999Y-52025001D02*
X182741031Y-52025001D01*
D76*
%TO.N,GND_BATTERY*%
X129200000Y-73225000D02*
X129200000Y-72800000D01*
X158647263Y-47349000D02*
X157211500Y-48784763D01*
X125412500Y-74987500D02*
X125225000Y-74800000D01*
X157211500Y-48788500D02*
X153000000Y-53000000D01*
D78*
X134925000Y-75825000D02*
X134925000Y-75175000D01*
D76*
X138000000Y-39500000D02*
X130074000Y-47426000D01*
X129200000Y-71925000D02*
X129200000Y-70200000D01*
D78*
X125412500Y-77912500D02*
X125500000Y-78000000D01*
D76*
X130074000Y-47426000D02*
X122151000Y-47426000D01*
D78*
X136825000Y-75175000D02*
X137500000Y-74500000D01*
D76*
X129300000Y-72700000D02*
X129200000Y-72800000D01*
X147775000Y-52275000D02*
X147775000Y-53000000D01*
X132962500Y-77425000D02*
X133325000Y-77425000D01*
X133325000Y-77425000D02*
X134925000Y-75825000D01*
X119525000Y-41405000D02*
X116405000Y-41405000D01*
X132962500Y-79437500D02*
X132962500Y-77425000D01*
X172302000Y-44198000D02*
X161802000Y-44198000D01*
X129200000Y-72800000D02*
X129200000Y-71925000D01*
X132975000Y-79450000D02*
X132962500Y-79437500D01*
X161802000Y-44198000D02*
X158651000Y-47349000D01*
X121175000Y-46225000D02*
X121450000Y-46500000D01*
X177000000Y-39500000D02*
X172302000Y-44198000D01*
D78*
X134925000Y-75175000D02*
X136825000Y-75175000D01*
D76*
X121175000Y-44500000D02*
X121175000Y-46225000D01*
X129200000Y-70200000D02*
X129000000Y-70000000D01*
D79*
X139000000Y-39500000D02*
X147775000Y-48275000D01*
D76*
X122151000Y-47426000D02*
X121225000Y-46500000D01*
X147450000Y-51950000D02*
X147775000Y-52275000D01*
D79*
X138000000Y-39500000D02*
X139000000Y-39500000D01*
X147775000Y-48275000D02*
X147775000Y-53000000D01*
D76*
X158651000Y-47349000D02*
X158647263Y-47349000D01*
X141750000Y-51950000D02*
X147450000Y-51950000D01*
X157211500Y-48784763D02*
X157211500Y-48788500D01*
X125412500Y-76475000D02*
X125412500Y-74987500D01*
X121175000Y-43055000D02*
X119525000Y-41405000D01*
X153000000Y-53000000D02*
X147775000Y-53000000D01*
X116405000Y-41405000D02*
X115000000Y-40000000D01*
X121175000Y-44500000D02*
X121175000Y-43055000D01*
D78*
X125412500Y-76475000D02*
X125412500Y-77912500D01*
D76*
%TO.N,12V_BATTERY_DIRECT*%
X133000000Y-39500000D02*
X136500000Y-36000000D01*
X167000000Y-36844917D02*
X170415083Y-40260000D01*
X170415083Y-40260000D02*
X170750000Y-40260000D01*
X136500000Y-36000000D02*
X167000000Y-36000000D01*
X167000000Y-36000000D02*
X167000000Y-36844917D01*
D79*
%TO.N,GND_SYS*%
X147775000Y-59850000D02*
X150750000Y-62825000D01*
X138000000Y-56500000D02*
X140200000Y-58700000D01*
D78*
X139140847Y-74949000D02*
X140051000Y-74949000D01*
X134925000Y-74525000D02*
X136475000Y-74525000D01*
X137249000Y-73751000D02*
X137942846Y-73751000D01*
D79*
X140200000Y-62775000D02*
X142701000Y-60274000D01*
D78*
X140501000Y-74499000D02*
X140501000Y-63076000D01*
D79*
X142701000Y-60274000D02*
X142701000Y-59000000D01*
X140200000Y-58700000D02*
X140200000Y-62775000D01*
X141900000Y-56100000D02*
X141500000Y-56500000D01*
D78*
X140051000Y-74949000D02*
X140501000Y-74499000D01*
D79*
X147775000Y-58925000D02*
X144725000Y-58925000D01*
D78*
X136475000Y-74525000D02*
X137249000Y-73751000D01*
X137942846Y-73751000D02*
X139140847Y-74949000D01*
D79*
X150750000Y-62825000D02*
X140250000Y-62825000D01*
X141500000Y-56500000D02*
X138000000Y-56500000D01*
D78*
X140501000Y-63076000D02*
X140200000Y-62775000D01*
D79*
X140250000Y-62825000D02*
X140200000Y-62775000D01*
X147775000Y-58925000D02*
X147775000Y-59850000D01*
X144725000Y-58925000D02*
X141900000Y-56100000D01*
D76*
%TO.N,GND_LDO*%
X153112500Y-40612500D02*
X153112500Y-39550000D01*
X139000000Y-51000000D02*
X138500000Y-51000000D01*
X153112500Y-41112500D02*
X154500000Y-42500000D01*
X138000000Y-51500000D02*
X138000000Y-52000000D01*
X157524000Y-41226000D02*
X153726000Y-41226000D01*
X151000000Y-40525000D02*
X152137500Y-40525000D01*
X153112500Y-39550000D02*
X153112500Y-41112500D01*
X157975000Y-40775000D02*
X157524000Y-41226000D01*
X152137500Y-40525000D02*
X153112500Y-39550000D01*
X158087500Y-40887500D02*
X157975000Y-40775000D01*
X138500000Y-51000000D02*
X138000000Y-51500000D01*
X146712500Y-40525000D02*
X146237500Y-40050000D01*
X160000000Y-40887500D02*
X158087500Y-40887500D01*
X153726000Y-41226000D02*
X153112500Y-40612500D01*
X151000000Y-40525000D02*
X146712500Y-40525000D01*
%TO.N,/Power Electronics/3.3V_DIRECT*%
X136000000Y-50000000D02*
X133000000Y-53000000D01*
X133136500Y-69613500D02*
X134287500Y-68462500D01*
X133000000Y-67175000D02*
X134287500Y-68462500D01*
X129937500Y-75175000D02*
X130056250Y-75056250D01*
X116725000Y-37500000D02*
X119430000Y-37500000D01*
X129850000Y-75175000D02*
X129937500Y-75175000D01*
X116725000Y-37500000D02*
X115775000Y-38450000D01*
X136500000Y-50000000D02*
X136000000Y-50000000D01*
X128752748Y-76897252D02*
X128011500Y-76156004D01*
X129200000Y-74525000D02*
X129850000Y-75175000D01*
X115775000Y-38450000D02*
X115000000Y-38450000D01*
X130805496Y-78950000D02*
X130925000Y-78950000D01*
X119525000Y-37595000D02*
X121120000Y-36000000D01*
X130925000Y-78950000D02*
X131425000Y-79450000D01*
X151000000Y-38575000D02*
X146312500Y-38575000D01*
X133000000Y-61500000D02*
X133000000Y-67175000D01*
X129200000Y-75175000D02*
X129200000Y-74525000D01*
X146312500Y-38575000D02*
X146237500Y-38500000D01*
X119430000Y-37500000D02*
X119525000Y-37595000D01*
X129937499Y-75175000D02*
X130056250Y-75056250D01*
X136212500Y-68475000D02*
X134300000Y-68475000D01*
X144500000Y-38500000D02*
X146237500Y-38500000D01*
X128011500Y-76156004D02*
X128011500Y-75348000D01*
X121120000Y-36000000D02*
X127000000Y-36000000D01*
X128011500Y-75348000D02*
X128184500Y-75175000D01*
X130056250Y-75056250D02*
X133136500Y-71975999D01*
X128184500Y-75175000D02*
X129200000Y-75175000D01*
X129200000Y-75175000D02*
X129937499Y-75175000D01*
X128752748Y-76897252D02*
X130805496Y-78950000D01*
X133136500Y-71975999D02*
X133136500Y-69613500D01*
X134300000Y-68475000D02*
X134287500Y-68462500D01*
%TO.N,/Power Electronics/12V BAT*%
X158212500Y-38987500D02*
X157975000Y-39225000D01*
X167051000Y-41461000D02*
X167750000Y-40762000D01*
X132000000Y-61562075D02*
X132000000Y-63000000D01*
X159934500Y-44000000D02*
X162473500Y-41461000D01*
X156925000Y-38575000D02*
X155225000Y-38575000D01*
X148000000Y-44000000D02*
X159934500Y-44000000D01*
X125237500Y-69700425D02*
X125237500Y-72875000D01*
X167750000Y-40762000D02*
X167750000Y-40260000D01*
X131937925Y-61500000D02*
X132000000Y-61562075D01*
X160000000Y-38987500D02*
X162473500Y-41461000D01*
X156675000Y-40525000D02*
X155225000Y-40525000D01*
X157725000Y-39225000D02*
X157000000Y-38500000D01*
X162473500Y-41461000D02*
X167051000Y-41461000D01*
X160000000Y-38987500D02*
X158212500Y-38987500D01*
X157000000Y-38500000D02*
X156925000Y-38575000D01*
X131937925Y-61500000D02*
X131937925Y-63000000D01*
X157975000Y-39225000D02*
X157725000Y-39225000D01*
X157975000Y-39225000D02*
X156675000Y-40525000D01*
X131937925Y-63000000D02*
X125237500Y-69700425D01*
%TO.N,/Power Electronics/SCLA*%
X138329000Y-70171000D02*
X136341500Y-70171000D01*
X119525000Y-38865000D02*
X117135000Y-38865000D01*
X138754000Y-65754000D02*
X138754000Y-69746000D01*
X120499999Y-38865000D02*
X119525000Y-38865000D01*
D78*
X136212500Y-72086292D02*
X135723792Y-72575000D01*
D76*
X122000000Y-40365001D02*
X120499999Y-38865000D01*
X138000000Y-65000000D02*
X138754000Y-65754000D01*
X136341500Y-70171000D02*
X136212500Y-70300000D01*
X117135000Y-38865000D02*
X117000000Y-39000000D01*
D78*
X136212500Y-70300000D02*
X136212500Y-72086292D01*
D76*
X122000000Y-43000000D02*
X122000000Y-40365001D01*
D78*
X135723792Y-72575000D02*
X134925000Y-72575000D01*
D76*
X138754000Y-69746000D02*
X138329000Y-70171000D01*
%TO.N,/Power Electronics/SDAA*%
X104000000Y-36500000D02*
X104000000Y-36449000D01*
D78*
X134075000Y-71275000D02*
X134119217Y-71319217D01*
X134119217Y-71319217D02*
X134119217Y-71918009D01*
D76*
X108688925Y-53751000D02*
X105500000Y-50562075D01*
X110500000Y-53000000D02*
X109749000Y-53751000D01*
X138000000Y-66433682D02*
X138000000Y-69000000D01*
X117135000Y-40135000D02*
X117000000Y-40000000D01*
X134925000Y-71925000D02*
X134925000Y-70925000D01*
X136500000Y-64933682D02*
X138000000Y-66433682D01*
D78*
X134119217Y-71918009D02*
X134126208Y-71925000D01*
D76*
X99511000Y-36449000D02*
X96460000Y-39500000D01*
X109749000Y-53751000D02*
X108688925Y-53751000D01*
X105500000Y-50562075D02*
X105500000Y-41000000D01*
X104000000Y-36449000D02*
X99511000Y-36449000D01*
X114449000Y-36449000D02*
X104000000Y-36449000D01*
X115000000Y-37000000D02*
X114449000Y-36449000D01*
X134925000Y-70925000D02*
X134287500Y-70287500D01*
D78*
X134126208Y-71925000D02*
X134925000Y-71925000D01*
D76*
X105500000Y-38000000D02*
X104000000Y-36500000D01*
X119525000Y-40135000D02*
X117135000Y-40135000D01*
%TD*%
M02*
