M48
; DRILL file {KiCad 9.0.2} date 2026-05-12T13:54:20-0400
; FORMAT={-:-/ absolute / metric / decimal}
; #@! TF.CreationDate,2026-05-12T13:54:20-04:00
; #@! TF.GenerationSoftware,Kicad,Pcbnew,9.0.2
; #@! TF.FileFunction,Plated,1,2,PTH
FMAT,2
METRIC
; #@! TA.AperFunction,Plated,PTH,ComponentDrill
T1C0.203
; #@! TA.AperFunction,Plated,PTH,ViaDrill
T2C0.300
; #@! TA.AperFunction,Plated,PTH,ViaDrill
T3C0.800
; #@! TA.AperFunction,Plated,PTH,ComponentDrill
T4C0.950
; #@! TA.AperFunction,Plated,PTH,ComponentDrill
T5C1.000
; #@! TA.AperFunction,Plated,PTH,ComponentDrill
T6C1.100
; #@! TA.AperFunction,Plated,PTH,ComponentDrill
T7C1.190
; #@! TA.AperFunction,Plated,PTH,ComponentDrill
T8C1.200
; #@! TA.AperFunction,Plated,PTH,ComponentDrill
T9C1.800
%
G90
G05
T1
X177.8Y-64.125
X177.8Y-65.075
X177.8Y-66.025
X177.8Y-66.975
X177.8Y-67.925
X177.825Y-92.875
X177.825Y-93.825
X177.825Y-94.775
X177.825Y-95.725
X177.825Y-96.675
X177.825Y-49.8
X177.825Y-50.75
X177.825Y-51.7
X177.825Y-52.65
X177.825Y-53.6
X177.875Y-78.45
X177.875Y-79.4
X177.875Y-80.35
X177.875Y-81.3
X177.875Y-82.25
X177.89Y-107.533
X177.89Y-108.483
X177.89Y-109.433
X177.89Y-110.383
X177.89Y-111.333
X179.15Y-64.125
X179.15Y-65.075
X179.15Y-66.025
X179.15Y-66.975
X179.15Y-67.925
X179.175Y-92.875
X179.175Y-93.825
X179.175Y-94.775
X179.175Y-95.725
X179.175Y-96.675
X179.175Y-49.8
X179.175Y-50.75
X179.175Y-51.7
X179.175Y-52.65
X179.175Y-53.6
X179.225Y-78.45
X179.225Y-79.4
X179.225Y-80.35
X179.225Y-81.3
X179.225Y-82.25
X179.24Y-107.533
X179.24Y-108.483
X179.24Y-109.433
X179.24Y-110.383
X179.24Y-111.333
X180.5Y-64.125
X180.5Y-65.075
X180.5Y-66.025
X180.5Y-66.975
X180.5Y-67.925
X180.525Y-92.875
X180.525Y-93.825
X180.525Y-94.775
X180.525Y-95.725
X180.525Y-96.675
X180.525Y-49.8
X180.525Y-50.75
X180.525Y-51.7
X180.525Y-52.65
X180.525Y-53.6
X180.575Y-78.45
X180.575Y-79.4
X180.575Y-80.35
X180.575Y-81.3
X180.575Y-82.25
X180.59Y-107.533
X180.59Y-108.483
X180.59Y-109.433
X180.59Y-110.383
X180.59Y-111.333
T2
X91.4Y-95.275
X96.575Y-77.35
X98.35Y-74.9
X98.45Y-97.5
X100.95Y-77.675
X101.1Y-72.9
X102.037Y-94.825
X102.287Y-101.975
X102.293Y-113.143
X102.4Y-74.475
X102.4Y-76.175
X104.087Y-91.475
X104.087Y-92.775
X104.087Y-94.075
X104.087Y-95.325
X104.087Y-96.625
X105.175Y-115.0
X105.5Y-38.0
X105.5Y-41.0
X105.506Y-114.007
X106.188Y-101.275
X108.0Y-90.0
X108.5Y-49.5
X109.0Y-53.0
X110.5Y-53.0
X114.625Y-120.725
X115.0Y-37.0
X116.5Y-42.5
X116.5Y-43.5
X116.5Y-45.0
X117.0Y-39.0
X117.0Y-40.0
X117.0Y-54.0
X120.587Y-97.325
X122.0Y-43.0
X122.51Y-119.05
X122.56Y-120.725
X122.56Y-121.425
X123.96Y-120.725
X123.96Y-121.425
X124.5Y-45.0
X125.5Y-78.0
X127.0Y-36.0
X127.5Y-39.0
X127.5Y-41.0
X127.55Y-127.591
X129.0Y-70.0
X130.012Y-76.688
X131.938Y-61.5
X133.0Y-53.0
X133.0Y-61.5
X133.5Y-119.0
X133.708Y-119.933
X134.075Y-71.275
X134.5Y-45.5
X135.0Y-64.5
X135.0Y-118.0
X135.175Y-119.925
X135.5Y-54.5
X135.5Y-119.0
X136.0Y-59.0
X136.5Y-50.0
X136.5Y-64.934
X137.5Y-74.5
X137.575Y-70.925
X138.0Y-65.0
X138.0Y-69.0
X138.058Y-47.938
X139.0Y-51.0
X139.6Y-73.875
X141.75Y-51.95
X143.5Y-53.5
X144.5Y-38.5
X144.53Y-53.47
X148.0Y-44.0
X151.0Y-66.5
X151.3Y-87.925
X151.328Y-91.028
X152.5Y-66.5
X154.0Y-91.0
X154.0Y-118.0
X154.5Y-42.5
X155.0Y-91.0
X155.03Y-117.97
X160.0Y-120.5
X172.275Y-50.075
X172.4Y-107.507
X173.025Y-61.8
X173.099Y-93.138
X173.15Y-73.898
X173.15Y-78.725
X173.25Y-105.983
X174.175Y-66.35
X174.375Y-80.675
X174.425Y-95.1
X174.45Y-52.025
X174.45Y-58.2
X175.15Y-91.325
X175.15Y-69.375
X175.175Y-64.4
X175.186Y-109.636
X175.194Y-105.283
X175.25Y-76.95
X175.262Y-48.362
X176.007Y-62.468
X176.207Y-91.393
X176.525Y-77.175
X176.75Y-48.475
X177.04Y-73.899
X178.875Y-45.775
X179.175Y-60.049
X179.175Y-75.25
X179.175Y-90.425
X179.175Y-114.475
X181.94Y-73.199
X181.94Y-73.899
X182.125Y-72.375
X183.775Y-115.8
T3
X141.0Y-79.0
X155.0Y-56.5
T4
X123.362Y-94.775
X123.362Y-97.275
X123.362Y-99.775
T5
X92.4Y-81.957
X92.4Y-86.957
X120.69Y-123.05
X120.69Y-125.59
X122.9Y-85.375
X123.23Y-123.05
X123.23Y-125.59
X125.77Y-123.05
X125.77Y-125.59
X128.31Y-123.05
X128.31Y-125.59
X130.85Y-123.05
X130.85Y-125.59
X133.39Y-123.05
X133.39Y-125.59
X135.93Y-123.05
X135.93Y-125.59
X138.47Y-123.05
X138.47Y-125.59
X141.01Y-123.05
X141.01Y-125.59
X143.55Y-123.05
X143.55Y-125.59
X146.09Y-123.05
X146.09Y-125.59
X148.63Y-123.05
X148.63Y-125.59
X151.17Y-123.05
X151.17Y-125.59
X153.71Y-123.05
X153.71Y-125.59
X156.25Y-123.05
X156.25Y-125.59
X158.79Y-123.05
X158.79Y-125.59
X161.33Y-123.05
X161.33Y-125.59
X163.87Y-123.05
X163.87Y-125.59
X166.41Y-123.05
X166.41Y-125.59
X168.95Y-123.05
X168.95Y-125.59
X177.0Y-39.5
X179.5Y-39.5
T6
X109.51Y-75.225
X109.52Y-70.325
X112.05Y-75.225
X112.06Y-70.325
X114.59Y-75.225
X114.6Y-70.325
X117.71Y-82.025
X120.25Y-82.025
X122.79Y-82.025
T7
X93.92Y-39.5
X96.46Y-39.5
X99.0Y-39.5
X101.54Y-39.5
T8
X111.5Y-56.625
X111.5Y-61.625
X125.0Y-56.64
X125.0Y-61.64
X132.525Y-100.533
X137.525Y-100.533
X146.04Y-100.433
X151.04Y-100.433
T9
X92.55Y-105.125
X92.55Y-110.125
X93.95Y-56.575
X93.95Y-61.575
X95.55Y-93.675
X95.55Y-98.675
X104.32Y-82.325
X104.32Y-87.325
X106.2Y-105.175
X106.2Y-110.175
X111.57Y-82.325
X111.57Y-87.325
X127.525Y-111.4
X131.025Y-86.025
X132.525Y-111.4
X133.0Y-39.5
X136.025Y-86.025
X138.0Y-39.5
X142.525Y-86.025
X147.525Y-86.025
X188.875Y-51.9
X188.875Y-56.9
X188.875Y-63.5
X188.875Y-68.5
X189.075Y-76.1
X189.075Y-81.1
X189.1Y-104.4
X189.1Y-109.4
X189.275Y-89.2
X189.275Y-94.2
M30
